<?xml version="1.0" encoding="iso-8859-1"?>
<!-- Generator: Adobe Illustrator 19.0.0, SVG Export Plug-In . SVG Version: 6.00 Build 0)  -->
<svg version="1.1" id="Layer_1" xmlns="http://www.w3.org/2000/svg" xmlns:xlink="http://www.w3.org/1999/xlink" x="0px" y="0px"
	 viewBox="0 0 512 512" style="enable-background:new 0 0 512 512;" xml:space="preserve">
<path style="fill:#314E55;" d="M479.636,256C498.982,244.389,512,223.266,512,199.111c0-36.593-29.778-66.37-66.37-66.37h-9.481
	v18.963h9.481c26.139,0,47.407,21.269,47.407,47.407s-21.269,47.407-47.407,47.407h-9.481H0v18.963h436.148h9.481
	c26.139,0,47.407,21.269,47.407,47.407c0,26.139-21.269,47.407-47.407,47.407h-9.481v18.963h9.481
	c36.593,0,66.37-29.778,66.37-66.37C512,288.734,498.982,267.611,479.636,256z"/>
<g>
</g>
<g>
</g>
<g>
</g>
<g>
</g>
<g>
</g>
<g>
</g>
<g>
</g>
<g>
</g>
<g>
</g>
<g>
</g>
<g>
</g>
<g>
</g>
<g>
</g>
<g>
</g>
<g>
</g>
</svg>
