<?xml version="1.0" encoding="iso-8859-1"?>
<!-- Generator: Adobe Illustrator 19.0.0, SVG Export Plug-In . SVG Version: 6.00 Build 0)  -->
<svg version="1.1" id="Layer_1" xmlns="http://www.w3.org/2000/svg" xmlns:xlink="http://www.w3.org/1999/xlink" x="0px" y="0px"
	 viewBox="0 0 512 512" style="enable-background:new 0 0 512 512;" xml:space="preserve">
<path style="fill:#314E55;" d="M253.361,129.589V55.424c0-3.881-2.134-7.454-5.546-9.294c-3.423-1.84-7.567-1.67-10.825,0.479
	L4.742,199.682C1.784,201.636,0,204.945,0,208.496c0,3.552,1.784,6.861,4.742,8.814L236.99,370.383
	c1.763,1.16,3.784,1.742,5.814,1.742c1.722,0,3.443-0.418,5.01-1.263c3.412-1.84,5.546-5.412,5.546-9.294v-94.562
	c111.783,4.642,206.061,82.118,231.247,191.933c1.103,4.794,5.371,8.196,10.289,8.196s9.186-3.397,10.289-8.191
	c4.526-19.68,6.814-40.01,6.814-60.428C512,253.624,396.914,135.161,253.361,129.589z"/>
<g>
	<polygon style="fill:#73C9C9;" points="232.247,341.966 29.742,208.496 232.247,75.027 232.247,139.878 232.247,256.002 	"/>
	<path style="fill:#73C9C9;" d="M490.66,409.156c-40.124-95.186-131.536-159.49-237.299-163.51v-94.99
		c131.907,5.557,237.526,114.608,237.526,247.861C490.887,402.069,490.815,405.615,490.66,409.156z"/>
</g>
<g>
</g>
<g>
</g>
<g>
</g>
<g>
</g>
<g>
</g>
<g>
</g>
<g>
</g>
<g>
</g>
<g>
</g>
<g>
</g>
<g>
</g>
<g>
</g>
<g>
</g>
<g>
</g>
<g>
</g>
</svg>
