<?xml version="1.0" encoding="iso-8859-1"?>
<!-- Generator: Adobe Illustrator 19.0.0, SVG Export Plug-In . SVG Version: 6.00 Build 0)  -->
<svg version="1.1" id="Layer_1" xmlns="http://www.w3.org/2000/svg" xmlns:xlink="http://www.w3.org/1999/xlink" x="0px" y="0px"
	 viewBox="0 0 512 512" style="enable-background:new 0 0 512 512;" xml:space="preserve">
<g>
	<path style="fill:#314E55;" d="M499.512,31.222H362.146c-6.896,0-12.488,5.591-12.488,12.488s5.591,12.488,12.488,12.488h113.27
		c-109.653,69.113-185.103,175.884-214.157,298.271C232.205,232.082,156.755,125.311,47.102,56.198h102.752
		c6.896,0,12.488-5.591,12.488-12.488s-5.591-12.488-12.488-12.488H12.488C5.591,31.222,0,36.814,0,43.71v137.366
		c0,6.896,5.591,12.488,12.488,12.488s12.488-5.591,12.488-12.488V69.982c0.995,1.625,2.253,3.102,3.988,4.168
		c129.504,79.442,210.108,213.753,219.796,363.569c-0.621,10.129-0.972,20.319-0.972,30.572c0,6.896,5.591,12.488,12.488,12.488
		c0.349,0,0.643-0.171,0.985-0.198c0.342,0.027,0.636,0.198,0.985,0.198c6.896,0,12.488-5.591,12.488-12.488
		c0-10.253-0.351-20.442-0.972-30.572c9.52-147.232,87.658-279.352,213.265-359.271v102.629c0,6.896,5.591,12.488,12.488,12.488
		S512,187.973,512,181.076V43.71C512,36.814,506.409,31.222,499.512,31.222z"/>
	<path style="fill:#314E55;" d="M24.976,56.835v-0.637h0.595C25.393,56.438,25.138,56.581,24.976,56.835z"/>
</g>
<g>
</g>
<g>
</g>
<g>
</g>
<g>
</g>
<g>
</g>
<g>
</g>
<g>
</g>
<g>
</g>
<g>
</g>
<g>
</g>
<g>
</g>
<g>
</g>
<g>
</g>
<g>
</g>
<g>
</g>
</svg>
