<?xml version="1.0" encoding="iso-8859-1"?>
<!-- Generator: Adobe Illustrator 19.0.0, SVG Export Plug-In . SVG Version: 6.00 Build 0)  -->
<svg version="1.1" id="Layer_1" xmlns="http://www.w3.org/2000/svg" xmlns:xlink="http://www.w3.org/1999/xlink" x="0px" y="0px"
	 viewBox="0 0 512 512" style="enable-background:new 0 0 512 512;" xml:space="preserve">
<path style="fill:#314E55;" d="M88.692,511.996c-11.308,0-22.616-4.209-30.777-12.376L12.38,454.085
	c-14.512-14.512-16.541-38.951-4.624-55.643l191.021-267.44l-77.204-77.204c-3.537-3.537-4.706-8.801-2.99-13.501
	c1.715-4.706,5.993-7.985,10.982-8.412L498.031,0.047c3.845-0.308,7.52,1.037,10.203,3.719c2.689,2.683,4.046,6.421,3.719,10.203
	l-31.845,368.46c-0.427,4.988-3.706,9.267-8.412,10.982c-4.693,1.715-9.964,0.547-13.501-2.99l-77.204-77.204l-267.44,191.028
	C106.257,509.452,97.474,511.996,88.692,511.996z"/>
<path style="fill:#81A4E3;" d="M159.305,55.144l65.374,65.374c4.448,4.448,5.026,11.459,1.376,16.573L28.702,413.395
	c-4.58,6.408-3.7,16.918,1.872,22.497l45.534,45.534c5.579,5.572,16.089,6.44,22.491,1.872l276.304-197.36
	c5.12-3.638,12.137-3.078,16.573,1.376l65.374,65.374l28.151-325.69L159.305,55.144z"/>
<g>
</g>
<g>
</g>
<g>
</g>
<g>
</g>
<g>
</g>
<g>
</g>
<g>
</g>
<g>
</g>
<g>
</g>
<g>
</g>
<g>
</g>
<g>
</g>
<g>
</g>
<g>
</g>
<g>
</g>
</svg>
