<?xml version="1.0" encoding="iso-8859-1"?>
<!-- Generator: Adobe Illustrator 19.0.0, SVG Export Plug-In . SVG Version: 6.00 Build 0)  -->
<svg version="1.1" id="Layer_1" xmlns="http://www.w3.org/2000/svg" xmlns:xlink="http://www.w3.org/1999/xlink" x="0px" y="0px"
	 viewBox="0 0 512 512" style="enable-background:new 0 0 512 512;" xml:space="preserve">
<path style="fill:#314E55;" d="M12.868,512c-3.399,0-6.672-1.345-9.097-3.769c-2.689-2.683-4.046-6.42-3.719-10.202l31.844-368.457
	c0.427-4.988,3.706-9.266,8.412-10.981c4.674-1.702,9.97-0.546,13.501,2.99l77.202,77.202L398.444,7.766
	c16.667-11.936,41.111-9.895,55.635,4.624l45.533,45.533c14.518,14.506,16.547,38.95,4.617,55.641L313.213,380.991l77.208,77.202
	c3.537,3.537,4.705,8.801,2.99,13.501c-1.715,4.705-5.993,7.985-10.981,8.412L13.973,511.95C13.603,511.981,13.238,512,12.868,512z"
	/>
<path style="fill:#D26CBA;" d="M55.153,159.311L27.002,484.999l325.688-28.151l-65.379-65.373
	c-4.448-4.448-5.026-11.459-1.376-16.572L483.291,98.606c4.58-6.408,3.706-16.912-1.872-22.484l-45.533-45.54
	c-5.572-5.572-16.082-6.452-22.484-1.878L137.098,226.059c-5.12,3.656-12.125,3.072-16.572-1.376L55.153,159.311z"/>
<g>
</g>
<g>
</g>
<g>
</g>
<g>
</g>
<g>
</g>
<g>
</g>
<g>
</g>
<g>
</g>
<g>
</g>
<g>
</g>
<g>
</g>
<g>
</g>
<g>
</g>
<g>
</g>
<g>
</g>
</svg>
