<?xml version="1.0" encoding="iso-8859-1"?>
<!-- Generator: Adobe Illustrator 19.0.0, SVG Export Plug-In . SVG Version: 6.00 Build 0)  -->
<svg version="1.1" id="Layer_1" xmlns="http://www.w3.org/2000/svg" xmlns:xlink="http://www.w3.org/1999/xlink" x="0px" y="0px"
	 viewBox="0 0 512 512" style="enable-background:new 0 0 512 512;" xml:space="preserve">
<path style="fill:#314E55;" d="M507.978,4.023c-3.186-3.199-7.736-4.624-12.18-3.788L234.13,48.694
	c-5.006,0.93-9.088,4.551-10.601,9.416c-1.512,4.859-0.201,10.152,3.4,13.753l96.911,96.911L168.773,323.84l-96.904-96.911
	c-3.614-3.62-8.914-4.919-13.759-3.4c-4.859,1.512-8.486,5.588-9.409,10.594L0.235,495.798c-0.817,4.437,0.589,8.994,3.788,12.186
	c2.597,2.597,6.09,4.016,9.69,4.016c0.83,0,1.66-0.074,2.49-0.228l261.668-48.459c5.006-0.93,9.088-4.551,10.601-9.416
	c1.512-4.859,0.201-10.152-3.4-13.753l-96.918-96.924l155.067-155.067l96.924,96.924c2.61,2.61,6.117,4.015,9.69,4.015
	c1.365,0,2.731-0.201,4.069-0.616c4.859-1.512,8.486-5.588,9.409-10.594L511.765,16.21C512.582,11.773,511.176,7.216,507.978,4.023z
	"/>
<g>
	<polygon style="fill:#D26CBA;" points="70.905,264.734 149.392,343.221 35.226,457.388 	"/>
	<polygon style="fill:#D26CBA;" points="247.273,441.102 54.588,476.787 168.773,362.602 	"/>
	<polygon style="fill:#D26CBA;" points="264.74,70.906 457.387,35.226 343.224,149.389 	"/>
	<polygon style="fill:#D26CBA;" points="441.108,247.274 362.604,168.77 476.78,54.595 	"/>
</g>
<g>
</g>
<g>
</g>
<g>
</g>
<g>
</g>
<g>
</g>
<g>
</g>
<g>
</g>
<g>
</g>
<g>
</g>
<g>
</g>
<g>
</g>
<g>
</g>
<g>
</g>
<g>
</g>
<g>
</g>
</svg>
