<?xml version="1.0" encoding="iso-8859-1"?>
<!-- Generator: Adobe Illustrator 19.0.0, SVG Export Plug-In . SVG Version: 6.00 Build 0)  -->
<svg version="1.1" id="Layer_1" xmlns="http://www.w3.org/2000/svg" xmlns:xlink="http://www.w3.org/1999/xlink" x="0px" y="0px"
	 viewBox="0 0 512 512" style="enable-background:new 0 0 512 512;" xml:space="preserve">
<path style="fill:#314E55;" d="M499.136,512c-0.371,0-0.735-0.019-1.106-0.05l-368.463-31.845
	c-4.988-0.427-9.267-3.706-10.982-8.412c-1.715-4.699-0.546-9.964,2.99-13.501l77.203-77.203L7.76,113.552
	c-11.924-16.686-9.895-41.13,4.624-55.642l45.534-45.528C72.424-2.137,96.862-4.16,113.554,7.758l267.437,191.019l77.203-77.203
	c3.537-3.549,8.82-4.705,13.501-2.99c4.705,1.715,7.985,5.993,8.412,10.982l31.845,368.463c0.327,3.782-1.03,7.52-3.719,10.203
	C505.808,510.655,502.535,512,499.136,512z"/>
<path style="fill:#C59981;" d="M159.308,456.848l325.693,28.151L456.85,159.306l-65.373,65.373
	c-4.442,4.448-11.452,5.032-16.573,1.376L98.602,28.703c-6.408-4.58-16.906-3.706-22.491,1.872L30.578,76.109
	c-5.579,5.579-6.452,16.083-1.878,22.484l197.358,276.308c3.65,5.114,3.072,12.125-1.376,16.573L159.308,456.848z"/>
<g>
</g>
<g>
</g>
<g>
</g>
<g>
</g>
<g>
</g>
<g>
</g>
<g>
</g>
<g>
</g>
<g>
</g>
<g>
</g>
<g>
</g>
<g>
</g>
<g>
</g>
<g>
</g>
<g>
</g>
</svg>
