<?xml version="1.0" encoding="iso-8859-1"?>
<!-- Generator: Adobe Illustrator 19.0.0, SVG Export Plug-In . SVG Version: 6.00 Build 0)  -->
<svg version="1.1" id="Layer_1" xmlns="http://www.w3.org/2000/svg" xmlns:xlink="http://www.w3.org/1999/xlink" x="0px" y="0px"
	 viewBox="0 0 512 512" style="enable-background:new 0 0 512 512;" xml:space="preserve">
<path style="fill:#314E55;" d="M423.308,512c-8.783,0-17.565-2.551-24.866-7.765L131.01,313.214l-77.204,77.204
	c-3.537,3.543-8.82,4.718-13.501,2.99c-4.705-1.715-7.985-5.993-8.412-10.982L0.049,13.968c-0.327-3.782,1.03-7.52,3.719-10.203
	c2.689-2.689,6.458-4.039,10.203-3.719l368.459,31.839c4.988,0.427,9.267,3.706,10.982,8.412c1.715,4.699,0.547,9.964-2.99,13.501
	l-77.204,77.204l191.027,267.439c11.918,16.692,9.888,41.13-4.624,55.643l-45.534,45.534C445.918,507.785,434.61,512,423.308,512z"
	/>
<path style="fill:#F28544;" d="M129.628,283.543c2.601,0,5.22,0.785,7.47,2.393l276.303,197.359
	c6.421,4.599,16.918,3.7,22.491-1.872l45.534-45.534c5.572-5.579,6.452-16.089,1.872-22.497l-197.36-276.303
	c-3.65-5.114-3.072-12.125,1.376-16.573l65.374-65.374L27,26.998l28.151,325.689l65.374-65.374
	C123.013,284.818,126.311,283.543,129.628,283.543z"/>
<g>
</g>
<g>
</g>
<g>
</g>
<g>
</g>
<g>
</g>
<g>
</g>
<g>
</g>
<g>
</g>
<g>
</g>
<g>
</g>
<g>
</g>
<g>
</g>
<g>
</g>
<g>
</g>
<g>
</g>
</svg>
