<?xml version="1.0" encoding="iso-8859-1"?>
<!-- Generator: Adobe Illustrator 19.0.0, SVG Export Plug-In . SVG Version: 6.00 Build 0)  -->
<svg version="1.1" id="Layer_1" xmlns="http://www.w3.org/2000/svg" xmlns:xlink="http://www.w3.org/1999/xlink" x="0px" y="0px"
	 viewBox="0 0 512 512" style="enable-background:new 0 0 512 512;" xml:space="preserve">
<path style="fill:#314E55;" d="M511.771,495.798l-48.453-261.674c-0.923-5.006-4.551-9.082-9.41-10.594
	c-4.845-1.506-10.159-0.214-13.76,3.4l-96.918,96.914L188.159,168.772l96.913-96.92c3.601-3.601,4.912-8.894,3.4-13.76
	c-1.512-4.859-5.595-8.479-10.601-9.41L16.197,0.23c-4.444-0.823-8.981,0.589-12.18,3.788c-3.199,3.192-4.604,7.75-3.788,12.187
	l48.466,261.674c0.923,5.006,4.551,9.082,9.41,10.594c1.338,0.415,2.704,0.616,4.069,0.616c3.574,0,7.081-1.406,9.691-4.016
	l96.913-96.92l155.072,155.072l-96.921,96.918c-3.601,3.601-4.912,8.894-3.4,13.753c1.512,4.865,5.595,8.486,10.601,9.416
	l261.674,48.46c0.83,0.154,1.66,0.228,2.49,0.228c3.601,0,7.094-1.419,9.691-4.016C511.182,504.792,512.587,500.235,511.771,495.798
	z"/>
<g>
	<polygon style="fill:#C59981;" points="168.774,149.388 54.607,35.221 247.26,70.895 	"/>
	<polygon style="fill:#C59981;" points="70.901,247.268 35.217,54.593 149.393,168.769 	"/>
	<polygon style="fill:#C59981;" points="441.112,264.735 476.781,457.395 362.615,343.229 	"/>
	<polygon style="fill:#C59981;" points="343.234,362.61 457.408,476.784 264.74,441.1 	"/>
</g>
<g>
</g>
<g>
</g>
<g>
</g>
<g>
</g>
<g>
</g>
<g>
</g>
<g>
</g>
<g>
</g>
<g>
</g>
<g>
</g>
<g>
</g>
<g>
</g>
<g>
</g>
<g>
</g>
<g>
</g>
</svg>
