<?xml version="1.0" encoding="iso-8859-1"?>
<!-- Generator: Adobe Illustrator 19.0.0, SVG Export Plug-In . SVG Version: 6.00 Build 0)  -->
<svg version="1.1" id="Layer_1" xmlns="http://www.w3.org/2000/svg" xmlns:xlink="http://www.w3.org/1999/xlink" x="0px" y="0px"
	 viewBox="0 0 512 512" style="enable-background:new 0 0 512 512;" xml:space="preserve">
<path style="fill:#314E55;" d="M482.547,234.92c-1,0-5.151-0.047-10.962-0.123c3.774-5.585,6.792-13.141,6.792-23.057
	c0-17.858-12.349-27.075-22.83-30.038c3.585-5.217,6.123-12.208,6.123-21.349c0-20.755-15.689-34.17-39.962-34.17
	c-1.142,0-2.585-0.075-4.236-0.217c5.302-4.462,8.953-10.359,8.953-18.151c0-21.538-14.821-36.01-36.887-36.01h-131.99
	c-0.755,0-1.509,0.085-2.245,0.264c-1.745,0.415-41.415,10.009-63.443,26.085h-75.934V71.807c0-5.34-4.321-9.66-9.66-9.66H9.66
	c-5.34,0-9.66,4.321-9.66,9.66v231.849c0,5.34,4.321,9.66,9.66,9.66h96.604c5.34,0,9.66-4.321,9.66-9.66v-28.66h69.5
	c14.038,15.868,73.613,81.877,105.415,95.5c14.764,6.33,22.16,23.132,29.311,39.377c7.255,16.49,14.104,32.057,28.849,37.991
	c3.547,1.424,6.745,1.991,9.604,1.991c5.038,0,8.981-1.755,11.736-3.623c11.613-7.849,17.5-28.189,17.5-60.462
	c0-17.698-7.736-29.302-17.538-44c-4.302-6.453-10.047-15.66-15.462-24.34c-2.217-3.557-4.217-6.755-6-9.585l132.491-5.802
	c0.83-0.038,1.651-0.179,2.443-0.425C494.255,298.363,512,287.807,512,268.901C512,246.91,492.547,234.92,482.547,234.92z"/>
<polygon style="fill:#E65F58;" points="96.604,293.995 19.321,293.995 19.321,81.467 96.604,81.467 96.604,107.816 96.604,265.335 
	"/>
<path style="fill:#E9E7D1;" d="M479,282.807l-148.019,6.481c-3.623,0.16-6.858,2.34-8.368,5.641c-1.5,3.302-1.028,7.17,1.226,10.019
	c2.038,2.566,8.717,13.264,14.613,22.717c5.519,8.84,11.387,18.236,15.773,24.821c9.651,14.481,14.293,21.943,14.293,33.283
	c0,26.368-4.66,41.528-8.991,44.453c-0.302,0.198-0.991,0.651-3.321-0.283c-7.434-2.991-12.745-15.066-18.377-27.849
	c-8.255-18.755-17.613-40.019-39.387-49.349c-26.047-11.17-81.991-71.453-101.349-93.736c-1.83-2.113-4.491-3.33-7.292-3.33h-73.877
	V117.476h79.217c2.226,0,4.387-0.774,6.113-2.179c16.198-13.245,50.962-22.519,57.481-24.17h130.802
	c8.009,0,17.566,2.896,17.566,16.689c0,5.151-16.349,10.962-29.887,12.34c-4.783,0.491-8.481,4.406-8.679,9.208
	c-0.207,4.793,3.142,9.019,7.858,9.896c3.406,0.641,33.613,6.245,45.311,6.245c9.415,0,20.642,2.575,20.642,14.849
	c0,10.292-5.481,13.726-7.924,14.736l-25.085-0.604c-5.585-0.217-9.406,3.736-9.858,8.802c-0.453,5.076,3.113,9.623,8.142,10.406
	l39.981,6.151c1.915,0.142,11.453,1.358,11.453,11.896c0,11-6.566,16.33-9.255,18.038l-36.594,4.302
	c-5.057,0.594-8.783,5.009-8.528,10.094c0.264,5.076,4.424,9.085,9.509,9.16c0,0,63.793,0.83,67.67,0.859
	c0.104,0.019,10.821,3.528,10.821,14.707C492.679,276.769,482.264,281.514,479,282.807z"/>
<path style="fill:#314E55;" d="M57.962,245.693c-10.651,0-19.321,8.67-19.321,19.321c0,10.651,8.67,19.321,19.321,19.321
	s19.321-8.67,19.321-19.321C77.283,254.363,68.613,245.693,57.962,245.693z"/>
<g>
</g>
<g>
</g>
<g>
</g>
<g>
</g>
<g>
</g>
<g>
</g>
<g>
</g>
<g>
</g>
<g>
</g>
<g>
</g>
<g>
</g>
<g>
</g>
<g>
</g>
<g>
</g>
<g>
</g>
</svg>
