<?xml version="1.0" encoding="iso-8859-1"?>
<!-- Generator: Adobe Illustrator 19.0.0, SVG Export Plug-In . SVG Version: 6.00 Build 0)  -->
<svg version="1.1" id="Layer_1" xmlns="http://www.w3.org/2000/svg" xmlns:xlink="http://www.w3.org/1999/xlink" x="0px" y="0px"
	 viewBox="0 0 512 512" style="enable-background:new 0 0 512 512;" xml:space="preserve">
<path style="fill:#314E55;" d="M507.444,248.275l-167.724-92.69c-2.741-1.513-6.065-1.461-8.759,0.121
	c-2.69,1.586-4.34,4.478-4.34,7.603v44.138h-52.966c-4.875,0-8.828,3.953-8.828,8.828v79.448c0,4.875,3.953,8.828,8.828,8.828
	h52.966v44.138c0,3.125,1.651,6.017,4.341,7.603c1.384,0.815,2.935,1.224,4.487,1.224c1.47,0,2.94-0.366,4.271-1.103l167.724-92.69
	c2.81-1.552,4.556-4.513,4.556-7.724C512,252.788,510.254,249.827,507.444,248.275z"/>
<path style="fill:#EA86A5;" d="M344.276,333.723v-38c0-4.875-3.953-8.828-8.828-8.828h-52.966v-61.793h52.966
	c4.875,0,8.828-3.953,8.828-8.828v-38l140.647,77.724L344.276,333.723z"/>
<path style="fill:#314E55;" d="M238.345,207.447h-52.966v-44.138c0-3.125-1.651-6.017-4.341-7.603
	c-2.694-1.582-6.022-1.634-8.759-0.121L4.556,248.275C1.746,249.827,0,252.788,0,255.999c0,3.211,1.746,6.172,4.556,7.724
	l167.724,92.69c1.332,0.737,2.802,1.103,4.271,1.103c1.552,0,3.103-0.409,4.487-1.224c2.69-1.586,4.341-4.478,4.341-7.603v-44.138
	h52.966c4.875,0,8.828-3.953,8.828-8.828v-79.448C247.172,211.4,243.22,207.447,238.345,207.447z"/>
<path style="fill:#73C9C9;" d="M229.517,286.895h-52.966c-4.875,0-8.828,3.953-8.828,8.828v38L27.078,255.999l140.647-77.724v38
	c0,4.875,3.953,8.828,8.828,8.828h52.966V286.895z"/>
<g>
</g>
<g>
</g>
<g>
</g>
<g>
</g>
<g>
</g>
<g>
</g>
<g>
</g>
<g>
</g>
<g>
</g>
<g>
</g>
<g>
</g>
<g>
</g>
<g>
</g>
<g>
</g>
<g>
</g>
</svg>
