<?xml version="1.0" encoding="iso-8859-1"?>
<!-- Generator: Adobe Illustrator 19.0.0, SVG Export Plug-In . SVG Version: 6.00 Build 0)  -->
<svg version="1.1" id="Layer_1" xmlns="http://www.w3.org/2000/svg" xmlns:xlink="http://www.w3.org/1999/xlink" x="0px" y="0px"
	 viewBox="0 0 512 512" style="enable-background:new 0 0 512 512;" xml:space="preserve">
<path style="fill:#314E55;" d="M452.923,0H59.077C26.5,0,0,26.5,0,59.077v393.846C0,485.5,26.5,512,59.077,512h393.846
	C485.5,512,512,485.5,512,452.923V59.077C512,26.5,485.5,0,452.923,0z"/>
<path style="fill:#EAEAEA;" d="M492.308,452.923c0,21.716-17.663,39.385-39.385,39.385H59.077
	c-21.721,0-39.385-17.668-39.385-39.385V59.077c0-21.716,17.664-39.385,39.385-39.385h393.846c21.721,0,39.385,17.668,39.385,39.385
	V452.923z"/>
<path style="fill:#314E55;" d="M323.51,187.077H187.077c-3.404,0-6.567,1.759-8.365,4.654c-1.798,2.889-1.971,6.505-0.462,9.558
	l68.211,137.846c1.663,3.356,5.087,5.481,8.827,5.481s7.164-2.125,8.827-5.481l68.221-137.846c1.51-3.048,1.337-6.663-0.462-9.558
	C330.077,188.836,326.913,187.077,323.51,187.077z"/>
<polygon style="fill:#E65F58;" points="255.288,312.572 202.933,206.769 307.654,206.769 "/>
<g>
</g>
<g>
</g>
<g>
</g>
<g>
</g>
<g>
</g>
<g>
</g>
<g>
</g>
<g>
</g>
<g>
</g>
<g>
</g>
<g>
</g>
<g>
</g>
<g>
</g>
<g>
</g>
<g>
</g>
</svg>
