<?xml version="1.0" encoding="iso-8859-1"?>
<!-- Generator: Adobe Illustrator 19.0.0, SVG Export Plug-In . SVG Version: 6.00 Build 0)  -->
<svg version="1.1" id="Layer_1" xmlns="http://www.w3.org/2000/svg" xmlns:xlink="http://www.w3.org/1999/xlink" x="0px" y="0px"
	 viewBox="0 0 512 512" style="enable-background:new 0 0 512 512;" xml:space="preserve">
<path style="fill:#314E55;" d="M256,0C114.843,0,0,114.843,0,256s114.843,256,256,256s256-114.843,256-256S397.157,0,256,0z"/>
<path style="fill:#E65F58;" d="M256,493.037C125.296,493.037,18.963,386.704,18.963,256S125.296,18.963,256,18.963
	S493.037,125.296,493.037,256S386.704,493.037,256,493.037z"/>
<path style="fill:#314E55;" d="M348.852,219.505L256,312.357l-92.852-92.852c-3.704-3.704-9.704-3.704-13.407,0
	s-3.704,9.704,0,13.407l99.556,99.556c1.852,1.852,4.278,2.778,6.704,2.778c2.426,0,4.852-0.926,6.704-2.778l99.556-99.556
	c3.704-3.704,3.704-9.704,0-13.407C358.556,215.801,352.556,215.801,348.852,219.505z"/>
<g>
</g>
<g>
</g>
<g>
</g>
<g>
</g>
<g>
</g>
<g>
</g>
<g>
</g>
<g>
</g>
<g>
</g>
<g>
</g>
<g>
</g>
<g>
</g>
<g>
</g>
<g>
</g>
<g>
</g>
</svg>
