<?xml version="1.0" encoding="iso-8859-1"?>
<!-- Generator: Adobe Illustrator 19.0.0, SVG Export Plug-In . SVG Version: 6.00 Build 0)  -->
<svg version="1.1" id="Layer_1" xmlns="http://www.w3.org/2000/svg" xmlns:xlink="http://www.w3.org/1999/xlink" x="0px" y="0px"
	 viewBox="0 0 511.992 511.992" style="enable-background:new 0 0 511.992 511.992;" xml:space="preserve">
<path style="fill:#314E55;" d="M384.526,365.741c-1.547-3.377-4.91-5.54-8.626-5.54h-78.522V0H126.604v94.875
	c0,5.239,4.244,9.487,9.487,9.487s9.487-4.248,9.487-9.487v-75.9h132.825V360.2h-79.597c-3.715,0-7.079,2.163-8.626,5.54
	c-1.547,3.373-0.982,7.338,1.445,10.15l88.547,102.532c1.807,2.085,4.419,3.285,7.18,3.285s5.374-1.2,7.18-3.285l88.547-102.532
	C385.508,373.079,386.073,369.113,384.526,365.741z"/>
<path style="fill:#E65F58;" d="M287.353,457.706l-67.821-78.531h66.752c0.542,0.096,1.037,0.324,1.606,0.324
	c0.57,0,1.064-0.228,1.606-0.324h65.677L287.353,457.706z"/>
<rect x="211.991" y="493.017" style="fill:#314E55;" width="151.8" height="18.975"/>
<g>
</g>
<g>
</g>
<g>
</g>
<g>
</g>
<g>
</g>
<g>
</g>
<g>
</g>
<g>
</g>
<g>
</g>
<g>
</g>
<g>
</g>
<g>
</g>
<g>
</g>
<g>
</g>
<g>
</g>
</svg>
