<?xml version="1.0" encoding="iso-8859-1"?>
<!-- Generator: Adobe Illustrator 19.0.0, SVG Export Plug-In . SVG Version: 6.00 Build 0)  -->
<svg version="1.1" id="Layer_1" xmlns="http://www.w3.org/2000/svg" xmlns:xlink="http://www.w3.org/1999/xlink" x="0px" y="0px"
	 viewBox="0 0 512 512" style="enable-background:new 0 0 512 512;" xml:space="preserve">
<g>
	<path style="fill:#314E55;" d="M375.666,380.542c-4.606-4.606-12.068-4.606-16.674,0l-91.2,91.2V271.206h35.375
		c6.517,0,11.792-5.28,11.792-11.792c0-6.512-5.274-11.792-11.792-11.792h-35.375v-47.166h35.375c6.517,0,11.792-5.28,11.792-11.792
		s-5.274-11.792-11.792-11.792h-35.375V0h-23.583v176.873h-35.375c-6.517,0-11.792,5.28-11.792,11.792s5.274,11.792,11.792,11.792
		h35.375v47.166h-35.375c-6.517,0-11.792,5.28-11.792,11.792c0,6.512,5.274,11.792,11.792,11.792h35.375v200.537l-91.201-91.2
		c-4.606-4.606-12.068-4.606-16.674,0c-4.606,4.606-4.606,12.068,0,16.674l111.329,111.329c2.303,2.303,5.32,3.455,8.337,3.455
		s6.034-1.151,8.337-3.455l111.329-111.329C380.272,392.611,380.272,385.149,375.666,380.542z"/>
	<polygon style="fill:#314E55;" points="255.919,483.454 256.08,483.454 256,483.534 	"/>
</g>
<g>
</g>
<g>
</g>
<g>
</g>
<g>
</g>
<g>
</g>
<g>
</g>
<g>
</g>
<g>
</g>
<g>
</g>
<g>
</g>
<g>
</g>
<g>
</g>
<g>
</g>
<g>
</g>
<g>
</g>
</svg>
