<?xml version="1.0" encoding="iso-8859-1"?>
<!-- Generator: Adobe Illustrator 19.0.0, SVG Export Plug-In . SVG Version: 6.00 Build 0)  -->
<svg version="1.1" id="Layer_1" xmlns="http://www.w3.org/2000/svg" xmlns:xlink="http://www.w3.org/1999/xlink" x="0px" y="0px"
	 viewBox="0 0 512 512" style="enable-background:new 0 0 512 512;" xml:space="preserve">
<path style="fill:#314E55;" d="M494,198.551H13.347c-4.51,0-8.51,2.893-9.923,7.178c-1.413,4.286,0.087,8.99,3.714,11.674
	l240.327,177.633c1.842,1.362,4.025,2.046,6.209,2.046c2.184,0,4.367-0.684,6.209-2.046L500.21,217.403
	c3.628-2.684,5.128-7.388,3.714-11.674C502.511,201.444,498.51,198.551,494,198.551z"/>
<polygon style="fill:#E65F58;" points="253.674,373.638 45.061,219.449 462.286,219.449 "/>
<path style="fill:#314E55;" d="M501.551,114.918H10.449C4.679,114.918,0,119.597,0,125.367v41.796
	c0,5.77,4.679,10.449,10.449,10.449h491.102c5.77,0,10.449-4.679,10.449-10.449v-41.796
	C512,119.597,507.321,114.918,501.551,114.918z"/>
<rect x="20.898" y="135.816" style="fill:#D8D8D8;" width="470.204" height="20.898"/>
<g>
</g>
<g>
</g>
<g>
</g>
<g>
</g>
<g>
</g>
<g>
</g>
<g>
</g>
<g>
</g>
<g>
</g>
<g>
</g>
<g>
</g>
<g>
</g>
<g>
</g>
<g>
</g>
<g>
</g>
</svg>
