<?xml version="1.0" encoding="iso-8859-1"?>
<!-- Generator: Adobe Illustrator 19.0.0, SVG Export Plug-In . SVG Version: 6.00 Build 0)  -->
<svg version="1.1" id="Layer_1" xmlns="http://www.w3.org/2000/svg" xmlns:xlink="http://www.w3.org/1999/xlink" x="0px" y="0px"
	 viewBox="0 0 512 512" style="enable-background:new 0 0 512 512;" xml:space="preserve">
<path style="fill:#314E55;" d="M461.908,249.66L280.573,4.324c-2.719-3.703-7.542-5.224-11.906-3.792
	c-4.375,1.443-7.333,5.526-7.333,10.13v490.671c0,4.604,2.958,8.688,7.333,10.13c1.094,0.365,2.219,0.536,3.333,0.536
	c3.323,0,6.531-1.552,8.573-4.328l181.335-245.335C464.7,258.571,464.7,253.425,461.908,249.66z"/>
<polygon style="fill:#E9E7D1;" points="282.667,468.958 282.667,43.038 440.074,255.998 "/>
<path style="fill:#314E55;" d="M67.238,4.324C64.509,0.621,59.696-0.9,55.332,0.533c-4.375,1.443-7.333,5.526-7.333,10.13v490.671
	c0,4.604,2.958,8.688,7.333,10.13c1.094,0.365,2.219,0.536,3.333,0.536c3.323,0,6.531-1.552,8.573-4.328l181.335-245.335
	c2.792-3.766,2.792-8.912,0-12.677L67.238,4.324z"/>
<polygon style="fill:#E9E7D1;" points="69.332,468.958 69.332,43.038 226.739,255.998 "/>
<g>
</g>
<g>
</g>
<g>
</g>
<g>
</g>
<g>
</g>
<g>
</g>
<g>
</g>
<g>
</g>
<g>
</g>
<g>
</g>
<g>
</g>
<g>
</g>
<g>
</g>
<g>
</g>
<g>
</g>
</svg>
