<?xml version="1.0" encoding="iso-8859-1"?>
<!-- Generator: Adobe Illustrator 19.0.0, SVG Export Plug-In . SVG Version: 6.00 Build 0)  -->
<svg version="1.1" id="Layer_1" xmlns="http://www.w3.org/2000/svg" xmlns:xlink="http://www.w3.org/1999/xlink" x="0px" y="0px"
	 viewBox="0 0 512 512" style="enable-background:new 0 0 512 512;" xml:space="preserve">
<path style="fill:#314E55;" d="M451.554,276.942c-6.048-15.019-21.913-22-38.712-29.394c-16.567-7.298-33.692-14.836-40.144-29.885
	c-13.885-32.414-81.164-93.135-97.337-107.442V78.769h29.212c5.442,0,9.846-4.404,9.846-9.846V9.846
	c0-5.442-4.404-9.846-9.846-9.846H68.266c-5.442,0-9.846,4.404-9.846,9.846v59.077c0,5.442,4.404,9.846,9.846,9.846h26.856v38.01
	c-16.385,22.452-26.164,62.885-26.587,64.663c-0.183,0.75-0.269,1.519-0.269,2.288v134.538c0,22.481,14.75,37.586,36.702,37.586
	c7.933,0,13.942-3.721,18.49-9.115c0.144,1.683,0.221,3.144,0.221,4.308c0,24.74,13.673,40.731,34.827,40.731
	c9.365,0,16.519-2.596,21.837-6.269c3.202,11.057,12.587,23.308,30.548,23.308c9.865,0,17.452-2.933,23.106-6.654
	c0.25,36.654,0.519,77.413,0.519,79.817c0,10.192,12.221,30.019,34.635,30.019c19.269,0,30.029-18.087,33.346-28.769
	c0.26-0.856,0.414-1.731,0.442-2.625l6.135-203.673c2.846,1.789,6.048,3.789,9.596,6c8.827,5.51,18.183,11.346,24.75,15.721
	c14.981,9.99,26.808,17.875,44.846,17.875c32.894,0,53.625-6,61.625-17.827C452.862,294.289,455.574,286.942,451.554,276.942z"/>
<polygon style="fill:#E65F58;" points="78.112,19.692 294.728,19.692 294.728,59.077 265.516,59.077 104.968,59.077 78.112,59.077 
	"/>
<path style="fill:#E9E7D1;" d="M433.574,287.673c-2.981,4.414-18.433,9.164-45.308,9.164c-11.558,0-19.164-4.731-33.923-14.567
	c-6.692-4.462-16.25-10.423-25.25-16.038c-9.644-6.019-20.577-12.846-23.202-14.923c-2.904-2.317-6.875-2.808-10.269-1.231
	c-3.375,1.567-5.586,4.913-5.702,8.635l-6.625,219.712c-1.365,3.433-6.193,13.885-14.144,13.885
	c-11.096,0-14.779-10.346-14.933-10.346c-0.01,0-0.01,0-0.01,0.01c0-4.644-0.923-138.5-0.923-138.5
	c-0.038-5.202-4.115-9.481-9.308-9.759c-5.202-0.49-9.702,3.51-10.317,8.683l-4.375,37.269c-1.817,2.836-7.25,9.462-18.394,9.462
	c-9.942,0-11.798-8.241-12.211-12.481l-6.183-39.942c-0.788-5.125-5.279-8.798-10.606-8.298c-5.164,0.462-9.096,4.856-8.971,10.048
	L173.536,364c-1.058,2.538-4.558,8.087-15.029,8.087c-12.51,0-15.135-11.442-15.135-21.038c0-11.914-5.702-42.702-6.346-46.173
	c-0.913-4.827-5.413-8.442-10.106-8.029c-4.894,0.211-8.894,3.99-9.375,8.865c-1.365,13.712-7.433,30.452-12.577,30.452
	c-14.058,0-17.01-9.73-17.01-17.894V184.913c3.067-12.356,12.654-43.904,24.635-58.558c1.433-1.76,2.221-3.962,2.221-6.231V78.769
	H255.67v35.913c0,2.856,1.24,5.567,3.394,7.433c22.712,19.731,84.154,76.75,95.538,103.298c9.51,22.192,31.183,31.74,50.308,40.154
	c13.019,5.731,25.327,11.154,28.375,18.721C434.247,286.683,433.776,287.375,433.574,287.673z"/>
<g>
</g>
<g>
</g>
<g>
</g>
<g>
</g>
<g>
</g>
<g>
</g>
<g>
</g>
<g>
</g>
<g>
</g>
<g>
</g>
<g>
</g>
<g>
</g>
<g>
</g>
<g>
</g>
<g>
</g>
</svg>
