<?xml version="1.0" encoding="iso-8859-1"?>
<!-- Generator: Adobe Illustrator 19.0.0, SVG Export Plug-In . SVG Version: 6.00 Build 0)  -->
<svg version="1.1" id="Layer_1" xmlns="http://www.w3.org/2000/svg" xmlns:xlink="http://www.w3.org/1999/xlink" x="0px" y="0px"
	 viewBox="0 0 512 512" style="enable-background:new 0 0 512 512;" xml:space="preserve">
<path style="fill:#314E55;" d="M512,256C512,118.022,402.257,5.253,265.481,0.241V0h-18.963v0.241C109.743,5.253,0,118.022,0,256
	s109.743,250.747,246.519,255.759V512h18.963v-0.241C402.257,506.747,512,393.978,512,256z"/>
<path style="fill:#E65F58;" d="M265.481,492.796V316.718l73.991,73.986c1.852,1.852,4.278,2.778,6.704,2.778
	s4.852-0.926,6.704-2.778c3.704-3.704,3.704-9.704,0-13.407l-90.176-90.171c-3.704-3.704-9.704-3.704-13.407,0l-90.176,90.171
	c-3.704,3.704-3.704,9.704,0,13.407s9.704,3.704,13.407,0l73.991-73.986v176.079C120.2,487.796,18.963,383.523,18.963,256
	S120.2,24.204,246.519,19.204v176.079l-73.991-73.986c-3.704-3.704-9.704-3.704-13.407,0c-3.703,3.704-3.704,9.704,0,13.407
	l90.176,90.171c1.852,1.852,4.278,2.778,6.704,2.778c2.426,0,4.852-0.926,6.704-2.778l90.176-90.171
	c3.704-3.704,3.704-9.704,0-13.407s-9.704-3.704-13.407,0l-73.991,73.986V19.204C391.8,24.204,493.037,128.477,493.037,256
	S391.8,487.796,265.481,492.796z"/>
<g>
</g>
<g>
</g>
<g>
</g>
<g>
</g>
<g>
</g>
<g>
</g>
<g>
</g>
<g>
</g>
<g>
</g>
<g>
</g>
<g>
</g>
<g>
</g>
<g>
</g>
<g>
</g>
<g>
</g>
</svg>
