<?xml version="1.0" encoding="iso-8859-1"?>
<!-- Generator: Adobe Illustrator 19.0.0, SVG Export Plug-In . SVG Version: 6.00 Build 0)  -->
<svg version="1.1" id="Layer_1" xmlns="http://www.w3.org/2000/svg" xmlns:xlink="http://www.w3.org/1999/xlink" x="0px" y="0px"
	 viewBox="0 0 512 512" style="enable-background:new 0 0 512 512;" xml:space="preserve">
<path style="fill:#314E55;" d="M437.018,74.981C388.666,26.63,324.379,0,256,0C190.792,0,129.342,24.265,81.848,68.441l-0.163-0.163
	L68.278,81.685l0.17,0.17c-93.171,100.261-91.033,257.596,6.533,355.163C123.333,485.37,187.62,512,256,512
	c65.206,0,126.656-24.264,174.149-68.439l0.165,0.165l13.407-13.407l-0.173-0.173C536.724,329.887,534.586,172.549,437.018,74.981z"
	/>
<path style="fill:#81A4E3;" d="M256,493.037c-63.315,0-122.843-24.657-167.611-69.426C-1.78,333.437-3.927,188.12,81.856,95.263
	l124.509,124.506H101.731c-5.241,0-9.481,4.245-9.481,9.481s4.241,9.481,9.481,9.481H229.25c5.241,0,9.481-4.245,9.481-9.481
	V101.727c0-5.236-4.241-9.481-9.481-9.481s-9.481,4.245-9.481,9.481v104.63L95.255,81.847C139.159,41.249,195.858,18.963,256,18.963
	c63.315,0,122.843,24.657,167.611,69.426c90.17,90.174,92.316,235.493,6.531,328.351L305.63,292.231h104.638
	c5.241,0,9.481-4.245,9.481-9.481c0-5.236-4.241-9.482-9.481-9.482H282.75c-5.241,0-9.481,4.245-9.481,9.482v127.523
	c0,5.236,4.241,9.481,9.481,9.481c5.241,0,9.482-4.245,9.482-9.481V305.648l124.51,124.506
	C372.838,470.752,316.14,493.037,256,493.037z"/>
<g>
</g>
<g>
</g>
<g>
</g>
<g>
</g>
<g>
</g>
<g>
</g>
<g>
</g>
<g>
</g>
<g>
</g>
<g>
</g>
<g>
</g>
<g>
</g>
<g>
</g>
<g>
</g>
<g>
</g>
</svg>
