<?xml version="1.0" encoding="iso-8859-1"?>
<!-- Generator: Adobe Illustrator 19.0.0, SVG Export Plug-In . SVG Version: 6.00 Build 0)  -->
<svg version="1.1" id="Layer_1" xmlns="http://www.w3.org/2000/svg" xmlns:xlink="http://www.w3.org/1999/xlink" x="0px" y="0px"
	 viewBox="0 0 512 512" style="enable-background:new 0 0 512 512;" xml:space="preserve">
<path style="fill:#314E55;" d="M511.759,246.519C506.747,109.743,393.978,0,256,0S5.253,109.743,0.241,246.519H0v18.963h0.241
	C5.253,402.257,118.022,512,256,512s250.747-109.743,255.759-246.519H512v-18.963H511.759z"/>
<path style="fill:#5ECB66;" d="M256,493.037c-127.524,0-231.796-101.236-236.796-227.556h176.087l-73.995,73.991
	c-3.704,3.704-3.704,9.704,0,13.407c1.852,1.852,4.278,2.778,6.704,2.778c2.426,0,4.852-0.926,6.704-2.778l90.176-90.171
	c1.778-1.778,2.778-4.19,2.778-6.704c0-2.514-1-4.926-2.778-6.704l-90.176-90.171c-3.704-3.704-9.704-3.704-13.407,0
	s-3.704,9.704,0,13.407l73.985,73.982H19.204C24.204,120.199,128.476,18.963,256,18.963s231.796,101.236,236.796,227.556H316.718
	l73.985-73.981c3.704-3.704,3.704-9.704,0-13.407c-3.704-3.703-9.704-3.704-13.407,0l-90.176,90.171
	c-1.778,1.778-2.778,4.19-2.778,6.704c0,2.514,1,4.926,2.778,6.704l90.176,90.171c1.852,1.852,4.278,2.778,6.704,2.778
	s4.852-0.926,6.704-2.778c3.704-3.704,3.704-9.704,0-13.407l-73.994-73.991h176.087C487.796,391.801,383.524,493.037,256,493.037z"
	/>
<g>
</g>
<g>
</g>
<g>
</g>
<g>
</g>
<g>
</g>
<g>
</g>
<g>
</g>
<g>
</g>
<g>
</g>
<g>
</g>
<g>
</g>
<g>
</g>
<g>
</g>
<g>
</g>
<g>
</g>
</svg>
