<?xml version="1.0" encoding="iso-8859-1"?>
<!-- Generator: Adobe Illustrator 19.0.0, SVG Export Plug-In . SVG Version: 6.00 Build 0)  -->
<svg version="1.1" id="Layer_1" xmlns="http://www.w3.org/2000/svg" xmlns:xlink="http://www.w3.org/1999/xlink" x="0px" y="0px"
	 viewBox="0 0 512 512" style="enable-background:new 0 0 512 512;" xml:space="preserve">
<path style="fill:#314E55;" d="M443.552,81.855l0.17-0.17l-13.407-13.407l-0.163,0.163C382.658,24.265,321.207,0,256,0
	C187.621,0,123.334,26.63,74.982,74.981c-97.568,97.567-99.705,254.905-6.531,355.166l-0.173,0.173l13.407,13.407l0.165-0.165
	C129.345,487.736,190.794,512,256,512c68.38,0,132.667-26.63,181.019-74.981C534.585,339.452,536.724,182.116,443.552,81.855z"/>
<path style="fill:#F28544;" d="M423.611,423.611C378.843,468.38,319.315,493.037,256,493.037
	c-60.141,0-116.838-22.285-160.742-62.883l124.51-124.506v104.625c0,5.236,4.241,9.481,9.481,9.481s9.481-4.245,9.481-9.481V282.75
	c0-5.236-4.241-9.481-9.481-9.481H101.732c-5.241,0-9.481,4.245-9.481,9.481s4.241,9.481,9.481,9.481H206.37L81.858,416.74
	C-3.927,323.882-1.781,178.563,88.389,88.389C133.158,43.62,192.685,18.963,256,18.963c60.142,0,116.841,22.286,160.744,62.884
	L292.232,206.356v-104.63c0-5.236-4.241-9.481-9.481-9.481c-5.241,0-9.481,4.245-9.481,9.481V229.25
	c0,5.236,4.241,9.481,9.481,9.481h127.519c5.241,0,9.481-4.245,9.481-9.481s-4.241-9.481-9.481-9.481H305.635L430.144,95.263
	C515.927,188.12,513.78,333.437,423.611,423.611z"/>
<g>
</g>
<g>
</g>
<g>
</g>
<g>
</g>
<g>
</g>
<g>
</g>
<g>
</g>
<g>
</g>
<g>
</g>
<g>
</g>
<g>
</g>
<g>
</g>
<g>
</g>
<g>
</g>
<g>
</g>
</svg>
