<?xml version="1.0" encoding="iso-8859-1"?>
<!-- Generator: Adobe Illustrator 19.0.0, SVG Export Plug-In . SVG Version: 6.00 Build 0)  -->
<svg version="1.1" id="Layer_1" xmlns="http://www.w3.org/2000/svg" xmlns:xlink="http://www.w3.org/1999/xlink" x="0px" y="0px"
	 viewBox="0 0 511.999 511.999" style="enable-background:new 0 0 511.999 511.999;" xml:space="preserve">
<path style="fill:#314E55;" d="M365.195,234.914c-7.173,0-12.608,3.363-16.718,8.246c-0.126-1.529-0.2-2.85-0.2-3.901
	c0-22.357-12.351-36.807-31.472-36.807c-5.717,0-10.527,1.069-14.524,2.789l-4.106-124.584c-0.786-10.879-9.08-27.067-28.704-27.067
	c-23.878,0-32.953,19.012-33.327,19.82c-0.513,1.104-0.791,2.303-0.821,3.519l-0.339,13.677c-4.814-3.38-10.896-5.691-18.165-5.691
	c-17.409,0-27.127,16.344-30.125,25.998c-0.239,0.773-0.374,1.573-0.395,2.381l-4.436,153.475
	c-7.373-13.772-17.8-26.875-25.663-30.881c-9.189-4.692-24.777-1.512-34.035,6.951c-8.554,7.82-10.796,18.942-6.148,30.499
	c3.702,9.202,5.948,20.002,8.546,32.515c3.319,15.971,7.447,35.842,16.235,60.068c14.102,38.927,58.139,80.035,70.416,90.975v2.528
	c0,28.996,23.604,52.578,52.621,52.578h57.631c29.017,0,52.625-23.608,52.625-52.63v-8.411
	c14.797-20.298,23.639-56.827,24.021-58.434c0.161-0.678,0.243-1.373,0.243-2.068V268.879
	C398.357,248.564,385.032,234.914,365.195,234.914z"/>
<path style="fill:#E9E7D1;" d="M380.561,389.388c-2.772,11.165-11.435,39.674-22.257,52.917c-1.299,1.59-2.007,3.58-2.007,5.63
	v11.435c0,19.212-15.623,34.835-34.83,34.835h-57.63c-19.203,0-34.826-15.606-34.826-34.782v-6.569c0-2.607-1.143-5.083-3.128-6.769
	c-0.534-0.46-53.864-46.243-68.357-86.23c-8.35-23.035-12.169-41.404-15.536-57.617c-2.776-13.346-5.17-24.877-9.462-35.538
	c-2.311-5.752-0.53-8.568,1.282-10.384c3.519-3.51,9.236-4.831,12.421-4.831c0.825,0,1.486,0.096,1.89,0.252
	c5.995,3.059,20.567,23.73,24.347,38.692c1.538,6.082,2.311,11.852,2.993,16.944c1.303,9.723,2.337,17.396,8.159,22.027
	c2.637,2.077,6.221,2.52,9.289,1.104c3.054-1.425,5.044-4.449,5.139-7.811l6-207.452c1.221-3.076,5.57-12.53,12.773-12.53
	c10.318,0,13.511,9.523,13.503,9.341c0,4.214,0.839,134.055,0.839,134.055c0.03,4.857,3.958,8.793,8.815,8.837
	c0.03,0,0.057,0,0.083,0c4.823,0,8.776-3.849,8.893-8.68l4.105-166.639c1.825-2.711,6.738-8.237,16.414-8.237
	c8.985,0,10.657,7.447,10.935,10.21l5.583,169.559c0.161,4.892,4.266,8.402,9.145,8.602c4.896-0.139,8.759-4.214,8.641-9.106
	l-0.547-23.087c0.951-2.303,4.119-7.316,13.577-7.316c11.304,0,13.677,10.34,13.677,19.012c0,10.766,5.157,38.597,5.743,41.734
	c0.817,4.344,4.788,7.412,9.128,7.247c4.427-0.191,8.033-3.606,8.472-8.011c1.234-12.46,6.582-27.518,11.37-27.518
	c12.699,0,15.367,8.793,15.367,16.17L380.561,389.388L380.561,389.388z"/>
<path style="fill:#314E55;" d="M130.494,67.414L180.66,85.67c1.004,0.365,2.029,0.539,3.041,0.539c3.632,0,7.047-2.242,8.363-5.856
	c1.677-4.614-0.704-9.723-5.322-11.4l-31.096-11.318c25.944-10.965,60.417-17.209,96.425-17.209
	c48.429,0,92.704,10.861,118.441,29.056c1.56,1.104,3.354,1.634,5.127,1.634c2.794,0,5.539-1.312,7.273-3.762
	c2.837-4.014,1.886-9.567-2.129-12.399c-28.622-20.237-76.742-32.323-128.711-32.323c-37.844,0-74.413,6.584-102.435,18.2
	l10.517-28.896c1.681-4.614-0.7-9.723-5.313-11.4c-4.623-1.668-9.727,0.695-11.405,5.318l-18.26,50.162
	c-0.808,2.216-0.704,4.666,0.295,6.804C126.466,64.955,128.274,66.606,130.494,67.414z"/>
<g>
</g>
<g>
</g>
<g>
</g>
<g>
</g>
<g>
</g>
<g>
</g>
<g>
</g>
<g>
</g>
<g>
</g>
<g>
</g>
<g>
</g>
<g>
</g>
<g>
</g>
<g>
</g>
<g>
</g>
</svg>
