<?xml version="1.0" encoding="iso-8859-1"?>
<!-- Generator: Adobe Illustrator 19.0.0, SVG Export Plug-In . SVG Version: 6.00 Build 0)  -->
<svg version="1.1" id="Layer_1" xmlns="http://www.w3.org/2000/svg" xmlns:xlink="http://www.w3.org/1999/xlink" x="0px" y="0px"
	 viewBox="0 0 512 512" style="enable-background:new 0 0 512 512;" xml:space="preserve">
<path style="fill:#314E55;" d="M495.359,357.136l-6.413-6.422c-4.191-26.767-25.323-61.391-26.261-62.91
	c-0.394-0.637-0.853-1.228-1.388-1.763l-92.752-92.752c-15.498-15.507-36.077-15.76-51.218-0.619
	c-5.475,5.475-7.05,12.179-6.469,19.042c-1.256-1.069-2.325-2.025-3.122-2.822c-17.054-17.054-37.53-18.657-52.1-4.069
	c-4.36,4.36-7.21,8.85-8.944,13.21l-98.19-91.918c-8.888-7.697-27.583-13.726-42.555,1.247
	c-18.226,18.217-10.641,39.649-10.304,40.549c0.45,1.238,1.153,2.363,2.053,3.31l10.201,10.716
	c-6.872,1.191-13.163,4.444-18.216,9.497c-13.285,13.276-8.232,33.161-3.15,42.818c0.403,0.769,0.909,1.481,1.509,2.119
	l113.706,120.475c-16.126-4.885-34.071-6.91-43.127-3.985c-10.594,3.431-20.064,17.757-20.664,31.267
	c-0.563,12.497,6.206,22.698,18.582,27.976c9.835,4.191,19.792,10.726,31.324,18.292c14.71,9.647,33.02,21.657,58.212,33.433
	c40.446,18.929,105.428,16.698,123.129,15.685l1.941,1.931c10.697,10.707,24.939,16.604,40.09,16.604c0.009,0,0.019,0,0.028,0
	c15.16-0.009,29.42-5.916,40.137-16.642l43.971-43.971C506.093,426.711,512,412.451,512,397.282S506.084,367.862,495.359,357.136z"
	/>
<path style="fill:#E9E7D1;" d="M481.792,423.862l-43.971,43.971c-7.097,7.097-16.538,11.007-26.57,11.016c-0.009,0-0.009,0-0.019,0
	c-10.022,0-19.436-3.9-26.514-10.979l-5.016-5.016c-1.809-1.809-4.256-2.813-6.788-2.813c-0.253,0-0.506,0.009-0.769,0.028
	c-0.741,0.085-76.298,5.85-117.934-13.632c-23.945-11.194-40.877-22.304-55.822-32.102c-12.291-8.063-22.914-15.029-34.324-19.895
	c-6.16-2.625-6.947-6.141-6.947-8.907c0.009-6.769,5.335-13.519,7.426-14.41c6.91-2.213,33.817,2.419,48.087,10.941
	c5.813,3.469,10.81,7.285,15.216,10.651c8.41,6.413,15.113,11.485,23.017,10.575c3.619-0.403,6.685-2.822,7.941-6.235
	c1.247-3.413,0.459-7.247-2.035-9.891L103.069,224.314c-1.416-3.272-5.316-13.81,0.187-19.304c3.497-3.497,7.407-4.435,10.641-4.435
	c4.153,0,6.872,1.359,6.788,1.256c3.206,3.206,102.924,101.64,102.924,101.64c3.731,3.685,9.732,3.685,13.463,0.019
	c3.75-3.675,3.844-9.675,0.234-13.473L113.288,159.754c-0.609-3.319-1.125-11.457,6.235-18.817
	c6.863-6.854,13.819-2.456,16.135-0.553l133.629,125.107c3.863,3.591,9.91,3.413,13.538-0.422c3.638-3.844,3.478-9.891-0.347-13.538
	l-18.038-17.195c-1.022-2.475-2.438-8.729,4.772-15.938c8.635-8.626,18.338-2.531,24.939,4.069
	c8.222,8.222,33.386,25.52,36.227,27.461c3.928,2.691,9.254,2.1,12.479-1.425c3.235-3.516,3.394-8.879,0.375-12.573
	c-8.55-10.482-15.957-26.055-12.329-29.683c9.675-9.675,18.432-5.025,24.067,0.619l91.936,91.936
	c6.404,10.641,21.545,39.002,23.392,57.35c0.225,2.203,1.2,4.266,2.766,5.832l8.719,8.729c7.107,7.097,11.016,16.538,11.016,26.57
	C492.799,407.323,488.889,416.765,481.792,423.862z"/>
<path style="fill:#314E55;" d="M189.595,63.708l-15.075,32.33c-2.241,4.81-0.159,10.519,4.641,12.76c1.313,0.609,2.691,0.9,4.05,0.9
	c3.619,0,7.078-2.053,8.71-5.541l24.348-52.212c1.078-2.306,1.191-4.95,0.319-7.341s-2.653-4.341-4.96-5.419l-52.212-24.339
	c-4.791-2.231-10.51-0.15-12.76,4.641c-2.241,4.81-0.159,10.519,4.641,12.76l29.62,13.805
	c-35.088,9.367-76.008,35.105-111.862,70.959c-32.524,32.524-57.509,70.204-68.563,103.365c-1.669,5.035,1.05,10.472,6.075,12.151
	c1.013,0.328,2.035,0.487,3.038,0.487c4.022,0,7.772-2.541,9.113-6.563c10.135-30.442,33.433-65.375,63.913-95.864
	C117.594,95.623,157.054,71.138,189.595,63.708z"/>
<g>
</g>
<g>
</g>
<g>
</g>
<g>
</g>
<g>
</g>
<g>
</g>
<g>
</g>
<g>
</g>
<g>
</g>
<g>
</g>
<g>
</g>
<g>
</g>
<g>
</g>
<g>
</g>
<g>
</g>
</svg>
