<?xml version="1.0" encoding="iso-8859-1"?>
<!-- Generator: Adobe Illustrator 19.0.0, SVG Export Plug-In . SVG Version: 6.00 Build 0)  -->
<svg version="1.1" id="Layer_1" xmlns="http://www.w3.org/2000/svg" xmlns:xlink="http://www.w3.org/1999/xlink" x="0px" y="0px"
	 viewBox="0 0 512 512" style="enable-background:new 0 0 512 512;" xml:space="preserve">
<path style="fill:#314E55;" d="M353.533,116.895c-1.17,0.427-2.238,1.094-3.141,1.949l-10.147,9.662
	c-1.037-5.934-3.768-12.011-9.03-17.269c-12.603-12.607-31.477-7.812-40.637-2.989c-0.73,0.383-1.406,0.863-2.011,1.432
	L174.241,217.582c4.635-15.294,6.57-32.323,3.781-40.926c-3.261-10.054-16.846-19.04-29.667-19.609
	c-11.917-0.667-21.553,5.89-26.553,17.634c-3.977,9.333-10.174,18.781-17.349,29.725c-9.159,13.959-20.556,31.335-31.735,55.241
	c-17.972,38.399-15.85,100.038-14.88,116.844l-1.837,1.842c-10.165,10.16-15.757,23.684-15.752,38.07
	c0.009,14.386,5.614,27.919,15.788,38.088l41.727,41.727C107.941,506.395,121.469,512,135.86,512h0.009
	c14.391,0,27.923-5.614,38.101-15.792l6.086-6.086c25.41-3.977,58.257-24.031,59.703-24.92c0.609-0.374,1.17-0.81,1.673-1.317
	l88.022-88.018c14.707-14.716,14.942-34.245,0.583-48.604c-5.196-5.187-11.571-6.699-18.07-6.139
	c1.01-1.192,1.917-2.207,2.678-2.963c3.497-3.497,9.742-10.739,12.242-19.929c2.914-10.712-0.062-21.193-8.381-29.502
	c-4.142-4.146-8.399-6.842-12.54-8.497l87.235-93.178c7.304-8.443,13.021-26.166-1.188-40.383
	C374.725,109.377,354.396,116.592,353.533,116.895z"/>
<path style="fill:#E9E7D1;" d="M379.659,154.867L260.933,281.675c-3.43,3.666-3.252,9.404,0.392,12.847
	c3.639,3.443,9.395,3.301,12.852-0.329l16.321-17.118c2.349-0.979,8.274-2.313,15.125,4.537c3.75,3.754,4.884,7.402,3.679,11.833
	c-1.019,3.746-3.768,8.061-7.536,11.824c-7.807,7.803-24.213,31.682-26.059,34.378c-2.562,3.737-1.979,8.79,1.361,11.86
	c3.336,3.07,8.439,3.203,11.931,0.329c9.925-8.141,24.702-15.16,28.154-11.691c9.195,9.2,4.755,17.491-0.583,22.838l-87.235,87.226
	c-5.449,3.247-34.814,20.241-54.445,22.216c-2.091,0.214-4.044,1.139-5.529,2.624l-8.274,8.274
	c-6.739,6.744-15.694,10.454-25.223,10.454h-0.005c-9.524,0-18.479-3.71-25.214-10.445l-41.727-41.727
	c-6.735-6.735-10.445-15.685-10.45-25.214c-0.005-9.52,3.697-18.461,10.414-25.178l4.76-4.76c1.891-1.886,2.852-4.511,2.638-7.171
	c-0.058-0.721-5.552-72.404,12.941-111.915c10.627-22.723,21.17-38.8,30.468-52.972c7.651-11.673,14.262-21.753,18.875-32.572
	c2.491-5.836,5.823-6.593,8.448-6.593h0.009c6.419,0.009,12.82,5.062,13.67,7.047c2.126,6.566-2.295,32.082-10.392,45.633
	c-3.288,5.516-6.904,10.258-10.094,14.431c-6.094,7.989-10.908,14.297-10.045,21.86c0.392,3.425,2.687,6.344,5.925,7.527
	c3.243,1.192,6.873,0.436,9.382-1.931l154.54-145.857c3.105-1.352,13.101-5.027,18.323,0.178c7.491,7.5,2.874,16.708,3.016,16.531
	c-3.061,3.061-96.456,97.68-96.456,97.68c-3.492,3.541-3.501,9.226-0.013,12.785c3.487,3.532,9.177,3.639,12.78,0.214
	l123.619-117.689c3.163-0.552,10.868-1.068,17.847,5.917C385.633,146.068,381.456,152.669,379.659,154.867z"/>
<path style="fill:#314E55;" d="M401.83,91.663c-27.403-27.403-58.645-49.112-87.339-60.99l28.539-13.308
	c4.56-2.126,6.53-7.545,4.404-12.109c-2.126-4.555-7.558-6.522-12.109-4.404l-49.543,23.105c-4.56,2.126-6.53,7.545-4.404,12.109
	l23.101,49.538c1.544,3.31,4.831,5.258,8.261,5.258c1.29,0,2.602-0.276,3.848-0.854c4.56-2.126,6.53-7.545,4.404-12.109
	l-14.318-30.707c26.713,10.834,56.194,31.274,82.273,57.354c35.059,35.054,59.249,74.975,64.717,106.781
	c0.761,4.44,4.613,7.571,8.968,7.571c0.512,0,1.028-0.044,1.552-0.133c4.956-0.854,8.288-5.561,7.433-10.516
	C465.541,172.865,439.451,129.279,401.83,91.663z"/>
<g>
</g>
<g>
</g>
<g>
</g>
<g>
</g>
<g>
</g>
<g>
</g>
<g>
</g>
<g>
</g>
<g>
</g>
<g>
</g>
<g>
</g>
<g>
</g>
<g>
</g>
<g>
</g>
<g>
</g>
</svg>
