<?xml version="1.0" encoding="iso-8859-1"?>
<!-- Generator: Adobe Illustrator 19.0.0, SVG Export Plug-In . SVG Version: 6.00 Build 0)  -->
<svg version="1.1" id="Layer_1" xmlns="http://www.w3.org/2000/svg" xmlns:xlink="http://www.w3.org/1999/xlink" x="0px" y="0px"
	 viewBox="0 0 512 512" style="enable-background:new 0 0 512 512;" xml:space="preserve">
<path style="fill:#314E55;" d="M367.158,229.932c-7.302,0-12.835,3.423-17.018,8.394c-0.128-1.557-0.203-2.901-0.203-3.972
	c0-22.759-12.573-37.469-32.038-37.469c-5.82,0-10.712,1.097-14.785,2.857l-4.18-126.841c-0.8-11.074-9.243-27.544-29.22-27.544
	c-24.307,0-33.546,19.345-33.926,20.167c-0.522,1.123-0.805,2.344-0.836,3.582l-0.345,13.923c-4.9-3.441-11.092-5.794-18.491-5.794
	c-17.722,0-27.615,16.638-30.667,26.465c-0.243,0.787-0.38,1.601-0.402,2.424l-4.515,156.243
	c-7.501-14.02-18.115-27.358-26.125-31.445c-9.38-4.794-25.236-1.539-34.643,7.076c-8.713,7.961-10.995,19.283-6.262,31.056
	c3.768,9.358,6.055,20.362,8.699,33.099c3.379,16.249,7.581,36.478,16.527,61.139c14.356,39.627,59.184,81.474,71.682,92.61v2.574
	c0,29.517,24.028,53.523,53.567,53.523h58.666c29.539,0,53.571-24.033,53.571-53.576v-8.562
	c15.063-20.663,24.064-57.848,24.453-59.484c0.164-0.69,0.248-1.398,0.248-2.105V264.517
	C400.916,243.828,387.351,229.932,367.158,229.932z"/>
<path style="fill:#E9E7D1;" d="M382.8,387.184c-2.822,11.366-11.64,40.388-22.657,53.868c-1.322,1.619-2.043,3.644-2.043,5.732
	v11.64c0,19.557-15.904,35.461-35.456,35.461h-58.666c-19.548,0-35.452-15.886-35.452-35.408v-6.687
	c0-2.654-1.163-5.175-3.184-6.891c-0.544-0.469-54.832-47.075-69.586-87.781c-8.5-23.44-12.388-42.148-15.815-58.653
	c-2.826-13.586-5.263-25.315-9.632-36.168c-2.357-5.864-0.54-8.73,1.309-10.579c3.582-3.582,9.407-4.918,12.644-4.918
	c0.836,0,1.504,0.089,1.911,0.257c6.108,3.122,20.95,24.174,24.793,39.397c1.566,6.183,2.353,12.056,3.047,17.24
	c1.331,9.898,2.379,17.708,8.306,22.423c2.68,2.123,6.338,2.556,9.456,1.123c3.109-1.451,5.135-4.529,5.232-7.952l6.108-211.181
	c1.243-3.131,5.67-12.755,13.003-12.755c10.504,0,13.715,9.721,13.746,9.509c0,4.29,0.854,136.474,0.854,136.474
	c0.031,4.945,4.029,8.951,8.974,8.996c0.031,0,0.058,0,0.084,0c4.909,0,8.934-3.919,9.053-8.836l4.179-169.635
	c1.805-2.627,6.886-8.385,16.709-8.385c9.146,0,10.849,7.572,11.132,10.384l5.683,172.616c0.168,4.98,4.277,8.571,9.31,8.757
	c4.984-0.142,8.916-4.29,8.797-9.27l-0.557-23.511c0.973-2.344,4.202-7.448,13.821-7.448c11.508,0,13.922,10.526,13.922,19.354
	c0,10.968,5.25,39.291,5.847,42.484c0.831,4.423,4.745,7.572,9.296,7.377c4.502-0.195,8.173-3.671,8.62-8.155
	c1.256-12.684,6.7-28.013,11.574-28.013c12.927,0,15.643,8.96,15.643,16.47L382.8,387.184L382.8,387.184z"/>
<path style="fill:#314E55;" d="M145.41,53.257c27.075-13.542,65.924-21.308,106.59-21.308c46.646,0,89.299,9.986,115.97,26.742
	l-31.622,11.514c-4.697,1.707-7.12,6.908-5.409,11.605c1.336,3.68,4.812,5.962,8.509,5.962c1.031,0,2.074-0.177,3.1-0.548
	l51.068-18.593c4.697-1.707,7.12-6.908,5.413-11.605L380.447,5.961c-1.712-4.706-6.926-7.12-11.61-5.413
	c-4.701,1.707-7.125,6.908-5.418,11.605l10.543,28.97c-29.651-17.157-74.126-27.289-121.963-27.289
	c-43.386,0-85.189,8.465-114.692,23.219c-4.476,2.238-6.289,7.678-4.051,12.153C135.499,53.672,140.921,55.486,145.41,53.257z"/>
<g>
</g>
<g>
</g>
<g>
</g>
<g>
</g>
<g>
</g>
<g>
</g>
<g>
</g>
<g>
</g>
<g>
</g>
<g>
</g>
<g>
</g>
<g>
</g>
<g>
</g>
<g>
</g>
<g>
</g>
</svg>
