<?xml version="1.0" encoding="iso-8859-1"?>
<!-- Generator: Adobe Illustrator 19.0.0, SVG Export Plug-In . SVG Version: 6.00 Build 0)  -->
<svg version="1.1" id="Layer_1" xmlns="http://www.w3.org/2000/svg" xmlns:xlink="http://www.w3.org/1999/xlink" x="0px" y="0px"
	 viewBox="0 0 512 512" style="enable-background:new 0 0 512 512;" xml:space="preserve">
<path style="fill:#314E55;" d="M365.192,234.915c-7.177,0-12.608,3.363-16.718,8.246c-0.13-1.529-0.2-2.85-0.2-3.901
	c0-22.357-12.356-36.807-31.472-36.807c-5.717,0-10.522,1.077-14.519,2.807l-4.11-124.601c-0.782-10.879-9.08-27.066-28.708-27.066
	c-23.878,0-32.949,19.012-33.323,19.82c-0.513,1.104-0.791,2.303-0.825,3.519l-0.33,13.685c-4.814-3.389-10.896-5.7-18.169-5.7
	c-17.413,0-27.127,16.344-30.125,26.006c-0.243,0.765-0.374,1.564-0.4,2.372l-4.431,153.483
	c-7.368-13.772-17.786-26.866-25.659-30.89c-9.219-4.709-24.79-1.512-34.035,6.951c-8.559,7.829-10.801,18.942-6.152,30.507
	c3.702,9.193,5.943,20.002,8.55,32.506c3.319,15.97,7.447,35.842,16.231,60.067c14.111,38.927,58.138,80.035,70.416,90.965v2.537
	c0,28.995,23.608,52.577,52.621,52.577h57.626c29.021,0,52.63-23.608,52.63-52.63v-8.411c14.797-20.289,23.643-56.826,24.025-58.434
	c0.165-0.678,0.243-1.373,0.243-2.068V268.889C398.358,248.566,385.029,234.915,365.192,234.915z"/>
<path style="fill:#E9E7D1;" d="M380.563,389.363c-1.529,6.004-10.07,38.023-22.261,52.942c-1.295,1.59-2.007,3.58-2.007,5.63v11.435
	c0,19.211-15.623,34.834-34.834,34.834h-57.626c-19.203,0-34.826-15.605-34.826-34.782v-6.569c0-2.607-1.147-5.083-3.128-6.769
	c-0.539-0.46-53.863-46.243-68.348-86.23c-8.359-23.035-12.173-41.412-15.545-57.617c-2.772-13.346-5.17-24.868-9.462-35.53
	c-2.311-5.761-0.53-8.576,1.286-10.392c3.519-3.519,9.245-4.831,12.425-4.831c0.825,0,1.477,0.087,1.877,0.252
	c6.004,3.067,20.576,23.747,24.347,38.701c1.538,6.074,2.311,11.843,2.998,16.926c1.303,9.732,2.337,17.413,8.159,22.035
	c2.641,2.103,6.239,2.52,9.289,1.095c3.05-1.416,5.04-4.44,5.144-7.803l5.995-207.442c1.234-3.111,5.596-12.538,12.773-12.538
	c10.027,0,13.355,9.349,13.494,9.349c0.009,0,0.009,0,0.009-0.009c0,4.214,0.843,134.063,0.843,134.063
	c0.035,4.857,3.953,8.793,8.819,8.837c0.026,0,0.052,0,0.078,0c4.822,0,8.776-3.849,8.898-8.68l4.092-166.647
	c1.833-2.711,6.743-8.237,16.414-8.237c8.985,0,10.67,7.447,10.948,10.21l5.578,169.566c0.157,4.892,4.458,8.463,9.141,8.602
	c4.892-0.139,8.759-4.214,8.646-9.106l-0.547-23.095c0.956-2.303,4.119-7.316,13.572-7.316c11.304,0,13.676,10.34,13.676,19.012
	c0,10.775,5.161,38.597,5.752,41.733c0.817,4.353,4.736,7.386,9.124,7.247c4.423-0.191,8.037-3.606,8.472-8.011
	c1.234-12.469,6.578-27.518,11.365-27.518c12.703,0,15.371,8.802,15.371,16.179L380.563,389.363L380.563,389.363z"/>
<path style="fill:#314E55;" d="M130.492,67.417l50.171,18.264c0.999,0.365,2.033,0.539,3.041,0.539c3.632,0,7.047-2.242,8.359-5.856
	c1.686-4.614-0.695-9.723-5.318-11.4l-31.1-11.326c25.939-10.965,60.412-17.209,96.424-17.209c45.818,0,87.723,9.811,113.924,26.27
	l-31.057,11.31c-4.623,1.677-7.003,6.786-5.318,11.4c1.312,3.615,4.727,5.856,8.359,5.856c1.008,0,2.042-0.174,3.041-0.539
	l50.162-18.264c4.622-1.677,7.003-6.786,5.318-11.4L378.243,14.9c-1.677-4.614-6.812-7.003-11.4-5.318
	c-4.623,1.677-7.003,6.786-5.318,11.4l10.359,28.463c-29.133-16.857-72.819-26.812-119.815-26.812
	c-37.849,0-74.416,6.583-102.429,18.198l10.516-28.894c1.686-4.614-0.695-9.723-5.318-11.4c-4.596-1.677-9.723,0.704-11.4,5.318
	l-18.265,50.162c-0.808,2.215-0.704,4.666,0.295,6.803S128.277,66.609,130.492,67.417z"/>
<g>
</g>
<g>
</g>
<g>
</g>
<g>
</g>
<g>
</g>
<g>
</g>
<g>
</g>
<g>
</g>
<g>
</g>
<g>
</g>
<g>
</g>
<g>
</g>
<g>
</g>
<g>
</g>
<g>
</g>
</svg>
