<?xml version="1.0" encoding="iso-8859-1"?>
<!-- Generator: Adobe Illustrator 19.0.0, SVG Export Plug-In . SVG Version: 6.00 Build 0)  -->
<svg version="1.1" id="Layer_1" xmlns="http://www.w3.org/2000/svg" xmlns:xlink="http://www.w3.org/1999/xlink" x="0px" y="0px"
	 viewBox="0 0 512 512" style="enable-background:new 0 0 512 512;" xml:space="preserve">
<path style="fill:#314E55;" d="M344.078,95.649c-1.233,0.45-2.358,1.153-3.31,2.053l-10.694,10.183
	c-1.088-6.254-3.971-12.658-9.517-18.209c-13.277-13.296-33.164-8.232-42.826-3.15c-0.774,0.403-1.486,0.909-2.124,1.51
	L155.123,201.751c4.885-16.118,6.924-34.064,3.99-43.131c-3.441-10.595-17.763-20.065-31.274-20.665
	c-12.466-0.609-22.7,6.207-27.974,18.584c-4.196,9.845-10.727,19.803-18.293,31.335c-9.648,14.711-21.654,33.023-33.436,58.208
	c-18.94,40.468-16.708,105.436-15.686,123.147l-1.932,1.932c-22.114,22.118-22.095,58.123,0.037,80.27l43.97,43.965
	C85.594,506.468,100.132,512,114.679,512c14.543,0,29.09-5.532,40.168-16.605l6.409-6.423c26.783-4.182,61.395-25.316,62.919-26.253
	c0.642-0.394,1.233-0.853,1.763-1.388l92.764-92.768c15.499-15.499,15.743-36.089,0.614-51.222c-5.476-5.466-12.18-7.06-19.038-6.47
	c1.064-1.256,2.016-2.325,2.817-3.122c17.06-17.055,18.654-37.505,4.069-52.094c-4.365-4.369-8.851-7.21-13.216-8.954l91.934-98.197
	c7.698-8.898,13.722-27.575-1.252-42.549C366.402,87.726,344.987,95.321,344.078,95.649z"/>
<path style="fill:#E9E7D1;" d="M371.611,135.658L246.49,269.297c-3.615,3.863-3.427,9.911,0.413,13.539
	c3.844,3.629,9.901,3.479,13.544-0.347l17.201-18.04c2.471-1.041,8.725-2.438,15.939,4.782c8.621,8.626,2.546,18.321-4.069,24.941
	c-8.223,8.223-25.513,33.379-27.458,36.22c-2.7,3.938-2.086,9.264,1.435,12.498c3.521,3.235,8.893,3.375,12.574,0.347
	c10.45-8.579,26.01-15.977,29.671-12.32c9.686,9.695,5.012,18.443-0.614,24.069L213.19,446.92
	c-5.743,3.422-36.689,21.331-57.373,23.403c-2.208,0.225-4.271,1.2-5.837,2.766l-8.715,8.729c-14.664,14.646-38.513,14.646-53.158,0
	l-43.97-43.965c-14.65-14.655-14.669-38.48-0.037-53.116l5.012-5.016c1.988-1.988,3-4.754,2.775-7.557
	c-0.056-0.75-5.813-76.369,13.642-117.943c11.2-23.947,22.301-40.871,32.099-55.817c8.068-12.302,15.039-22.925,19.901-34.336
	c2.625-6.151,6.132-6.948,8.898-6.948h0.005c6.765,0.009,13.52,5.335,14.416,7.426c2.236,6.91-2.419,33.811-10.951,48.1
	c-3.469,5.813-7.281,10.811-10.642,15.217c-6.418,8.401-11.491,15.049-10.581,23.018c0.413,3.61,2.832,6.685,6.245,7.932
	c3.427,1.266,7.243,0.459,9.887-2.035l162.851-153.704c3.329-1.425,13.835-5.307,19.324,0.178c7.909,7.904,3.024,17.946,3.169,17.43
	c-3.211,3.226-101.638,102.932-101.638,102.932c-3.685,3.732-3.694,9.723-0.019,13.464c3.671,3.741,9.672,3.835,13.469,0.235
	l130.278-124.019c3.324-0.572,11.448-1.125,18.813,6.235C377.907,126.384,373.505,133.342,371.611,135.658z"/>
<path style="fill:#314E55;" d="M492.512,146.665c-4.796-2.222-10.516-0.159-12.761,4.641l-13.808,29.608
	c-9.368-35.09-35.111-76.014-70.967-111.865C362.45,36.523,324.772,11.535,291.603,0.481c-5.044-1.641-10.468,1.05-12.142,6.076
	c-1.674,5.035,1.045,10.473,6.076,12.152c30.43,10.126,65.371,33.426,95.862,63.918c34.963,34.963,59.452,74.421,66.879,106.971
	l-32.323-15.075c-4.81-2.222-10.525-0.159-12.761,4.641c-2.241,4.81-0.164,10.52,4.641,12.761l52.212,24.35
	c1.285,0.6,2.672,0.9,4.06,0.9c1.111,0,2.222-0.197,3.282-0.581c2.396-0.872,4.346-2.654,5.419-4.96l24.345-52.207
	C499.394,154.616,497.318,148.906,492.512,146.665z"/>
<g>
</g>
<g>
</g>
<g>
</g>
<g>
</g>
<g>
</g>
<g>
</g>
<g>
</g>
<g>
</g>
<g>
</g>
<g>
</g>
<g>
</g>
<g>
</g>
<g>
</g>
<g>
</g>
<g>
</g>
</svg>
