<?xml version="1.0" encoding="iso-8859-1"?>
<!-- Generator: Adobe Illustrator 19.0.0, SVG Export Plug-In . SVG Version: 6.00 Build 0)  -->
<svg version="1.1" id="Layer_1" xmlns="http://www.w3.org/2000/svg" xmlns:xlink="http://www.w3.org/1999/xlink" x="0px" y="0px"
	 viewBox="0 0 512 512" style="enable-background:new 0 0 512 512;" xml:space="preserve">
<path style="fill:#314E55;" d="M496.234,338.043l-6.086-6.086c-3.977-25.411-24.032-58.26-24.922-59.701
	c-0.374-0.605-0.81-1.166-1.317-1.673l-88.022-88.03c-14.707-14.698-34.228-14.948-48.606-0.578
	c-5.196,5.196-6.691,11.558-6.139,18.071c-1.192-1.014-2.207-1.922-2.963-2.678c-16.184-16.184-35.607-17.706-49.443-3.861
	c-4.137,4.137-6.842,8.399-8.488,12.536l-93.182-87.23c-8.435-7.305-26.176-13.026-40.385,1.183
	c-17.297,17.287-10.099,37.627-9.778,38.481c0.427,1.174,1.094,2.242,1.949,3.141l9.68,10.161
	c-6.522,1.13-12.492,4.217-17.287,9.013c-12.608,12.608-7.812,31.479-2.99,40.643c0.383,0.73,0.863,1.406,1.432,2.011
	l107.907,114.331c-15.294-4.636-32.333-6.557-40.928-3.781c-10.054,3.256-19.04,16.852-19.61,29.673
	c-0.534,11.86,5.89,21.54,17.635,26.55c9.333,3.977,18.782,10.17,29.717,17.35c13.969,9.155,31.345,20.553,55.253,31.728
	c38.401,17.973,100.06,15.837,116.849,14.894l1.842,1.833c10.49,10.49,24.263,15.73,38.045,15.73c13.8,0,27.609-5.258,38.116-15.766
	l41.729-41.729C517.259,393.251,517.25,359.058,496.234,338.043z"/>
<path style="fill:#E9E7D1;" d="M483.36,401.374l-41.729,41.729c-13.889,13.889-36.488,13.924-50.395,0.036l-4.76-4.76
	c-1.717-1.717-4.039-2.669-6.442-2.669c-0.24,0-0.48,0.009-0.73,0.027c-0.721,0.071-72.416,5.552-111.92-12.946
	c-22.733-10.624-38.801-21.167-52.984-30.465c-11.664-7.652-21.745-14.262-32.564-18.871c-5.846-2.491-6.593-5.828-6.593-8.452
	c0.009-6.424,5.063-12.83,7.047-13.675c6.548-2.091,32.084,2.296,45.635,10.383c5.516,3.292,10.259,6.913,14.44,10.107
	c7.981,6.086,14.298,10.899,21.843,10.036c3.434-0.383,6.344-2.678,7.536-5.917c1.183-3.239,0.436-6.878-1.931-9.387
	L123.951,212.003c-1.343-3.114-5.045-13.106,0.178-18.329c3.31-3.31,7.029-4.2,10.09-4.2c3.951,0,6.54,1.29,6.451,1.192
	c3.043,3.043,97.675,96.456,97.675,96.456c3.532,3.497,9.227,3.497,12.777,0.018c3.559-3.488,3.648-9.182,0.223-12.786
	l-117.694-123.62c-0.578-3.159-1.068-10.872,5.917-17.857c6.504-6.504,13.115-2.331,15.312-0.525L281.692,251.08
	c3.666,3.408,9.405,3.239,12.848-0.4c3.443-3.639,3.301-9.387-0.329-12.848l-17.118-16.327c-0.97-2.349-2.313-8.275,4.529-15.117
	c8.195-8.177,17.403-2.402,23.667,3.861c7.803,7.803,31.684,24.21,34.38,26.051c3.728,2.536,8.773,1.993,11.86-1.361
	c3.061-3.346,3.203-8.426,0.329-11.931c-8.132-9.921-15.152-24.681-11.691-28.151c9.2-9.191,17.492-4.76,22.839,0.578l87.248,87.256
	c6.077,10.099,20.446,37.004,22.199,54.425c0.214,2.091,1.139,4.048,2.625,5.534l8.275,8.275
	C497.257,364.842,497.266,387.468,483.36,401.374z"/>
<path style="fill:#314E55;" d="M77.907,191.014l-30.705,14.32c10.841-26.722,31.281-56.2,57.352-82.278
	c35.064-35.065,74.987-59.257,106.786-64.72c4.965-0.854,8.292-5.561,7.438-10.517c-0.836-4.956-5.57-8.292-10.517-7.438
	c-35.385,6.077-78.964,32.164-116.591,69.791c-27.404,27.404-49.115,58.651-60.993,87.345l-13.309-28.542
	c-2.126-4.555-7.545-6.531-12.109-4.404c-4.555,2.126-6.531,7.545-4.404,12.109l23.106,49.549c1.023,2.189,2.874,3.879,5.143,4.707
	c1.005,0.374,2.064,0.552,3.114,0.552c1.317,0,2.634-0.285,3.853-0.854l49.541-23.106c4.555-2.126,6.531-7.545,4.404-12.109
	C87.89,190.863,82.471,188.905,77.907,191.014z"/>
<g>
</g>
<g>
</g>
<g>
</g>
<g>
</g>
<g>
</g>
<g>
</g>
<g>
</g>
<g>
</g>
<g>
</g>
<g>
</g>
<g>
</g>
<g>
</g>
<g>
</g>
<g>
</g>
<g>
</g>
</svg>
