<?xml version="1.0" encoding="iso-8859-1"?>
<!-- Generator: Adobe Illustrator 19.0.0, SVG Export Plug-In . SVG Version: 6.00 Build 0)  -->
<svg version="1.1" id="Layer_1" xmlns="http://www.w3.org/2000/svg" xmlns:xlink="http://www.w3.org/1999/xlink" x="0px" y="0px"
	 viewBox="0 0 512 512" style="enable-background:new 0 0 512 512;" xml:space="preserve">
<path style="fill:#314E55;" d="M404.781,199.848c-7.371,0-12.955,3.455-17.179,8.473c-0.129-1.571-0.205-2.928-0.205-4.009
	c0-22.973-12.692-37.821-32.339-37.821c-5.875,0-10.813,1.107-14.924,2.884l-4.219-128.036c-0.808-11.179-9.33-27.804-29.496-27.804
	c-24.536,0-33.862,19.527-34.245,20.357c-0.527,1.134-0.813,2.366-0.844,3.616l-0.348,14.053
	c-4.947-3.473-11.197-5.848-18.666-5.848c-17.888,0-27.875,16.795-30.955,26.714c-0.245,0.795-0.384,1.616-0.406,2.446
	l-4.558,157.714c-7.571-14.152-18.286-27.616-26.37-31.741c-9.469-4.848-25.469-1.554-34.969,7.143
	c-8.795,8.036-11.098,19.464-6.321,31.348c3.804,9.446,6.112,20.554,8.781,33.411c3.411,16.402,7.652,36.822,16.683,61.714
	c14.491,40,59.741,82.241,72.357,93.482v30.071c0,29.768,24.254,53.982,54.071,53.982h59.219c29.817,0,54.076-24.241,54.076-54.036
	v-36.116c15.205-20.857,24.29-58.393,24.683-60.045c0.165-0.696,0.25-1.411,0.25-2.125v-124.92
	C438.857,213.875,425.165,199.848,404.781,199.848z"/>
<path style="fill:#E9E7D1;" d="M420.571,358.58c-2.848,11.473-11.75,40.768-22.871,54.375c-1.335,1.634-2.062,3.679-2.062,5.786
	v39.223c0,19.714-16.053,35.75-35.79,35.75h-59.219c-19.732,0-35.786-16.009-35.786-35.696v-34.223c0-2.679-1.174-5.223-3.214-6.955
	c-0.549-0.473-55.348-47.518-70.241-88.607c-8.58-23.661-12.504-42.545-15.964-59.205c-2.853-13.714-5.312-25.554-9.723-36.509
	c-2.379-5.92-0.545-8.813,1.321-10.679c3.616-3.616,9.496-4.964,12.763-4.964c0.844,0,1.518,0.089,1.929,0.259
	c6.165,3.152,21.147,24.402,25.027,39.768c1.58,6.241,2.375,12.17,3.076,17.402c1.344,9.991,2.402,17.875,8.384,22.634
	c2.705,2.143,6.397,2.58,9.545,1.134c3.138-1.464,5.183-4.571,5.281-8.027l6.165-213.17C240.446,73.715,244.915,64,252.317,64
	c10.603-0.009,13.88,9.839,13.875,9.598c0,4.33,0.862,137.759,0.862,137.759c0.031,4.991,4.067,9.036,9.058,9.08
	c0.031,0,0.058,0,0.085,0c4.955,0,9.018-3.955,9.138-8.92l4.219-171.232c1.821-2.652,6.951-8.464,16.866-8.464
	c9.232,0,10.951,7.643,11.237,10.482l5.737,174.241c0.165,5.027,4.362,8.911,9.397,8.839c5.031-0.143,9-4.33,8.88-9.357
	l-0.563-23.732c0.982-2.366,4.241-7.518,13.951-7.518c11.616,0,14.053,10.625,14.053,19.536c0,11.072,5.299,39.661,5.902,42.884
	c0.835,4.473,4.839,7.83,9.384,7.446c4.545-0.196,8.25-3.705,8.701-8.232c1.268-12.804,6.763-28.277,11.683-28.277
	c13.049,0,15.79,9.045,15.79,16.625L420.571,358.58L420.571,358.58z"/>
<path style="fill:#314E55;" d="M201.143,64c0-35.286-28.71-64-64-64s-64,28.714-64,64s28.71,64,64,64S201.143,99.286,201.143,64z"/>
<path style="fill:#EAEAEA;" d="M137.143,109.714c-25.205,0-45.714-20.509-45.714-45.714s20.509-45.714,45.714-45.714
	S182.857,38.795,182.857,64S162.348,109.714,137.143,109.714z"/>
<path style="fill:#314E55;" d="M137.143,27.429c-5.049,0-9.143,4.089-9.143,9.143v23.643l-15.607,15.607
	c-3.571,3.571-3.571,9.357,0,12.928c1.786,1.786,4.125,2.679,6.464,2.679c2.339,0,4.679-0.893,6.464-2.679l18.286-18.286
	c1.714-1.714,2.679-4.036,2.679-6.464V36.571C146.286,31.518,142.192,27.429,137.143,27.429z"/>
<g>
</g>
<g>
</g>
<g>
</g>
<g>
</g>
<g>
</g>
<g>
</g>
<g>
</g>
<g>
</g>
<g>
</g>
<g>
</g>
<g>
</g>
<g>
</g>
<g>
</g>
<g>
</g>
<g>
</g>
</svg>
