<?xml version="1.0" encoding="iso-8859-1"?>
<!-- Generator: Adobe Illustrator 19.0.0, SVG Export Plug-In . SVG Version: 6.00 Build 0)  -->
<svg version="1.1" id="Layer_1" xmlns="http://www.w3.org/2000/svg" xmlns:xlink="http://www.w3.org/1999/xlink" x="0px" y="0px"
	 viewBox="0 0 512 512" style="enable-background:new 0 0 512 512;" xml:space="preserve">
<path style="fill:#314E55;" d="M404.781,199.848c-7.371,0-12.955,3.455-17.179,8.473c-0.129-1.571-0.205-2.928-0.205-4.009
	c0-22.973-12.692-37.821-32.339-37.821c-8.683,0-15.326,2.42-20.268,5.839c-2.969-10.259-11.683-21.652-28.371-21.652
	c-9.201,0-16.263,2.75-21.518,6.223c-0.214-26.795-0.424-53.848-0.424-55.884c0-9.464-11.353-27.875-32.161-27.875
	c-17.888,0-27.875,16.795-30.955,26.714c-0.241,0.786-0.379,1.598-0.406,2.411l-4.335,130.741
	c-7.58-14.304-18.429-27.991-26.594-32.161c-9.464-4.848-25.469-1.554-34.969,7.143c-8.795,8.036-11.098,19.464-6.321,31.348
	c3.804,9.446,6.112,20.554,8.781,33.411c3.411,16.402,7.652,36.821,16.683,61.714c14.491,40,59.741,82.241,72.357,93.482v30.071
	c0,29.768,24.255,53.982,54.072,53.982h59.219c29.817,0,54.076-24.241,54.076-54.036v-36.116
	c15.205-20.857,24.29-58.393,24.683-60.045c0.165-0.696,0.25-1.411,0.25-2.125v-124.92
	C438.857,213.875,425.165,199.848,404.781,199.848z"/>
<path style="fill:#E9E7D1;" d="M420.571,358.58c-2.848,11.473-11.75,40.768-22.871,54.375c-1.335,1.634-2.062,3.679-2.062,5.786
	v39.223c0,19.714-16.053,35.75-35.79,35.75h-59.219c-19.732,0-35.786-16.009-35.786-35.696v-34.223c0-2.679-1.174-5.223-3.214-6.955
	c-0.549-0.473-55.348-47.518-70.241-88.607c-8.58-23.661-12.504-42.545-15.964-59.205c-2.853-13.714-5.312-25.554-9.723-36.509
	c-2.379-5.92-0.545-8.813,1.321-10.679c3.616-3.616,9.496-4.964,12.763-4.964c0.844,0,1.518,0.089,1.929,0.259
	c6.165,3.152,21.147,24.402,25.027,39.768c1.58,6.241,2.375,12.17,3.076,17.402c1.344,9.991,2.402,17.875,8.384,22.634
	c2.705,2.143,6.388,2.589,9.527,1.134c3.134-1.446,5.183-4.536,5.299-7.991l6.156-185.759c1.245-3.143,5.718-12.893,13.133-12.893
	c10.603,0,13.911,9.911,13.875,9.598c0,4.286,0.862,110.339,0.862,110.339c0.04,4.83,3.826,8.795,8.647,9.053
	c4.857,0.527,9.009-3.268,9.576-8.062l4.062-34.607c1.607-2.464,6.746-8.786,17.08-8.786c9.232,0,10.951,7.643,11.339,11.571
	l5.737,37.098c0.737,4.759,5.112,8.179,9.844,7.714c4.804-0.429,8.446-4.509,8.33-9.321l-0.563-23.732
	c0.982-2.366,4.241-7.518,13.951-7.518c11.616,0,14.054,10.625,14.054,19.536c0,11.072,5.299,39.661,5.902,42.884
	c0.835,4.473,4.813,7.83,9.384,7.446c4.545-0.196,8.25-3.705,8.701-8.232c1.268-12.804,6.763-28.277,11.683-28.277
	c13.049,0,15.79,9.045,15.79,16.625L420.571,358.58L420.571,358.58z"/>
<path style="fill:#314E55;" d="M201.143,64c0-35.286-28.71-64-64-64s-64,28.714-64,64s28.71,64,64,64S201.143,99.286,201.143,64z"/>
<path style="fill:#EAEAEA;" d="M137.143,109.714c-25.205,0-45.714-20.509-45.714-45.714s20.509-45.714,45.714-45.714
	S182.857,38.795,182.857,64S162.348,109.714,137.143,109.714z"/>
<path style="fill:#314E55;" d="M137.143,27.429c-5.049,0-9.143,4.089-9.143,9.143v23.643l-15.607,15.607
	c-3.571,3.571-3.571,9.357,0,12.928c1.786,1.786,4.125,2.679,6.464,2.679c2.339,0,4.679-0.893,6.464-2.679l18.286-18.286
	c1.714-1.714,2.679-4.036,2.679-6.464V36.571C146.286,31.518,142.192,27.429,137.143,27.429z"/>
<g>
</g>
<g>
</g>
<g>
</g>
<g>
</g>
<g>
</g>
<g>
</g>
<g>
</g>
<g>
</g>
<g>
</g>
<g>
</g>
<g>
</g>
<g>
</g>
<g>
</g>
<g>
</g>
<g>
</g>
</svg>
