<?xml version="1.0" encoding="iso-8859-1"?>
<!-- Generator: Adobe Illustrator 19.0.0, SVG Export Plug-In . SVG Version: 6.00 Build 0)  -->
<svg version="1.1" id="Layer_1" xmlns="http://www.w3.org/2000/svg" xmlns:xlink="http://www.w3.org/1999/xlink" x="0px" y="0px"
	 viewBox="0 0 512 512" style="enable-background:new 0 0 512 512;" xml:space="preserve">
<path style="fill:#314E55;" d="M398.222,180.148c-57.028,0-119.094,19.719-142.222,50.24c-23.128-30.522-85.194-50.24-142.222-50.24
	C57.148,180.148,0,203.602,0,256s57.148,75.852,113.778,75.852c57.028,0,119.094-19.719,142.222-50.24
	c23.128,30.522,85.194,50.24,142.222,50.24C454.852,331.852,512,308.398,512,256S454.852,180.148,398.222,180.148z M113.778,312.889
	c-57.602,0-94.815-22.333-94.815-56.889s37.213-56.889,94.815-56.889c65.75,0,132.741,28.713,132.741,56.889
	S179.528,312.889,113.778,312.889z M398.222,312.889c-65.75,0-132.741-28.713-132.741-56.889s66.991-56.889,132.741-56.889
	c57.602,0,94.815,22.333,94.815,56.889S455.824,312.889,398.222,312.889z"/>
<g>
</g>
<g>
</g>
<g>
</g>
<g>
</g>
<g>
</g>
<g>
</g>
<g>
</g>
<g>
</g>
<g>
</g>
<g>
</g>
<g>
</g>
<g>
</g>
<g>
</g>
<g>
</g>
<g>
</g>
</svg>
