<?xml version="1.0" encoding="iso-8859-1"?>
<!-- Generator: Adobe Illustrator 19.0.0, SVG Export Plug-In . SVG Version: 6.00 Build 0)  -->
<svg version="1.1" id="Layer_1" xmlns="http://www.w3.org/2000/svg" xmlns:xlink="http://www.w3.org/1999/xlink" x="0px" y="0px"
	 viewBox="0 0 512 512" style="enable-background:new 0 0 512 512;" xml:space="preserve">
<g>
	<polygon style="fill:#314E55;" points="365.714,219.429 365.714,246.857 137.143,246.857 137.143,219.429 118.857,219.429 
		118.857,246.857 118.857,265.143 118.857,292.571 137.143,292.571 137.143,265.143 365.714,265.143 365.714,292.571 384,292.571 
		384,265.143 384,246.857 384,219.429 	"/>
	<path style="fill:#314E55;" d="M256,0C160.214,0,82.286,114.839,82.286,256S160.214,512,256,512s173.714-114.839,173.714-256
		S351.786,0,256,0z M256,493.714c-85.705,0-155.429-106.634-155.429-237.714S170.295,18.286,256,18.286S411.429,124.92,411.429,256
		S341.705,493.714,256,493.714z"/>
	<polygon style="fill:#314E55;" points="365.714,219.429 365.714,246.857 137.143,246.857 137.143,219.429 118.857,219.429 
		118.857,246.857 118.857,265.143 118.857,292.571 137.143,292.571 137.143,265.143 365.714,265.143 365.714,292.571 384,292.571 
		384,265.143 384,246.857 384,219.429 	"/>
</g>
<g>
</g>
<g>
</g>
<g>
</g>
<g>
</g>
<g>
</g>
<g>
</g>
<g>
</g>
<g>
</g>
<g>
</g>
<g>
</g>
<g>
</g>
<g>
</g>
<g>
</g>
<g>
</g>
<g>
</g>
</svg>
