<?xml version="1.0" encoding="iso-8859-1"?>
<!-- Generator: Adobe Illustrator 19.0.0, SVG Export Plug-In . SVG Version: 6.00 Build 0)  -->
<svg version="1.1" id="Layer_1" xmlns="http://www.w3.org/2000/svg" xmlns:xlink="http://www.w3.org/1999/xlink" x="0px" y="0px"
	 viewBox="0 0 512 512" style="enable-background:new 0 0 512 512;" xml:space="preserve">
<path style="fill:#314E55;" d="M512,245.76H184.32v-102.4c0-3.805-2.105-7.29-5.475-9.065c-3.355-1.765-7.425-1.53-10.565,0.625
	L4.44,247.56C1.66,249.47,0,252.63,0,256c0,3.37,1.66,6.53,4.44,8.44l163.84,112.64c1.74,1.195,3.765,1.8,5.8,1.8
	c1.635,0,3.27-0.39,4.765-1.175c3.37-1.775,5.475-5.26,5.475-9.065v-102.4H512V245.76z"/>
<g>
	<polygon style="fill:#73C9C9;" points="163.84,245.76 43.209,245.76 163.84,162.825 	"/>
	<polygon style="fill:#73C9C9;" points="163.84,349.175 43.209,266.24 163.84,266.24 	"/>
</g>
<g>
</g>
<g>
</g>
<g>
</g>
<g>
</g>
<g>
</g>
<g>
</g>
<g>
</g>
<g>
</g>
<g>
</g>
<g>
</g>
<g>
</g>
<g>
</g>
<g>
</g>
<g>
</g>
<g>
</g>
</svg>
