<?xml version="1.0" encoding="iso-8859-1"?>
<!-- Generator: Adobe Illustrator 19.0.0, SVG Export Plug-In . SVG Version: 6.00 Build 0)  -->
<svg version="1.1" id="Layer_1" xmlns="http://www.w3.org/2000/svg" xmlns:xlink="http://www.w3.org/1999/xlink" x="0px" y="0px"
	 viewBox="0 0 512 512" style="enable-background:new 0 0 512 512;" xml:space="preserve">
<path style="fill:#314E55;" d="M306.271,3.418c-4.286-1.429-8.99,0.077-11.674,3.714L116.965,247.459
	c-2.73,3.689-2.73,8.73,0,12.418l177.633,240.327c2.01,2.719,5.153,4.24,8.403,4.24c1.092,0,2.194-0.168,3.271-0.526
	c4.286-1.413,7.178-5.413,7.178-9.923V13.342C313.45,8.832,310.557,4.832,306.271,3.418z"/>
<polygon style="fill:#73C9C9;" points="292.552,462.281 138.363,253.668 292.552,45.056 "/>
<path style="fill:#314E55;" d="M386.633,0h-41.796c-5.77,0-10.449,4.679-10.449,10.449v491.102c0,5.77,4.679,10.449,10.449,10.449
	h41.796c5.77,0,10.449-4.679,10.449-10.449V10.449C397.082,4.679,392.404,0,386.633,0z"/>
<rect x="355.297" y="20.898" style="fill:#D8D8D8;" width="20.898" height="470.204"/>
<g>
</g>
<g>
</g>
<g>
</g>
<g>
</g>
<g>
</g>
<g>
</g>
<g>
</g>
<g>
</g>
<g>
</g>
<g>
</g>
<g>
</g>
<g>
</g>
<g>
</g>
<g>
</g>
<g>
</g>
</svg>
