<?xml version="1.0" encoding="iso-8859-1"?>
<!-- Generator: Adobe Illustrator 19.0.0, SVG Export Plug-In . SVG Version: 6.00 Build 0)  -->
<svg version="1.1" id="Layer_1" xmlns="http://www.w3.org/2000/svg" xmlns:xlink="http://www.w3.org/1999/xlink" x="0px" y="0px"
	 viewBox="0 0 512 512" style="enable-background:new 0 0 512 512;" xml:space="preserve">
<path style="fill:#314E55;" d="M512,148.722c0-5.569-4.515-10.084-10.084-10.084c-5.569,0-10.084,4.515-10.084,10.084v110.924
	H129.147V175.04c0-3.944-2.299-7.528-5.889-9.168c-3.57-1.644-7.789-1.044-10.788,1.536L3.491,261.527
	C1.275,263.443,0,266.229,0,269.159s1.275,5.717,3.491,7.632L112.47,370.91c1.871,1.615,4.22,2.452,6.593,2.452
	c1.423,0,2.856-0.3,4.195-0.916c3.589-1.64,5.889-5.224,5.889-9.168v-83.464H512L512,148.722L512,148.722z"/>
<path style="fill:#5ECB66;" d="M25.51,269.159l83.469-72.085v70.975c-0.1,0.567-0.34,1.086-0.34,1.681
	c0,0.596,0.24,1.114,0.34,1.682v69.832L25.51,269.159z"/>
<g>
</g>
<g>
</g>
<g>
</g>
<g>
</g>
<g>
</g>
<g>
</g>
<g>
</g>
<g>
</g>
<g>
</g>
<g>
</g>
<g>
</g>
<g>
</g>
<g>
</g>
<g>
</g>
<g>
</g>
</svg>
