<?xml version="1.0" encoding="iso-8859-1"?>
<!-- Generator: Adobe Illustrator 19.0.0, SVG Export Plug-In . SVG Version: 6.00 Build 0)  -->
<svg version="1.1" id="Layer_1" xmlns="http://www.w3.org/2000/svg" xmlns:xlink="http://www.w3.org/1999/xlink" x="0px" y="0px"
	 viewBox="0 0 512 512" style="enable-background:new 0 0 512 512;" xml:space="preserve">
<path style="fill:#314E55;" d="M512,209.298c0-64.999-50.418-118.33-114.186-123.219v-0.482H302.66v19.031h85.639
	c57.715,0,104.67,46.955,104.67,104.67s-46.955,104.67-104.67,104.67H121.866v-74.707c0-3.722-2.17-7.104-5.557-8.651
	c-3.368-1.552-7.36-0.994-10.18,1.45L3.294,320.873C1.203,322.68,0,325.31,0,328.075c0,2.764,1.203,5.394,3.294,7.202
	l102.835,88.813c1.766,1.524,3.982,2.314,6.221,2.314c1.343,0,2.695-0.283,3.959-0.864c3.387-1.547,5.557-4.93,5.557-8.651V333
	h275.949v-0.482C461.582,327.629,512,274.298,512,209.298z"/>
<polygon style="fill:#73C9C9;" points="102.835,396.095 24.072,328.075 102.835,260.054 "/>
<g>
</g>
<g>
</g>
<g>
</g>
<g>
</g>
<g>
</g>
<g>
</g>
<g>
</g>
<g>
</g>
<g>
</g>
<g>
</g>
<g>
</g>
<g>
</g>
<g>
</g>
<g>
</g>
<g>
</g>
</svg>
