<?xml version="1.0" encoding="iso-8859-1"?>
<!-- Generator: Adobe Illustrator 19.0.0, SVG Export Plug-In . SVG Version: 6.00 Build 0)  -->
<svg version="1.1" id="Layer_1" xmlns="http://www.w3.org/2000/svg" xmlns:xlink="http://www.w3.org/1999/xlink" x="0px" y="0px"
	 viewBox="0 0 512 512" style="enable-background:new 0 0 512 512;" xml:space="preserve">
<path style="fill:#314E55;" d="M501.76,0H276.48H256v20.48v71.68H102.4c-5.655,0-10.24,4.58-10.24,10.24v307.2
	c0,5.66,4.585,10.24,10.24,10.24h307.2c5.655,0,10.24-4.58,10.24-10.24V276.48V256h-20.48H256v20.48h143.36v122.88H112.64V112.64
	H409.6V92.16H276.48V20.48h215.04v471.04H20.48V20.48h112.64V0H10.24C4.585,0,0,4.58,0,10.24v491.52C0,507.42,4.585,512,10.24,512
	h491.52c5.655,0,10.24-4.58,10.24-10.24V10.24C512,4.58,507.415,0,501.76,0z"/>
<g>
</g>
<g>
</g>
<g>
</g>
<g>
</g>
<g>
</g>
<g>
</g>
<g>
</g>
<g>
</g>
<g>
</g>
<g>
</g>
<g>
</g>
<g>
</g>
<g>
</g>
<g>
</g>
<g>
</g>
</svg>
