<?xml version="1.0" encoding="iso-8859-1"?>
<!-- Generator: Adobe Illustrator 19.0.0, SVG Export Plug-In . SVG Version: 6.00 Build 0)  -->
<svg version="1.1" id="Layer_1" xmlns="http://www.w3.org/2000/svg" xmlns:xlink="http://www.w3.org/1999/xlink" x="0px" y="0px"
	 viewBox="0 0 512 512" style="enable-background:new 0 0 512 512;" xml:space="preserve">
<g>
	<path style="fill:#314E55;" d="M20.48,266.24h61.44v-20.48H20.48V20.48H256V0H10.24C4.585,0,0,4.58,0,10.24v235.52v20.48v235.52
		C0,507.42,4.585,512,10.24,512h122.88v-20.48H20.48V266.24z"/>
	<path style="fill:#314E55;" d="M501.76,0H378.88v20.48h112.64v225.28h-61.44v20.48h61.44v225.28H256V512h245.76
		c5.655,0,10.24-4.58,10.24-10.24V266.24v-20.48V10.24C512,4.58,507.415,0,501.76,0z"/>
	<polygon style="fill:#314E55;" points="430.25,389.12 430.25,368.64 266.24,368.64 266.24,143.36 430.25,143.36 430.25,122.88 
		266.24,122.88 245.76,122.88 81.92,122.88 81.92,143.36 245.76,143.36 245.76,368.64 81.92,368.64 81.92,389.12 245.76,389.12 
		266.24,389.12 	"/>
</g>
<g>
</g>
<g>
</g>
<g>
</g>
<g>
</g>
<g>
</g>
<g>
</g>
<g>
</g>
<g>
</g>
<g>
</g>
<g>
</g>
<g>
</g>
<g>
</g>
<g>
</g>
<g>
</g>
<g>
</g>
</svg>
