<?xml version="1.0" encoding="iso-8859-1"?>
<!-- Generator: Adobe Illustrator 19.0.0, SVG Export Plug-In . SVG Version: 6.00 Build 0)  -->
<svg version="1.1" id="Layer_1" xmlns="http://www.w3.org/2000/svg" xmlns:xlink="http://www.w3.org/1999/xlink" x="0px" y="0px"
	 viewBox="0 0 512 512" style="enable-background:new 0 0 512 512;" xml:space="preserve">
<path style="fill:#314E55;" d="M439.095,298.929c11.074-0.796,27.553-9.243,27.553-29.216c0-24.316-19.353-33.55-20.176-33.93
	c-1.123-0.522-2.344-0.805-3.582-0.84l-13.922-0.336c3.441-4.9,5.794-11.092,5.794-18.495c0-17.717-16.638-27.615-26.465-30.666
	c-0.787-0.248-1.601-0.38-2.424-0.407l-156.233-4.511c14.02-7.501,27.358-18.115,31.436-26.12
	c4.776-9.367,1.539-25.235-7.076-34.656c-7.969-8.713-19.3-10.968-31.047-6.254c-9.358,3.768-20.362,6.05-33.099,8.704
	c-16.249,3.37-36.478,7.58-61.147,16.523c-39.627,14.365-81.473,59.183-92.601,71.682h-2.583C24.006,210.406,0,234.438,0,263.973
	v58.67c0,29.534,24.033,53.567,53.576,53.567h8.562c20.654,15.072,57.848,24.068,59.484,24.457c0.69,0.168,1.398,0.248,2.105,0.248
	h123.762c20.68,0,34.576-13.569,34.576-33.762c0-7.306-3.423-12.834-8.394-17.018c1.557-0.133,2.901-0.203,3.971-0.203
	c22.759,0,37.468-12.578,37.468-32.037c0-5.82-1.088-10.712-2.839-14.78L439.095,298.929z"/>
<path style="fill:#E9E7D1;" d="M266.047,304.634l23.511-0.557c2.326,0.964,7.439,4.193,7.439,13.816
	c0,9.234-6.51,13.922-19.353,13.922c-10.959,0-39.291,5.254-42.484,5.855c-4.431,0.823-7.572,4.785-7.377,9.288
	c0.195,4.502,3.671,8.182,8.155,8.624c12.693,1.256,28.013,6.696,28.013,11.57c0,12.932-8.951,15.647-16.461,15.647H124.815
	c-11.366-2.822-40.387-11.64-53.868-22.661c-1.619-1.318-3.644-2.043-5.732-2.043h-11.64c-19.557,0-35.461-15.904-35.461-35.452
	v-58.67c0-19.548,15.886-35.452,35.407-35.452h6.687c2.654,0,5.175-1.168,6.89-3.184c0.469-0.548,47.074-54.831,87.78-69.577
	c23.449-8.509,42.156-12.401,58.661-15.824c13.586-2.822,25.315-5.263,36.168-9.632c5.882-2.353,8.73-0.531,10.57,1.309
	c4.511,4.511,5.458,12.578,4.661,14.568c-3.114,6.103-24.165,20.937-39.388,24.775c-6.192,1.566-12.065,2.353-17.239,3.052
	c-9.898,1.327-17.717,2.379-22.431,8.306c-2.132,2.68-2.565,6.342-1.123,9.456c1.451,3.105,4.529,5.13,7.952,5.236l211.162,6.103
	c3.175,1.265,12.772,5.696,12.772,13.002c0,10.402-9.889,13.719-9.509,13.745c-4.29,0-136.464,0.858-136.464,0.858
	c-4.944,0.035-8.951,4.024-8.996,8.978c-0.044,4.944,3.892,9.013,8.836,9.137l169.625,4.166c2.627,1.804,8.394,6.89,8.394,16.717
	c0,9.146-7.58,10.853-10.393,11.136l-172.606,5.679c-4.98,0.159-8.898,4.316-8.757,9.305
	C256.918,300.813,261.173,304.687,266.047,304.634z"/>
<path style="fill:#314E55;" d="M511.449,368.833c-1.707-4.697-6.926-7.129-11.605-5.413l-28.973,10.545
	c17.159-29.65,27.292-74.121,27.292-121.968c0-43.395-8.465-85.197-23.219-114.687c-2.247-4.476-7.678-6.271-12.153-4.051
	c-4.476,2.238-6.289,7.678-4.051,12.153c13.542,27.066,21.308,65.915,21.308,106.585c0,46.65-9.988,89.308-26.743,115.973
	l-11.513-31.616c-1.707-4.706-6.917-7.12-11.605-5.413c-4.706,1.707-7.129,6.908-5.413,11.605l18.593,51.064
	c1.336,3.68,4.812,5.962,8.509,5.962c1.026,0,2.079-0.177,3.096-0.548l51.064-18.584
	C510.741,378.731,513.165,373.53,511.449,368.833z"/>
<g>
</g>
<g>
</g>
<g>
</g>
<g>
</g>
<g>
</g>
<g>
</g>
<g>
</g>
<g>
</g>
<g>
</g>
<g>
</g>
<g>
</g>
<g>
</g>
<g>
</g>
<g>
</g>
<g>
</g>
</svg>
