<?xml version="1.0" encoding="iso-8859-1"?>
<!-- Generator: Adobe Illustrator 19.0.0, SVG Export Plug-In . SVG Version: 6.00 Build 0)  -->
<svg version="1.1" id="Layer_1" xmlns="http://www.w3.org/2000/svg" xmlns:xlink="http://www.w3.org/1999/xlink" x="0px" y="0px"
	 viewBox="0 0 512 512" style="enable-background:new 0 0 512 512;" xml:space="preserve">
<path style="fill:#314E55;" d="M461.231,247.657c9.749,0,28.727-11.695,28.727-33.144c0-18.44-17.308-28.736-27.531-31.911
	c-0.823-0.258-1.675-0.396-2.535-0.423l-171.814-4.757c14.534-7.794,28.34-18.799,32.582-27.107
	c4.969-9.735,1.601-26.233-7.356-36.033c-8.29-9.064-20.05-11.437-32.311-6.524c-9.74,3.92-21.186,6.303-34.441,9.054
	c-16.903,3.515-37.938,7.895-63.591,17.188c-41.218,14.943-84.754,61.567-96.334,74.569h-30.99c-30.677,0-55.636,25-55.636,55.733
	v61.024c0,30.724,24.977,55.724,55.683,55.724h37.224c21.49,15.679,60.177,25.037,61.884,25.442
	c0.713,0.175,1.449,0.258,2.185,0.258h128.742c21.518,0,35.973-14.115,35.973-35.122c0-7.591-3.561-13.342-8.728-17.694
	c1.615-0.138,3.018-0.212,4.127-0.212c23.675,0,38.973-13.084,38.973-33.328c0-8.962-2.489-15.799-6.009-20.896
	c10.577-3.055,22.314-12.036,22.314-29.233c0-9.413-2.793-16.655-6.34-22.056C408.07,247.951,458.77,247.657,461.231,247.657z"/>
<path style="fill:#E9E7D1;" d="M308.8,248.476l35.669,4.187c2.714,1.739,9.054,6.938,9.054,17.602
	c0,9.514-7.886,11.29-11.939,11.686l-38.223,5.916c-4.909,0.764-8.387,5.199-7.945,10.149c0.437,4.941,4.5,8.705,9.611,8.585
	l24.453-0.589c2.429,1.012,7.739,4.362,7.739,14.382c0,11.971-10.945,14.483-20.128,14.483c-11.41,0-40.868,5.456-44.19,6.073
	c-4.61,0.865-7.881,4.987-7.679,9.671s3.819,8.511,8.484,8.971c13.117,1.307,29.141,7.113,29.141,12.036
	c0,13.452-9.316,16.277-17.128,16.277h-127.61c-11.828-2.935-42.014-12.109-56.037-23.574c-1.684-1.371-3.791-2.125-5.962-2.125
	H55.683c-20.312,0-36.838-16.544-36.838-36.879v-61.024c0-20.344,16.503-36.888,36.792-36.888h35.264
	c2.76,0,5.383-1.215,7.172-3.313c0.483-0.571,48.961-57.04,91.31-72.379c24.384-8.843,43.84-12.891,61.005-16.461
	c14.138-2.935,26.344-5.475,37.634-10.02c6.096-2.429,9.077-0.561,11,1.362c4.693,4.693,5.682,13.084,4.854,15.146
	c-3.244,6.358-25.143,21.798-40.974,25.792c-6.441,1.629-12.546,2.448-17.938,3.175c-10.292,1.38-18.426,2.466-23.33,8.64
	c-2.222,2.788-2.673,6.597-1.169,9.836c1.509,3.239,4.716,5.346,8.281,5.447l229.088,6.34c3.299,1.316,13.278,5.935,13.278,13.535
	c0,10.812-10.292,14.271-9.892,14.299c-4.477,0-151.377,0.883-151.377,0.883c-4.982,0.028-9.077,3.929-9.353,8.898
	C300.215,243.572,303.854,247.896,308.8,248.476z"/>
<g>
	<path style="fill:#314E55;" d="M495.916,324.885l-33.314,33.318l-33.314-33.318c-3.681-3.681-9.643-3.681-13.324,0
		s-3.681,9.643,0,13.324l39.976,39.98c1.767,1.767,4.164,2.76,6.662,2.76s4.895-0.994,6.662-2.76l39.976-39.98
		c3.681-3.681,3.681-9.643,0-13.324C505.559,321.204,499.596,321.204,495.916,324.885z"/>
	<path style="fill:#314E55;" d="M429.288,268.351c-3.681-3.681-9.643-3.681-13.324,0c-3.68,3.681-3.681,9.643,0,13.324l39.976,39.98
		c1.767,1.767,4.164,2.76,6.662,2.76s4.895-0.994,6.662-2.76l39.976-39.98c3.681-3.681,3.681-9.643,0-13.324
		c-3.681-3.68-9.643-3.681-13.324,0l-33.314,33.318L429.288,268.351z"/>
</g>
<g>
</g>
<g>
</g>
<g>
</g>
<g>
</g>
<g>
</g>
<g>
</g>
<g>
</g>
<g>
</g>
<g>
</g>
<g>
</g>
<g>
</g>
<g>
</g>
<g>
</g>
<g>
</g>
<g>
</g>
</svg>
