<?xml version="1.0" encoding="iso-8859-1"?>
<!-- Generator: Adobe Illustrator 19.0.0, SVG Export Plug-In . SVG Version: 6.00 Build 0)  -->
<svg version="1.1" id="Layer_1" xmlns="http://www.w3.org/2000/svg" xmlns:xlink="http://www.w3.org/1999/xlink" x="0px" y="0px"
	 viewBox="0 0 512 512" style="enable-background:new 0 0 512 512;" xml:space="preserve">
<path style="fill:#314E55;" d="M462.066,276.556c9.767,0,28.779-11.716,28.779-33.203c0-18.473-17.339-28.779-27.585-31.959
	c-0.821-0.258-1.678-0.396-2.535-0.424L288.6,206.204c14.56-7.817,28.396-18.833,32.646-27.156
	c4.973-9.762,1.595-26.299-7.379-36.107c-8.301-9.08-20.095-11.44-32.365-6.526c-9.753,3.927-21.211,6.305-34.485,9.071
	c-16.938,3.512-38.02,7.9-63.725,17.219c-41.297,14.97-84.912,61.687-96.513,74.703H55.737C25.004,237.407,0,262.453,0,293.232
	v61.144C0,385.155,25.022,410.2,55.783,410.2h37.292c21.524,15.698,60.286,25.073,61.996,25.479
	c0.714,0.175,1.452,0.258,2.189,0.258h128.975c21.557,0,36.038-14.141,36.038-35.176c0-7.605-3.567-13.376-8.748-17.736
	c1.618-0.138,3.023-0.212,4.139-0.212c23.718,0,39.043-13.108,39.043-33.388c0-8.969-2.493-15.827-6.019-20.925
	c10.596-3.07,22.354-12.067,22.354-29.286c0-9.43-2.798-16.694-6.351-22.105C408.804,276.86,459.6,276.556,462.066,276.556z"/>
<path style="fill:#E9E7D1;" d="M309.364,277.386l35.725,4.185c2.544,1.668,9.075,6.969,9.075,17.643
	c0,9.532-7.9,11.311-11.961,11.707l-38.292,5.918c-4.918,0.756-8.398,5.208-7.96,10.158c0.438,4.969,4.987,8.481,9.624,8.61
	l24.502-0.581c2.433,1.014,7.753,4.369,7.753,14.399c0,9.624-6.785,14.509-20.165,14.509c-11.431,0-40.942,5.466-44.27,6.084
	c-4.618,0.867-7.895,4.996-7.693,9.688s3.826,8.527,8.499,8.988c13.223,1.309,29.194,6.987,29.194,12.066
	c0,13.468-9.333,16.297-17.159,16.297H158.417c-6.37-1.613-40.338-10.674-56.161-23.608c-1.687-1.373-3.798-2.129-5.973-2.129h-40.5
	c-20.349,0-36.905-16.574-36.905-36.946v-61.144c0-20.372,16.533-36.946,36.858-36.946h35.324c2.765,0,5.393-1.217,7.185-3.318
	c0.484-0.572,49.054-57.143,91.48-72.51c24.437-8.868,43.933-12.924,61.13-16.491c14.159-2.941,26.382-5.485,37.693-10.038
	c6.098-2.443,9.089-0.572,11.016,1.364c4.706,4.701,5.692,13.108,4.862,15.173c-3.249,6.37-25.188,21.828-41.048,25.829
	c-6.453,1.632-12.573,2.452-17.975,3.18c-10.31,1.383-18.455,2.48-23.363,8.647c-2.231,2.802-2.682,6.619-1.175,9.863
	s4.72,5.356,8.296,5.457l229.503,6.36c3.305,1.318,13.302,5.936,13.302,13.55c0,10.831-10.31,14.297-9.909,14.325
	c-4.485,0-151.651,0.894-151.651,0.894c-4.992,0.028-9.094,3.936-9.37,8.914C300.758,272.473,304.409,276.805,309.364,277.386z"/>
<g>
	<path style="fill:#314E55;" d="M495.887,354.855l-23.935,23.938v-73.9c0-5.217-4.226-9.439-9.439-9.439s-9.439,4.222-9.439,9.439
		v73.9l-23.935-23.938c-3.687-3.687-9.661-3.687-13.348,0c-3.687,3.687-3.687,9.661,0,13.348l40.048,40.053
		c1.77,1.77,4.171,2.766,6.674,2.766s4.904-0.996,6.674-2.766l40.048-40.053c3.687-3.687,3.687-9.661,0-13.348
		C505.547,351.168,499.574,351.167,495.887,354.855z"/>
	<path style="fill:#314E55;" d="M429.139,132.22l23.935-23.931v73.893c0,5.217,4.226,9.439,9.439,9.439s9.439-4.222,9.439-9.439
		v-73.893l23.935,23.931c1.844,1.844,4.259,2.765,6.674,2.765s4.83-0.922,6.674-2.765c3.687-3.687,3.687-9.661,0-13.348
		l-40.048-40.043c-3.687-3.687-9.661-3.687-13.348,0l-40.048,40.043c-3.687,3.687-3.687,9.661,0,13.348
		C419.478,135.907,425.452,135.907,429.139,132.22z"/>
</g>
<g>
</g>
<g>
</g>
<g>
</g>
<g>
</g>
<g>
</g>
<g>
</g>
<g>
</g>
<g>
</g>
<g>
</g>
<g>
</g>
<g>
</g>
<g>
</g>
<g>
</g>
<g>
</g>
<g>
</g>
</svg>
