<?xml version="1.0" encoding="iso-8859-1"?>
<!-- Generator: Adobe Illustrator 19.0.0, SVG Export Plug-In . SVG Version: 6.00 Build 0)  -->
<svg version="1.1" id="Layer_1" xmlns="http://www.w3.org/2000/svg" xmlns:xlink="http://www.w3.org/1999/xlink" x="0px" y="0px"
	 viewBox="0 0 512 512" style="enable-background:new 0 0 512 512;" xml:space="preserve">
<path style="fill:#314E55;" d="M443.734,433.231h-26.856v-38.01c16.385-22.452,26.163-62.885,26.587-64.663
	c0.183-0.75,0.269-1.519,0.269-2.288V193.74c0-22.49-14.75-37.596-36.702-37.596c-7.942,0-13.952,3.721-18.5,9.135
	c-0.144-1.692-0.221-3.164-0.221-4.327c0-24.74-13.673-40.721-34.827-40.721c-9.356,0-16.5,2.606-21.827,6.288
	c-3.192-11.058-12.577-23.327-30.548-23.327c-9.865,0-17.452,2.933-23.106,6.654c-0.25-36.663-0.519-77.423-0.519-79.827
	C277.484,19.827,265.263,0,242.849,0c-19.269,0-30.029,18.087-33.346,28.769c-0.26,0.856-0.414,1.731-0.442,2.625l-6.134,203.683
	c-2.856-1.798-6.067-3.798-9.625-6.029c-8.817-5.5-18.163-11.337-24.721-15.702c-14.981-9.99-26.808-17.875-44.846-17.875
	c-32.894,0-53.625,6-61.625,17.837c-2.971,4.404-5.683,11.76-1.664,21.75c6.048,15.029,21.913,22.01,38.721,29.404
	c16.558,7.288,33.683,14.827,40.135,29.875c13.885,32.414,81.164,93.144,97.337,107.452v31.442h-29.212
	c-5.442,0-9.846,4.404-9.846,9.846v59.077c0,5.442,4.404,9.846,9.846,9.846h236.308c5.442,0,9.846-4.404,9.846-9.846v-59.077
	C453.58,437.635,449.177,433.231,443.734,433.231z"/>
<path style="fill:#E9E7D1;" d="M252.936,389.894c-22.712-19.731-84.154-76.74-95.538-103.308
	c-9.51-22.192-31.183-31.731-50.298-40.144c-13.029-5.74-25.337-11.154-28.385-18.731c-0.961-2.385-0.49-3.087-0.288-3.385
	c2.981-4.414,18.433-9.164,45.308-9.164c11.558,0,19.164,4.731,33.923,14.567c6.692,4.462,16.221,10.414,25.212,16.019
	c9.664,6.038,20.615,12.875,23.24,14.952c2.904,2.317,6.875,2.798,10.269,1.231c3.375-1.567,5.586-4.913,5.702-8.635l6.625-219.721
	c1.366-3.432,6.193-13.884,14.145-13.884c11.087,0,14.779,10.356,14.933,10.346c0.01,0,0.01,0,0.01-0.01
	c0,4.644,0.923,138.51,0.923,138.51c0.038,5.202,4.115,9.481,9.308,9.759c5.192,0.663,9.711-3.51,10.317-8.683l4.375-37.269
	c1.817-2.836,7.25-9.462,18.394-9.462c9.942,0,11.798,8.24,12.211,12.481l6.183,39.942c0.798,5.125,5.346,8.865,10.606,8.298
	c5.164-0.462,9.096-4.856,8.971-10.048l-0.615-25.548c1.058-2.548,4.567-8.087,15.019-8.087c12.51,0,15.135,11.433,15.135,21.029
	c0,11.923,5.711,42.712,6.365,46.183c0.904,4.817,5.365,8.317,10.096,8.019c4.894-0.211,8.894-3.99,9.375-8.865
	c1.365-13.712,7.433-30.452,12.577-30.452c14.058,0,17.01,9.74,17.01,17.904v133.327c-1.683,6.635-11.135,42.077-24.635,58.577
	c-1.433,1.759-2.221,3.962-2.221,6.231v41.356H256.33v-35.904C256.33,394.471,255.09,391.76,252.936,389.894z"/>
<polygon style="fill:#5ECB66;" points="433.888,492.308 217.273,492.308 217.273,452.923 246.484,452.923 407.032,452.923 
	433.888,452.923 "/>
<g>
</g>
<g>
</g>
<g>
</g>
<g>
</g>
<g>
</g>
<g>
</g>
<g>
</g>
<g>
</g>
<g>
</g>
<g>
</g>
<g>
</g>
<g>
</g>
<g>
</g>
<g>
</g>
<g>
</g>
</svg>
