<?xml version="1.0" encoding="iso-8859-1"?>
<!-- Generator: Adobe Illustrator 19.0.0, SVG Export Plug-In . SVG Version: 6.00 Build 0)  -->
<svg version="1.1" id="Layer_1" xmlns="http://www.w3.org/2000/svg" xmlns:xlink="http://www.w3.org/1999/xlink" x="0px" y="0px"
	 viewBox="0 0 512 512" style="enable-background:new 0 0 512 512;" xml:space="preserve">
<path style="fill:#314E55;" d="M400.953,190.312c-7.6,0-13.351,3.561-17.703,8.732c-0.138-1.619-0.212-3.018-0.212-4.132
	c0-23.675-13.084-38.977-33.327-38.977c-8.953,0-15.789,2.494-20.887,6.018c-3.055-10.582-12.035-22.323-29.233-22.323
	c-9.422,0-16.664,2.788-22.065,6.34c-0.249-42.032-0.552-92.74-0.552-95.197c0-9.753-11.695-28.727-33.143-28.727
	c-18.43,0-28.727,17.308-31.901,27.53c-0.258,0.819-0.396,1.675-0.423,2.54l-4.757,171.808
	c-7.803-14.529-18.798-28.34-27.107-32.582c-9.735-4.978-26.233-1.61-36.033,7.352c-9.063,8.29-11.447,20.068-6.524,32.315
	c3.92,9.735,6.294,21.182,9.054,34.422c3.515,16.912,7.886,37.956,17.188,63.609c14.934,41.222,61.566,84.754,74.568,96.329v30.999
	c0,30.677,25,55.631,55.723,55.631h61.033c30.723,0,55.723-24.982,55.723-55.686v-37.22c15.679-21.485,25.037-60.177,25.442-61.879
	c0.175-0.718,0.258-1.454,0.258-2.19V226.289C436.075,204.767,421.96,190.312,400.953,190.312z"/>
<path style="fill:#E9E7D1;" d="M417.23,353.893c-2.935,11.824-12.109,42.013-23.574,56.036c-1.371,1.684-2.125,3.791-2.125,5.962
	v40.422c0,20.317-16.544,36.842-36.879,36.842H293.62c-20.335,0-36.879-16.498-36.879-36.787V421.1c0-2.76-1.215-5.383-3.312-7.168
	c-0.571-0.488-57.039-48.97-72.378-91.314c-8.852-24.393-12.891-43.854-16.461-61.014c-2.935-14.133-5.475-26.334-10.02-37.624
	c-2.448-6.1-0.552-9.082,1.371-11.005c3.726-3.726,9.781-5.116,13.149-5.116c0.874,0,1.564,0.092,1.988,0.267
	c6.349,3.248,21.789,25.147,25.791,40.983c1.629,6.441,2.448,12.551,3.175,17.943c1.38,10.287,2.466,18.412,8.631,23.316
	c2.788,2.217,6.597,2.678,9.836,1.159c3.239-1.5,5.346-4.711,5.447-8.281l6.349-229.077c1.316-3.303,5.935-13.278,13.526-13.278
	c10.618,0,14.142,9.901,14.29,9.901c0.009,0,0.009,0,0.009-0.009c0,4.481,0.893,151.381,0.893,151.381
	c0.028,4.978,3.929,9.073,8.898,9.349c5.245,0.193,9.303-3.349,9.882-8.309l4.186-35.674c1.739-2.714,6.938-9.054,17.602-9.054
	c9.514,0,11.29,7.886,11.686,11.934l5.907,38.223c0.764,4.904,5.282,8.484,10.14,7.95c4.95-0.442,8.704-4.647,8.594-9.606
	l-0.58-24.448c1.012-2.438,4.362-7.748,14.373-7.748c11.971,0,14.483,10.95,14.483,20.133c0,11.41,5.466,40.872,6.091,44.194
	c0.865,4.61,5.006,7.978,9.661,7.674c4.684-0.202,8.511-3.819,8.971-8.484c1.307-13.204,6.965-29.141,12.035-29.141
	c13.452,0,16.277,9.321,16.277,17.133L417.23,353.893L417.23,353.893z"/>
<g>
	<path style="fill:#314E55;" d="M135.218,56.064l39.971,39.971c1.84,1.84,4.251,2.76,6.662,2.76s4.822-0.92,6.662-2.76
		c3.681-3.681,3.681-9.643,0-13.323l-33.309-33.309l33.309-33.318c3.681-3.681,3.681-9.643,0-13.323s-9.643-3.681-13.323,0
		l-39.971,39.98C131.538,46.421,131.538,52.383,135.218,56.064z"/>
	<path style="fill:#314E55;" d="M131.98,82.711L98.67,49.402l33.309-33.318c3.681-3.681,3.681-9.643,0-13.323
		c-3.681-3.68-9.643-3.681-13.323,0L78.685,42.74c-3.681,3.681-3.681,9.643,0,13.323l39.971,39.971c1.84,1.84,4.251,2.76,6.662,2.76
		c2.411,0,4.822-0.92,6.662-2.76C135.66,92.354,135.66,86.391,131.98,82.711z"/>
	<path style="fill:#314E55;" d="M387.529,49.402l-33.318,33.309c-3.681,3.681-3.681,9.643,0,13.323c1.84,1.84,4.251,2.76,6.662,2.76
		c2.411,0,4.822-0.92,6.662-2.76l39.98-39.971c1.767-1.767,2.76-4.159,2.76-6.662c0-2.503-0.994-4.895-2.76-6.662l-39.98-39.98
		c-3.681-3.681-9.643-3.681-13.323,0c-3.68,3.681-3.681,9.643,0,13.323L387.529,49.402z"/>
	<path style="fill:#314E55;" d="M297.677,96.034c1.84,1.84,4.251,2.76,6.662,2.76c2.411,0,4.822-0.92,6.662-2.76l39.98-39.971
		c1.767-1.767,2.76-4.159,2.76-6.662c0-2.503-0.994-4.895-2.76-6.662l-39.98-39.98c-3.681-3.681-9.643-3.681-13.323,0
		c-3.68,3.681-3.681,9.643,0,13.323l33.318,33.318l-33.318,33.309C293.997,86.391,293.997,92.354,297.677,96.034z"/>
</g>
<g>
</g>
<g>
</g>
<g>
</g>
<g>
</g>
<g>
</g>
<g>
</g>
<g>
</g>
<g>
</g>
<g>
</g>
<g>
</g>
<g>
</g>
<g>
</g>
<g>
</g>
<g>
</g>
<g>
</g>
</svg>
