<?xml version="1.0" encoding="iso-8859-1"?>
<!-- Generator: Adobe Illustrator 19.0.0, SVG Export Plug-In . SVG Version: 6.00 Build 0)  -->
<svg version="1.1" id="Layer_1" xmlns="http://www.w3.org/2000/svg" xmlns:xlink="http://www.w3.org/1999/xlink" x="0px" y="0px"
	 viewBox="0 0 512 512" style="enable-background:new 0 0 512 512;" xml:space="preserve">
<path style="fill:#314E55;" d="M400.958,190.306c-7.596,0-13.347,3.561-17.699,8.732c-0.133-1.619-0.212-3.018-0.212-4.131
	c0-23.676-13.08-38.978-33.328-38.978c-8.953,0-15.794,2.494-20.887,6.018c-3.059-10.573-12.04-22.314-29.238-22.314
	c-9.418,0-16.659,2.788-22.061,6.331c-0.253-42.033-0.552-92.742-0.552-95.199c0-9.754-11.7-28.727-33.144-28.727
	c-18.435,0-28.732,17.308-31.906,27.531c-0.253,0.828-0.396,1.675-0.419,2.54l-4.762,171.811
	c-7.794-14.529-18.794-28.341-27.108-32.582c-9.749-4.987-26.252-1.601-36.038,7.361c-9.064,8.281-11.442,20.059-6.519,32.306
	c3.92,9.744,6.298,21.182,9.054,34.432c3.515,16.912,7.886,37.947,17.193,63.601c14.934,41.223,61.563,84.755,74.564,96.331v31
	c0,30.678,25.001,55.632,55.729,55.632h61.029c30.728,0,55.724-24.982,55.724-55.688v-37.22
	c15.67-21.486,25.033-60.178,25.442-61.88c0.17-0.718,0.258-1.454,0.258-2.19V226.284
	C436.08,204.761,421.965,190.306,400.958,190.306z"/>
<path style="fill:#E9E7D1;" d="M417.236,353.863c-1.615,6.358-10.66,40.266-23.574,56.065c-1.376,1.684-2.125,3.791-2.125,5.962
	v40.422c0,20.317-16.544,36.843-36.88,36.843h-61.029c-20.34,0-36.884-16.498-36.884-36.788v-35.27c0-2.761-1.21-5.383-3.312-7.168
	c-0.566-0.488-57.036-48.971-72.384-91.316c-8.843-24.384-12.887-43.845-16.457-61.015c-2.935-14.134-5.475-26.335-10.02-37.625
	c-2.448-6.091-0.557-9.082,1.362-11.005c3.731-3.727,9.79-5.116,13.158-5.116c0.869,0,1.564,0.092,1.988,0.267
	c6.358,3.248,21.794,25.148,25.787,40.983c1.629,6.432,2.448,12.542,3.17,17.934c1.385,10.297,2.48,18.421,8.645,23.326
	c2.793,2.208,6.602,2.678,9.841,1.159c3.234-1.509,5.342-4.711,5.438-8.281l6.349-229.081c1.316-3.303,5.93-13.278,13.531-13.278
	c10.927,0,14.281,10.076,14.299,9.892c0,4.481,0.888,151.383,0.888,151.383c0.032,4.978,3.929,9.073,8.902,9.349
	c4.877,0.193,9.293-3.349,9.878-8.309l4.187-35.665c1.656-2.54,6.947-9.054,17.603-9.054c9.514,0,11.286,7.877,11.686,11.925
	l5.912,38.232c0.759,4.904,5.203,8.337,10.145,7.95c4.951-0.442,8.705-4.647,8.585-9.606l-0.58-24.458
	c1.012-2.439,4.366-7.748,14.377-7.748c11.971,0,14.483,10.95,14.483,20.133c0,11.41,5.461,40.873,6.082,44.195
	c0.86,4.601,5.001,8.088,9.657,7.665c4.684-0.193,8.507-3.8,8.981-8.466c1.339-13.204,7.007-29.15,12.036-29.15
	c13.453,0,16.278,9.321,16.278,17.133V353.863z"/>
<g>
	<path style="fill:#314E55;" d="M135.214,56.056l39.976,39.981c1.84,1.84,4.251,2.761,6.662,2.761c2.411,0,4.822-0.92,6.662-2.761
		c3.681-3.681,3.681-9.643,0-13.324l-33.314-33.319l33.314-33.31c3.681-3.681,3.681-9.643,0-13.324s-9.643-3.681-13.324,0
		l-39.976,39.971c-1.767,1.767-2.761,4.159-2.761,6.662C132.453,51.897,133.447,54.289,135.214,56.056z"/>
	<path style="fill:#314E55;" d="M131.979,82.712L98.665,49.394l33.314-33.31c3.681-3.681,3.681-9.643,0-13.324
		s-9.643-3.681-13.324,0L78.68,42.732c-1.767,1.767-2.761,4.159-2.761,6.662c0,2.503,0.994,4.895,2.761,6.662l39.976,39.981
		c1.84,1.84,4.251,2.761,6.662,2.761s4.822-0.92,6.662-2.761C135.66,92.355,135.66,86.393,131.979,82.712z"/>
</g>
<g>
</g>
<g>
</g>
<g>
</g>
<g>
</g>
<g>
</g>
<g>
</g>
<g>
</g>
<g>
</g>
<g>
</g>
<g>
</g>
<g>
</g>
<g>
</g>
<g>
</g>
<g>
</g>
<g>
</g>
</svg>
