<?xml version="1.0" encoding="iso-8859-1"?>
<!-- Generator: Adobe Illustrator 19.0.0, SVG Export Plug-In . SVG Version: 6.00 Build 0)  -->
<svg version="1.1" id="Layer_1" xmlns="http://www.w3.org/2000/svg" xmlns:xlink="http://www.w3.org/1999/xlink" x="0px" y="0px"
	 viewBox="0 0 512 512" style="enable-background:new 0 0 512 512;" xml:space="preserve">
<path style="fill:#314E55;" d="M462.066,247.643c9.771,0,28.779-11.716,28.779-33.204c0-18.473-17.339-28.779-27.59-31.959
	c-0.82-0.258-1.668-0.396-2.535-0.424l-172.129-4.766c14.565-7.817,28.392-18.833,32.65-27.166
	c4.978-9.753,1.604-26.281-7.365-36.098c-8.305-9.071-20.105-11.467-32.374-6.536c-9.762,3.927-21.229,6.314-34.503,9.071
	c-16.934,3.521-38.006,7.909-63.706,17.219c-41.297,14.961-84.908,61.678-96.504,74.703H55.733C25,208.485,0,233.53,0,264.319
	v61.134c0,30.779,25.018,55.825,55.779,55.825h37.296c21.524,15.707,60.286,25.082,61.992,25.488
	c0.719,0.175,1.456,0.258,2.194,0.258h128.97c21.561,0,36.043-14.141,36.043-35.186c0-7.605-3.567-13.366-8.739-17.726
	c1.613-0.138,3.014-0.212,4.13-0.212c23.718,0,39.039-13.108,39.039-33.388c0-8.969-2.498-15.827-6.029-20.934
	c10.601-3.06,22.363-12.048,22.363-29.286c0-9.43-2.793-16.685-6.351-22.096C408.803,247.938,459.604,247.643,462.066,247.643z"/>
<path style="fill:#E9E7D1;" d="M309.359,248.464l35.729,4.194c2.719,1.742,9.071,6.95,9.071,17.634
	c0,9.532-7.9,11.311-11.965,11.707l-38.292,5.927c-4.913,0.765-8.398,5.208-7.955,10.168c0.433,4.876,4.526,8.6,9.402,8.6
	c0.074,0,0.147,0,0.231,0l24.492-0.59c2.433,1.014,7.753,4.379,7.753,14.408c0,11.993-10.96,14.509-20.16,14.509
	c-11.431,0-40.947,5.466-44.274,6.084c-4.609,0.867-7.891,4.996-7.688,9.688s3.826,8.527,8.499,8.988
	c13.145,1.309,29.194,7.126,29.194,12.057c0,13.477-9.338,16.307-17.164,16.307H158.394c-11.845-2.941-42.09-12.131-56.138-23.617
	c-1.687-1.373-3.798-2.129-5.973-2.129H55.779c-20.344,0-36.9-16.574-36.9-36.946v-61.134c0-20.381,16.528-36.955,36.854-36.955
	h35.333c2.765,0,5.393-1.217,7.181-3.318c0.488-0.572,49.059-57.143,91.48-72.51c24.428-8.859,43.915-12.915,61.116-16.491
	c14.159-2.941,26.391-5.485,37.702-10.038c6.075-2.452,9.098-0.562,11.025,1.364c4.692,4.71,5.688,13.108,4.858,15.173
	c-3.254,6.37-25.193,21.838-41.057,25.838c-6.444,1.632-12.564,2.452-17.966,3.18c-10.315,1.383-18.455,2.471-23.368,8.656
	c-2.231,2.793-2.682,6.609-1.171,9.854c1.503,3.245,4.72,5.356,8.296,5.457l229.503,6.36c3.309,1.318,13.301,5.936,13.301,13.551
	c0,10.831-10.315,14.297-9.909,14.325c-4.498,0-151.656,0.885-151.656,0.885c-4.987,0.028-9.089,3.936-9.366,8.914
	C300.758,243.55,304.4,247.883,309.359,248.464z"/>
<path style="fill:#314E55;" d="M509.235,325.942c-3.687-3.687-9.661-3.687-13.348,0l-23.939,23.939v-73.901
	c0-5.217-4.222-9.439-9.439-9.439c-5.217,0-9.439,4.222-9.439,9.439v73.886l-23.93-23.924c-3.687-3.687-9.661-3.687-13.348,0
	c-3.687,3.687-3.687,9.661,0,13.348l40.053,40.043c1.844,1.844,4.259,2.766,6.674,2.766s4.83-0.922,6.674-2.766l40.043-40.043
	C512.922,335.602,512.922,329.629,509.235,325.942z"/>
<g>
</g>
<g>
</g>
<g>
</g>
<g>
</g>
<g>
</g>
<g>
</g>
<g>
</g>
<g>
</g>
<g>
</g>
<g>
</g>
<g>
</g>
<g>
</g>
<g>
</g>
<g>
</g>
<g>
</g>
</svg>
