<?xml version="1.0" encoding="iso-8859-1"?>
<!-- Generator: Adobe Illustrator 19.0.0, SVG Export Plug-In . SVG Version: 6.00 Build 0)  -->
<svg version="1.1" id="Layer_1" xmlns="http://www.w3.org/2000/svg" xmlns:xlink="http://www.w3.org/1999/xlink" x="0px" y="0px"
	 viewBox="0 0 512 512" style="enable-background:new 0 0 512 512;" xml:space="preserve">
<path style="fill:#314E55;" d="M400.756,189.726c-7.609,0-13.371,3.567-17.731,8.748c-0.134-1.622-0.212-3.023-0.212-4.139
	c0-23.718-13.103-39.048-33.388-39.048c-8.969,0-15.823,2.498-20.925,6.029c-3.065-10.592-12.062-22.354-29.29-22.354
	c-9.435,0-16.689,2.793-22.1,6.342c-0.253-42.108-0.553-92.909-0.553-95.37c0-9.771-11.721-28.779-33.204-28.779
	c-18.468,0-28.784,17.339-31.964,27.581c-0.253,0.83-0.396,1.678-0.419,2.544L206.199,223.4
	c-7.808-14.555-18.828-28.392-27.156-32.641c-9.771-5.005-26.295-1.604-36.103,7.374c-9.08,8.296-11.463,20.095-6.531,32.365
	c3.927,9.762,6.31,21.22,9.071,34.494c3.521,16.943,7.9,38.015,17.224,63.715c14.961,41.297,61.674,84.908,74.699,96.504v31.056
	C237.403,487,262.448,512,293.232,512h61.139c30.784,0,55.825-25.027,55.825-55.788v-37.287
	c15.698-21.524,25.078-60.286,25.488-61.992c0.171-0.719,0.258-1.457,0.258-2.194v-128.97
	C435.941,204.208,421.801,189.726,400.756,189.726z"/>
<path style="fill:#E9E7D1;" d="M417.063,353.578c-1.618,6.37-10.679,40.338-23.617,56.166c-1.378,1.687-2.129,3.798-2.129,5.973
	v40.495c0,20.354-16.574,36.909-36.946,36.909h-61.139c-20.377,0-36.951-16.528-36.951-36.854v-35.333
	c0-2.766-1.212-5.393-3.318-7.181c-0.567-0.488-57.138-49.059-72.514-91.48c-8.859-24.428-12.91-43.924-16.486-61.125
	c-2.941-14.159-5.485-26.382-10.038-37.693c-2.452-6.102-0.558-9.098,1.364-11.025c3.738-3.733,9.808-5.125,13.182-5.125
	c0.871,0,1.567,0.092,1.991,0.267c6.37,3.254,21.833,25.193,25.834,41.057c1.632,6.444,2.452,12.564,3.176,17.966
	c1.387,10.315,2.484,18.455,8.66,23.368c2.798,2.222,6.614,2.682,9.859,1.162c3.24-1.512,5.351-4.72,5.448-8.296l6.36-229.493
	c1.318-3.309,5.941-13.302,13.555-13.302c10.947,0,14.32,10.324,14.325,9.909c0,4.489,0.89,151.656,0.89,151.656
	c0.032,4.987,3.936,9.089,8.918,9.366c4.812,0.35,9.315-3.355,9.896-8.324l4.194-35.729c1.659-2.544,6.96-9.071,17.634-9.071
	c9.532,0,11.306,7.891,11.707,11.947l5.923,38.301c0.761,4.913,5.282,8.425,10.163,7.964c4.959-0.442,8.72-4.655,8.6-9.624
	l-0.581-24.502c1.014-2.443,4.374-7.762,14.403-7.762c11.993,0,14.509,10.969,14.509,20.169c0,11.431,5.471,40.947,6.093,44.274
	c0.862,4.618,4.987,7.928,9.674,7.679c4.692-0.194,8.522-3.807,8.997-8.481c1.341-13.228,7.02-29.203,12.057-29.203
	c13.477,0,16.307,9.338,16.307,17.164L417.063,353.578L417.063,353.578z"/>
<g>
	<path style="fill:#314E55;" d="M304.893,58.922h73.898l-23.936,23.939c-3.687,3.687-3.687,9.661,0,13.348
		c1.844,1.843,4.259,2.765,6.674,2.765c2.415,0,4.83-0.922,6.674-2.765l40.048-40.053c1.77-1.77,2.766-4.167,2.766-6.674
		c0-2.507-0.996-4.904-2.766-6.674L368.203,2.765c-3.687-3.687-9.661-3.687-13.348,0s-3.687,9.661,0,13.348l23.934,23.93h-73.896
		c-5.213,0-9.439,4.222-9.439,9.439S299.68,58.922,304.893,58.922z"/>
	<path style="fill:#314E55;" d="M132.22,82.861l-23.936-23.939h73.898c5.213,0,9.439-4.222,9.439-9.439s-4.226-9.439-9.439-9.439
		h-73.896l23.934-23.93c3.687-3.687,3.687-9.661,0-13.348s-9.661-3.687-13.348,0L78.824,42.809c-1.77,1.77-2.765,4.167-2.765,6.674
		s0.996,4.904,2.765,6.674l40.048,40.053c1.843,1.844,4.259,2.765,6.674,2.765s4.83-0.922,6.674-2.765
		C135.907,92.522,135.907,86.549,132.22,82.861z"/>
</g>
<g>
</g>
<g>
</g>
<g>
</g>
<g>
</g>
<g>
</g>
<g>
</g>
<g>
</g>
<g>
</g>
<g>
</g>
<g>
</g>
<g>
</g>
<g>
</g>
<g>
</g>
<g>
</g>
<g>
</g>
</svg>
