<?xml version="1.0" encoding="iso-8859-1"?>
<!-- Generator: Adobe Illustrator 19.0.0, SVG Export Plug-In . SVG Version: 6.00 Build 0)  -->
<svg version="1.1" id="Layer_1" xmlns="http://www.w3.org/2000/svg" xmlns:xlink="http://www.w3.org/1999/xlink" x="0px" y="0px"
	 viewBox="0 0 512 512" style="enable-background:new 0 0 512 512;" xml:space="preserve">
<path style="fill:#314E55;" d="M463.255,211.394c-0.82-0.258-1.668-0.396-2.535-0.424l-172.12-4.766
	c14.555-7.808,28.392-18.833,32.641-27.156c4.978-9.762,1.595-26.299-7.374-36.107c-8.315-9.08-20.095-11.449-32.365-6.526
	c-9.753,3.927-21.22,6.305-34.494,9.071c-16.934,3.512-38.025,7.9-63.725,17.219c-41.297,14.97-84.908,61.678-96.504,74.703H55.733
	C25,237.407,0,262.453,0,293.232v61.134C0,385.154,25.018,410.2,55.779,410.2h37.287c21.533,15.698,60.296,25.073,62.001,25.479
	c0.719,0.175,1.456,0.258,2.194,0.258h128.97c21.561,0,36.043-14.141,36.043-35.176c0-7.605-3.567-13.376-8.748-17.736
	c1.622-0.138,3.023-0.212,4.139-0.212c23.718,0,39.039-13.108,39.039-33.388c0-8.969-2.498-15.827-6.029-20.925
	c10.601-3.06,22.363-12.057,22.363-29.295c0-9.43-2.793-16.685-6.351-22.096c42.118-0.249,92.918-0.553,95.38-0.553
	c9.771,0,28.779-11.716,28.779-33.204C490.845,224.88,473.505,214.574,463.255,211.394z"/>
<path style="fill:#E9E7D1;" d="M462.057,257.678c-4.498,0-151.656,0.894-151.656,0.894c-4.987,0.028-9.098,3.936-9.366,8.914
	c-0.277,4.987,3.365,9.319,8.324,9.9l35.729,4.185c2.719,1.742,9.071,6.95,9.071,17.634c0,9.532-7.9,11.311-11.965,11.707
	l-38.292,5.927c-4.913,0.765-8.398,5.208-7.955,10.168c0.442,4.95,4.803,8.6,9.624,8.6l24.502-0.581
	c2.433,1.014,7.753,4.369,7.753,14.399c0,11.993-10.96,14.509-20.16,14.509c-11.431,0-40.947,5.466-44.274,6.084
	c-4.609,0.867-7.891,4.996-7.688,9.688c0.203,4.692,3.826,8.527,8.499,8.988c13.219,1.309,29.194,6.987,29.194,12.066
	c0,13.468-9.338,16.297-17.164,16.297H158.394c-11.854-2.941-42.099-12.131-56.147-23.608c-1.687-1.373-3.798-2.129-5.973-2.129
	H55.779c-20.344,0-36.9-16.574-36.9-36.955v-61.134c0-20.372,16.528-36.946,36.854-36.946h35.324c2.765,0,5.393-1.217,7.181-3.318
	c0.488-0.572,49.059-57.143,91.48-72.51c24.437-8.868,43.933-12.915,61.134-16.491c14.159-2.941,26.382-5.485,37.693-10.038
	c6.139-2.443,9.098-0.562,11.016,1.364c4.701,4.701,5.697,13.108,4.867,15.173c-3.254,6.37-25.193,21.828-41.057,25.829
	c-6.444,1.632-12.564,2.452-17.966,3.18c-10.315,1.383-18.455,2.471-23.368,8.656c-2.231,2.793-2.682,6.609-1.171,9.854
	c1.503,3.245,4.72,5.356,8.296,5.457l229.503,6.36c3.309,1.318,13.301,5.936,13.301,13.55
	C471.966,254.184,461.651,257.65,462.057,257.678z"/>
<path style="fill:#314E55;" d="M509.235,118.872l-40.053-40.043c-3.687-3.687-9.661-3.687-13.348,0l-40.043,40.043
	c-3.687,3.687-3.687,9.661,0,13.348c3.687,3.687,9.661,3.687,13.348,0l23.93-23.93v73.892c0,5.217,4.222,9.439,9.439,9.439
	c5.217,0,9.439-4.222,9.439-9.439v-73.895l23.939,23.933c1.844,1.843,4.259,2.765,6.674,2.765c2.415,0,4.83-0.922,6.674-2.765
	C512.922,128.532,512.922,122.559,509.235,118.872z"/>
<g>
</g>
<g>
</g>
<g>
</g>
<g>
</g>
<g>
</g>
<g>
</g>
<g>
</g>
<g>
</g>
<g>
</g>
<g>
</g>
<g>
</g>
<g>
</g>
<g>
</g>
<g>
</g>
<g>
</g>
</svg>
