<?xml version="1.0" encoding="iso-8859-1"?>
<!-- Generator: Adobe Illustrator 19.0.0, SVG Export Plug-In . SVG Version: 6.00 Build 0)  -->
<svg version="1.1" id="Layer_1" xmlns="http://www.w3.org/2000/svg" xmlns:xlink="http://www.w3.org/1999/xlink" x="0px" y="0px"
	 viewBox="0 0 512 512" style="enable-background:new 0 0 512 512;" xml:space="preserve">
<path style="fill:#314E55;" d="M288.6,305.801l172.12-4.766c0.867-0.028,1.724-0.166,2.544-0.424
	c10.241-3.18,27.581-13.495,27.581-31.968c0-21.487-19.008-33.204-28.779-33.204c-2.461,0-53.262-0.295-95.38-0.553
	c3.558-5.411,6.351-12.666,6.351-22.096c0-17.459-12.066-26.456-22.317-29.35c3.503-5.098,5.983-11.937,5.983-20.87
	c0-20.28-15.32-33.388-39.039-33.388c-1.116,0-2.517-0.074-4.13-0.212c5.171-4.36,8.739-10.122,8.739-17.726
	c0-21.045-14.482-35.186-36.043-35.186H157.26c-0.737,0-1.475,0.083-2.194,0.258c-1.705,0.406-40.468,9.78-62.001,25.488H55.779
	C25.018,101.805,0,126.85,0,157.629v61.134c0,30.788,25,55.834,55.733,55.834h31.046c11.596,13.025,55.207,59.733,96.504,74.703
	c25.7,9.319,46.791,13.698,63.725,17.219c13.274,2.765,24.741,5.144,34.494,9.071c4.194,1.687,8.333,2.517,12.297,2.517
	c7.633,0,14.611-3.079,20.068-9.052c8.978-9.817,12.352-26.345,7.374-36.107C316.982,324.624,303.155,313.609,288.6,305.801z"/>
<path style="fill:#E9E7D1;" d="M299.56,356.712c-1.927,1.927-4.922,3.798-11.016,1.364c-11.311-4.554-23.534-7.098-37.693-10.038
	c-17.201-3.577-36.697-7.623-61.134-16.491c-42.422-15.367-90.992-71.938-91.48-72.51c-1.788-2.102-4.415-3.318-7.181-3.318H55.733
	c-20.326,0-36.854-16.574-36.854-36.955v-61.134c0-20.372,16.556-36.946,36.9-36.946h40.495c2.176,0,4.286-0.756,5.973-2.129
	c15.828-12.942,49.805-22.004,56.175-23.617h127.809c7.826,0,17.164,2.83,17.164,16.307c0,5.033-15.975,10.712-29.203,12.057
	c-4.674,0.479-8.287,4.305-8.481,8.997c-0.203,4.692,3.07,8.813,7.679,9.679c3.328,0.618,32.844,6.084,44.274,6.084
	c9.2,0,20.16,2.517,20.16,14.509c0,10.066-5.346,13.412-7.734,14.408l-24.511-0.59c-0.083,0-0.157,0-0.231,0
	c-4.876,0-8.969,3.724-9.402,8.6c-0.442,4.959,3.042,9.403,7.955,10.168l38.965,6.01c3.392,0.313,11.292,2.092,11.292,11.624
	c0,10.748-6.425,15.956-9.052,17.625l-35.748,4.203c-4.959,0.581-8.6,4.913-8.324,9.9c0.277,4.978,4.379,8.886,9.366,8.914
	c0.009,0.009,147.674,0.894,150.983,0.839c0.11,0.018,10.582,3.457,10.582,14.371c0,7.633-10.038,12.26-13.292,13.56l-229.512,6.351
	c-3.577,0.101-6.794,2.212-8.296,5.457c-1.512,3.245-1.06,7.061,1.171,9.854c4.913,6.185,13.053,7.273,23.368,8.656
	c5.402,0.728,11.523,1.549,17.966,3.18c15.864,4.001,37.803,19.469,41.02,25.765C305.257,343.604,304.261,352.002,299.56,356.712z"
	/>
<path style="fill:#314E55;" d="M509.235,379.776c-3.687-3.687-9.661-3.687-13.348,0l-23.939,23.939v-73.901
	c0-5.217-4.222-9.439-9.439-9.439c-5.217,0-9.439,4.222-9.439,9.439v73.899l-23.93-23.936c-3.687-3.687-9.661-3.687-13.348,0
	c-3.687,3.687-3.687,9.661,0,13.348l40.043,40.053c1.77,1.77,4.167,2.765,6.674,2.765s4.904-0.996,6.674-2.765l40.053-40.053
	C512.922,389.437,512.922,383.463,509.235,379.776z"/>
<g>
</g>
<g>
</g>
<g>
</g>
<g>
</g>
<g>
</g>
<g>
</g>
<g>
</g>
<g>
</g>
<g>
</g>
<g>
</g>
<g>
</g>
<g>
</g>
<g>
</g>
<g>
</g>
<g>
</g>
</svg>
