<?xml version="1.0" encoding="iso-8859-1"?>
<!-- Generator: Adobe Illustrator 19.0.0, SVG Export Plug-In . SVG Version: 6.00 Build 0)  -->
<svg version="1.1" id="Layer_1" xmlns="http://www.w3.org/2000/svg" xmlns:xlink="http://www.w3.org/1999/xlink" x="0px" y="0px"
	 viewBox="0 0 512 512" style="enable-background:new 0 0 512 512;" xml:space="preserve">
<path style="fill:#314E55;" d="M483.774,210.383c-0.792-0.245-1.613-0.387-2.443-0.425l-132.491-5.802
	c1.783-2.83,3.783-6.028,6-9.585c5.415-8.679,11.16-17.887,15.462-24.34c9.802-14.698,17.538-26.302,17.538-44
	c0-32.274-5.887-52.613-17.5-60.462c-4.321-2.934-11.576-5.575-21.34-1.632c-14.745,5.934-21.594,21.5-28.849,37.991
	c-7.151,16.245-14.547,33.047-29.311,39.377c-31.802,13.623-91.377,79.632-105.415,95.5h-69.5v-28.66c0-5.34-4.321-9.66-9.66-9.66
	H9.66c-5.34,0-9.66,4.321-9.66,9.66v231.849c0,5.34,4.321,9.66,9.66,9.66h96.604c5.34,0,9.66-4.321,9.66-9.66v-26.349h75.934
	c22.028,16.075,61.698,25.67,63.443,26.085c0.736,0.179,1.491,0.264,2.245,0.264h131.99c22.066,0,36.887-14.472,36.887-36.01
	c0-7.783-3.651-13.679-8.943-18.141c1.651-0.142,3.085-0.217,4.226-0.217c24.274,0,39.962-13.415,39.962-34.17
	c0-9.179-2.557-16.198-6.17-21.425c10.84-3.132,22.877-12.33,22.877-29.972c0-9.915-3.019-17.472-6.792-23.057
	c5.811-0.075,9.962-0.123,10.962-0.123c10,0,29.453-11.99,29.453-33.981C512,224.194,494.255,213.638,483.774,210.383z"/>
<polygon style="fill:#5ECB66;" points="96.604,430.534 19.321,430.534 19.321,218.006 96.604,218.006 96.604,246.666 
	96.604,404.185 "/>
<path style="fill:#E9E7D1;" d="M482.538,257.76c-4.453,0-68.349,0.906-68.349,0.906c-5.085,0.075-9.245,4.085-9.509,9.16
	c-0.255,5.085,3.472,9.5,8.528,10.094l36.575,4.292c2.783,1.783,9.273,7.113,9.273,18.047c0,9.755-8.076,11.576-12.236,11.981
	l-39.198,6.066c-5.028,0.783-8.594,5.33-8.142,10.406c0.453,5.066,4.292,8.924,9.858,8.802l25.066-0.604
	c2.5,1.038,7.943,4.481,7.943,14.745c0,12.274-11.226,14.849-20.642,14.849c-11.698,0-41.906,5.594-45.311,6.236
	c-4.717,0.877-8.076,5.104-7.868,9.906c0.208,4.802,3.915,8.726,8.698,9.198c13.453,1.34,29.877,7.292,29.877,12.34
	c0,13.792-9.557,16.689-17.566,16.689h-130.83c-12.123-3.009-43.075-12.415-57.453-24.17c-1.726-1.406-3.887-2.179-6.113-2.179
	h-79.217V256.326h73.877c2.802,0,5.462-1.217,7.292-3.33c19.358-22.283,75.302-82.566,101.349-93.736
	c21.773-9.33,31.132-30.594,39.387-49.349c5.632-12.783,10.943-24.859,18.377-27.849c2.34-0.924,3.028-0.472,3.321-0.283
	c4.33,2.924,8.991,18.085,8.991,44.453c0,11.34-4.642,18.802-14.293,33.283c-4.387,6.585-10.255,15.981-15.773,24.821
	c-5.896,9.453-12.575,20.151-14.613,22.717c-2.255,2.849-2.726,6.717-1.226,10.019c1.509,3.302,4.745,5.481,8.368,5.641L479,229.193
	c3.311,1.312,13.679,6.058,13.679,13.907C492.679,254.194,482.132,257.732,482.538,257.76z"/>
<path style="fill:#314E55;" d="M57.962,227.666c-10.651,0-19.321,8.67-19.321,19.321c0,10.651,8.67,19.321,19.321,19.321
	s19.321-8.67,19.321-19.321C77.283,236.336,68.613,227.666,57.962,227.666z"/>
<g>
</g>
<g>
</g>
<g>
</g>
<g>
</g>
<g>
</g>
<g>
</g>
<g>
</g>
<g>
</g>
<g>
</g>
<g>
</g>
<g>
</g>
<g>
</g>
<g>
</g>
<g>
</g>
<g>
</g>
</svg>
