<?xml version="1.0" encoding="iso-8859-1"?>
<!-- Generator: Adobe Illustrator 19.0.0, SVG Export Plug-In . SVG Version: 6.00 Build 0)  -->
<svg version="1.1" id="Layer_1" xmlns="http://www.w3.org/2000/svg" xmlns:xlink="http://www.w3.org/1999/xlink" x="0px" y="0px"
	 viewBox="0 0 512 512" style="enable-background:new 0 0 512 512;" xml:space="preserve">
<path style="fill:#314E55;" d="M431.329,298.172c10.879-0.782,27.066-9.071,27.066-28.7c0-23.886-19.012-32.949-19.82-33.322
	c-1.104-0.513-2.303-0.791-3.519-0.825l-13.676-0.33c3.389-4.822,5.7-10.905,5.7-18.177c0-17.404-16.353-27.127-26.006-30.125
	c-0.773-0.243-1.573-0.374-2.381-0.4L245.22,181.87c13.772-7.368,26.866-17.795,30.881-25.659
	c4.692-9.184,1.521-24.772-6.934-34.026c-7.82-8.567-18.942-10.818-30.516-6.169c-9.193,3.702-20.002,5.943-32.514,8.55
	c-15.962,3.311-35.833,7.446-60.067,16.231c-38.927,14.102-80.034,58.138-90.965,70.415h-2.537C23.582,211.213,0,234.821,0,263.842
	v57.625c0,29.013,23.608,52.62,52.629,52.62h8.402c20.289,14.806,56.826,23.643,58.433,24.025c0.678,0.165,1.373,0.243,2.068,0.243
	h121.576c20.315,0,33.965-13.329,33.965-33.166c0-7.177-3.363-12.608-8.246-16.718c1.529-0.13,2.859-0.2,3.91-0.2
	c22.357,0,36.798-12.356,36.798-31.471c0-5.717-1.069-10.522-2.789-14.519L431.329,298.172z"/>
<path style="fill:#E9E7D1;" d="M261.129,303.785c0.069,0,0.139,0,0.217,0l23.087-0.556c2.294,0.956,7.307,4.119,7.307,13.572
	c0,11.304-10.331,13.676-19.003,13.676c-10.774,0-38.596,5.161-41.733,5.752c-4.353,0.808-7.438,4.701-7.247,9.124
	s3.606,8.037,8.011,8.472c12.382,1.225,27.509,6.716,27.509,11.365c0,12.703-8.793,15.371-16.17,15.371H122.601
	c-11.165-2.772-39.674-11.435-52.916-22.261c-1.59-1.295-3.58-2.007-5.63-2.007H52.629c-19.211,0-34.834-15.623-34.834-34.826
	v-57.625c0-19.211,15.597-34.834,34.773-34.834h6.569c2.607,0,5.083-1.147,6.769-3.128c0.46-0.539,46.243-53.863,86.229-68.347
	c23.035-8.359,41.412-12.182,57.625-15.545c13.346-2.772,24.868-5.17,35.529-9.462c5.726-2.311,8.559-0.521,10.383,1.295
	c4.431,4.431,5.361,12.338,4.579,14.302c-3.059,5.995-23.738,20.575-38.692,24.346c-6.074,1.538-11.843,2.311-16.935,2.998
	c-9.723,1.303-17.395,2.329-22.026,8.159c-2.103,2.633-2.528,6.23-1.112,9.289c1.425,3.05,4.449,5.04,7.811,5.144l207.44,5.987
	c3.111,1.242,12.547,5.596,12.547,12.773c0,10.218-9.723,13.485-9.341,13.511c-4.231,0-134.062,0.834-134.062,0.834
	c-4.857,0.035-8.793,3.953-8.837,8.819c-0.043,4.857,3.823,8.854,8.68,8.976l166.637,4.101c2.711,1.825,8.237,6.734,8.237,16.413
	c0,8.984-7.447,10.661-10.209,10.939l-169.556,5.587c-4.892,0.156-8.741,4.249-8.602,9.141
	C252.371,299.962,256.324,303.785,261.129,303.785z"/>
<path style="fill:#314E55;" d="M506.141,143.439l-50.17-18.264c-2.207-0.791-4.657-0.695-6.803,0.295
	c-2.137,0.999-3.788,2.806-4.596,5.022l-18.255,50.17c-1.686,4.614,0.695,9.723,5.318,11.4c0.999,0.365,2.033,0.539,3.041,0.539
	c3.632,0,7.047-2.242,8.359-5.856l11.319-31.1c10.972,25.937,17.216,60.411,17.216,96.423c0,45.822-9.813,87.723-26.274,113.929
	l-11.305-31.063c-1.677-4.622-6.803-6.995-11.4-5.318c-4.622,1.677-7.003,6.786-5.318,11.4l18.255,50.17
	c0.808,2.216,2.459,4.023,4.596,5.022c1.19,0.556,2.476,0.834,3.762,0.834c1.025,0,2.059-0.182,3.041-0.539l50.17-18.264
	c4.622-1.677,7.003-6.786,5.318-11.4c-1.677-4.614-6.795-7.003-11.4-5.318l-28.461,10.356c16.856-29.134,26.81-72.825,26.81-119.811
	c0-37.843-6.583-74.41-18.205-102.429l28.901,10.517c4.605,1.694,9.723-0.704,11.4-5.318
	C513.144,150.225,510.763,145.116,506.141,143.439z"/>
<g>
</g>
<g>
</g>
<g>
</g>
<g>
</g>
<g>
</g>
<g>
</g>
<g>
</g>
<g>
</g>
<g>
</g>
<g>
</g>
<g>
</g>
<g>
</g>
<g>
</g>
<g>
</g>
<g>
</g>
</svg>
