<?xml version="1.0" encoding="iso-8859-1"?>
<!-- Generator: Adobe Illustrator 19.0.0, SVG Export Plug-In . SVG Version: 6.00 Build 0)  -->
<svg version="1.1" id="Layer_1" xmlns="http://www.w3.org/2000/svg" xmlns:xlink="http://www.w3.org/1999/xlink" x="0px" y="0px"
	 viewBox="0 0 512 512" style="enable-background:new 0 0 512 512;" xml:space="preserve">
<path style="fill:#314E55;" d="M462.066,264.361c-2.461,0-53.262-0.295-95.38-0.553c3.558-5.411,6.351-12.666,6.351-22.096
	c0-17.459-12.066-26.456-22.326-29.35c3.512-5.098,5.992-11.937,5.992-20.87c0-20.28-15.32-33.388-39.039-33.388
	c-1.116,0-2.517-0.074-4.13-0.212c5.171-4.36,8.739-10.122,8.739-17.726c0-21.045-14.482-35.186-36.043-35.186H157.26
	c-0.737,0-1.475,0.083-2.194,0.258c-1.705,0.406-40.467,9.78-61.992,25.488H55.779C25.018,130.726,0,155.772,0,186.551v61.134
	c0,30.779,25,55.825,55.733,55.825h31.046c11.606,13.025,55.216,59.742,96.513,74.712c25.7,9.31,46.773,13.689,63.706,17.21
	c13.274,2.756,24.741,5.144,34.503,9.071c4.194,1.687,8.342,2.517,12.306,2.517c7.623,0,14.601-3.07,20.068-9.043
	c8.969-9.817,12.343-26.345,7.365-36.107c-4.259-8.324-18.086-19.34-32.65-27.156l172.129-4.766
	c0.867-0.028,1.715-0.166,2.535-0.424c10.251-3.181,27.59-13.486,27.59-31.959C490.845,276.077,471.837,264.361,462.066,264.361z"/>
<path style="fill:#E9E7D1;" d="M458.674,311.115l-229.512,6.36c-3.577,0.101-6.794,2.212-8.296,5.457
	c-1.512,3.245-1.06,7.061,1.171,9.854c4.913,6.185,13.053,7.273,23.368,8.656c5.402,0.728,11.523,1.549,17.966,3.18
	c15.864,4.001,37.803,19.469,41.02,25.765c0.867,2.138-0.129,10.536-4.821,15.237c-1.936,1.927-4.932,3.789-11.025,1.364
	c-11.311-4.554-23.543-7.098-37.702-10.038c-17.201-3.577-36.688-7.623-61.116-16.482c-42.422-15.367-90.992-71.947-91.48-72.519
	c-1.788-2.102-4.415-3.318-7.181-3.318H55.733c-20.326,0-36.854-16.574-36.854-36.946v-61.134c0-20.372,16.556-36.946,36.9-36.946
	h40.504c2.176,0,4.286-0.756,5.973-2.129c15.828-12.942,49.796-22.004,56.166-23.617h127.809c7.826,0,17.164,2.83,17.164,16.307
	c0,5.033-15.975,10.712-29.203,12.057c-4.674,0.479-8.287,4.305-8.481,8.997c-0.203,4.692,3.07,8.813,7.679,9.679
	c3.328,0.618,32.844,6.084,44.274,6.084c9.2,0,20.16,2.517,20.16,14.509c0,10.057-5.346,13.412-7.743,14.408l-24.502-0.59
	c-5.217-0.037-9.19,3.65-9.633,8.6c-0.442,4.959,3.042,9.403,7.955,10.168l38.965,6.01c3.392,0.313,11.292,2.092,11.292,11.624
	c0,10.748-6.425,15.947-9.052,17.625l-35.748,4.203c-4.959,0.581-8.6,4.913-8.324,9.9c0.277,4.978,4.379,8.886,9.366,8.914
	c0,0,147.535,0.811,150.983,0.839c0.11,0.018,10.582,3.457,10.582,14.371C471.966,305.197,461.927,309.815,458.674,311.115z"/>
<path style="fill:#314E55;" d="M509.235,172.714l-40.043-40.053c-1.77-1.77-4.167-2.765-6.674-2.765s-4.904,0.996-6.674,2.765
	l-40.053,40.053c-3.687,3.687-3.687,9.661,0,13.348c3.687,3.687,9.661,3.687,13.348,0l23.93-23.93v73.892
	c0,5.217,4.222,9.439,9.439,9.439c5.217,0,9.439-4.222,9.439-9.439v-73.908l23.939,23.946c1.844,1.843,4.259,2.765,6.674,2.765
	s4.83-0.922,6.674-2.765C512.922,182.375,512.922,176.402,509.235,172.714z"/>
<g>
</g>
<g>
</g>
<g>
</g>
<g>
</g>
<g>
</g>
<g>
</g>
<g>
</g>
<g>
</g>
<g>
</g>
<g>
</g>
<g>
</g>
<g>
</g>
<g>
</g>
<g>
</g>
<g>
</g>
</svg>
