<?xml version="1.0" encoding="iso-8859-1"?>
<!-- Generator: Adobe Illustrator 19.0.0, SVG Export Plug-In . SVG Version: 6.00 Build 0)  -->
<svg version="1.1" id="Layer_1" xmlns="http://www.w3.org/2000/svg" xmlns:xlink="http://www.w3.org/1999/xlink" x="0px" y="0px"
	 viewBox="0 0 512 512" style="enable-background:new 0 0 512 512;" xml:space="preserve">
<path style="fill:#314E55;" d="M483.226,179.307c-0.856-0.269-1.75-0.414-2.644-0.442l-179.543-4.971
	c15.187-8.154,29.62-19.644,34.053-28.327c5.187-10.183,1.664-27.433-7.697-37.664c-8.659-9.471-20.952-11.942-33.759-6.808
	c-10.173,4.096-22.135,6.577-35.985,9.462c-17.664,3.664-39.649,8.24-66.457,17.952c-43.072,15.606-88.572,64.346-100.673,77.933
	h-32.38C26.082,206.442,0,232.567,0,264.672v63.769c0,32.115,26.101,58.241,58.188,58.241h38.899
	c22.452,16.375,62.885,26.154,64.668,26.577c0.745,0.183,1.514,0.269,2.284,0.269h134.534c22.486,0,37.591-14.75,37.591-36.692
	c0-7.933-3.721-13.952-9.125-18.5c1.687-0.144,3.154-0.221,4.317-0.221c24.74,0,40.726-13.673,40.726-34.827
	c0-9.356-2.601-16.51-6.284-21.837c11.058-3.192,23.322-12.577,23.322-30.548c0-9.837-2.913-17.404-6.62-23.048
	c43.928-0.26,96.909-0.577,99.481-0.577c10.188,0,30.019-12.221,30.019-34.635C512,193.374,493.913,182.624,483.226,179.307z"/>
<path style="fill:#E9E7D1;" d="M481.971,227.586c-4.678,0-158.188,0.933-158.188,0.933c-5.207,0.029-9.486,4.106-9.774,9.298
	c-0.288,5.202,3.519,9.721,8.688,10.327l37.264,4.365c2.841,1.817,9.466,7.25,9.466,18.394c0,9.942-8.241,11.798-12.476,12.211
	l-39.942,6.183c-5.13,0.798-8.764,5.433-8.303,10.606c0.457,5.164,4.692,8.635,10.043,8.971l25.548-0.615
	c2.543,1.058,8.091,4.567,8.091,15.029c0,12.51-11.438,15.135-21.034,15.135c-11.923,0-42.707,5.702-46.178,6.346
	c-4.817,0.904-8.236,5.212-8.024,10.106c0.211,4.894,3.99,8.894,8.865,9.375c13.793,1.365,30.452,7.288,30.452,12.587
	c0,14.048-9.736,17-17.899,17H165.245c-6.644-1.683-42.077-11.135-58.582-24.625c-1.76-1.433-3.962-2.221-6.231-2.221H58.188
	c-21.226,0-38.495-17.288-38.495-38.548v-63.769c0-21.25,17.245-38.539,38.447-38.539h36.846c2.885,0,5.625-1.269,7.495-3.461
	c0.505-0.596,51.168-59.616,95.423-75.644c25.481-9.24,45.812-13.462,63.75-17.192c14.774-3.067,27.529-5.721,39.332-10.471
	c6.365-2.548,9.486-0.596,11.49,1.423c4.909,4.904,5.938,13.673,5.072,15.827c-3.39,6.644-26.274,22.769-42.817,26.942
	c-6.731,1.702-13.111,2.558-18.745,3.317c-10.755,1.442-19.255,2.577-24.38,9.029c-2.322,2.913-2.793,6.894-1.221,10.279
	c1.577,3.385,4.928,5.586,8.654,5.692l239.394,6.635c3.447,1.375,13.875,6.193,13.875,14.135
	C492.308,223.942,481.553,227.557,481.971,227.586z"/>
<g>
</g>
<g>
</g>
<g>
</g>
<g>
</g>
<g>
</g>
<g>
</g>
<g>
</g>
<g>
</g>
<g>
</g>
<g>
</g>
<g>
</g>
<g>
</g>
<g>
</g>
<g>
</g>
<g>
</g>
</svg>
