<?xml version="1.0" encoding="iso-8859-1"?>
<!-- Generator: Adobe Illustrator 19.0.0, SVG Export Plug-In . SVG Version: 6.00 Build 0)  -->
<svg version="1.1" id="Layer_1" xmlns="http://www.w3.org/2000/svg" xmlns:xlink="http://www.w3.org/1999/xlink" x="0px" y="0px"
	 viewBox="0 0 512 512" style="enable-background:new 0 0 512 512;" xml:space="preserve">
<path style="fill:#314E55;" d="M453.861,206.444h-32.38c-12.101-13.586-57.601-62.317-100.673-77.933
	c-26.808-9.712-48.793-14.288-66.457-17.952c-13.851-2.875-25.812-5.365-35.99-9.462c-12.798-5.144-25.091-2.663-33.755,6.808
	c-9.361,10.231-12.885,27.481-7.692,37.673c4.433,8.673,18.861,20.163,34.048,28.317l-179.543,4.971
	c-0.894,0.029-1.789,0.173-2.644,0.442C18.087,182.627,0,193.377,0,212.646c0,22.414,19.832,34.635,30.019,34.635
	c2.572,0,55.553,0.317,99.481,0.577c-3.707,5.644-6.62,13.212-6.62,23.048c0,18.202,12.582,27.596,23.274,30.615
	c-3.654,5.317-6.236,12.452-6.236,21.769c0,21.154,15.985,34.827,40.726,34.827c1.164,0,2.63,0.077,4.317,0.221
	c-5.404,4.548-9.125,10.567-9.125,18.5c0,21.942,15.106,36.692,37.591,36.692h134.534c0.769,0,1.538-0.087,2.284-0.269
	c1.784-0.423,42.216-10.202,64.668-26.577h38.899c32.087,0,58.188-26.125,58.188-58.241v-63.769
	C512,232.569,485.918,206.444,453.861,206.444z"/>
<path style="fill:#E9E7D1;" d="M492.308,328.444c0,21.26-17.269,38.548-38.495,38.548h-42.245c-2.269,0-4.471,0.788-6.231,2.221
	c-16.505,13.49-51.937,22.942-58.582,24.625H213.428c-8.163,0-17.899-2.952-17.899-17c0-5.26,16.668-11.183,30.466-12.587
	c4.87-0.5,8.64-4.49,8.846-9.385s-3.207-9.192-8.019-10.096c-3.471-0.644-34.255-6.346-46.178-6.346
	c-9.596,0-21.034-2.625-21.034-15.135c0-10.5,5.591-14,8.072-15.029l25.567,0.615c0.082,0,0.159,0,0.24,0
	c5.082,0,9.351-3.885,9.803-8.971c0.462-5.173-3.173-9.808-8.303-10.606l-40.635-6.269c-3.543-0.327-11.784-2.183-11.784-12.125
	c0-11.202,6.702-16.635,9.442-18.385l37.288-4.375c5.168-0.606,8.976-5.125,8.688-10.327c-0.288-5.192-4.567-9.269-9.774-9.298
	c0,0-153.644-0.808-157.49-0.885c-0.11-0.019-11.033-3.596-11.033-14.99c0-7.962,10.471-12.779,13.865-14.135l239.404-6.635
	c3.726-0.106,7.077-2.308,8.654-5.692c1.572-3.385,1.101-7.365-1.221-10.279c-5.125-6.452-13.625-7.586-24.38-9.029
	c-5.635-0.76-12.015-1.615-18.745-3.317c-16.543-4.173-39.428-20.298-42.784-26.865c-0.899-2.231,0.13-11,5.039-15.904
	c2.005-2.01,5.13-3.962,11.486-1.423c11.808,4.75,24.562,7.404,39.337,10.471c17.937,3.731,38.269,7.952,63.75,17.192
	c44.255,16.029,94.918,75.048,95.423,75.644c1.87,2.192,4.61,3.461,7.495,3.461h36.846c21.202,0,38.447,17.288,38.447,38.538
	L492.308,328.444L492.308,328.444z"/>
<g>
</g>
<g>
</g>
<g>
</g>
<g>
</g>
<g>
</g>
<g>
</g>
<g>
</g>
<g>
</g>
<g>
</g>
<g>
</g>
<g>
</g>
<g>
</g>
<g>
</g>
<g>
</g>
<g>
</g>
</svg>
