<?xml version="1.0" encoding="iso-8859-1"?>
<!-- Generator: Adobe Illustrator 19.0.0, SVG Export Plug-In . SVG Version: 6.00 Build 0)  -->
<svg version="1.1" id="Layer_1" xmlns="http://www.w3.org/2000/svg" xmlns:xlink="http://www.w3.org/1999/xlink" x="0px" y="0px"
	 viewBox="0 0 512 512" style="enable-background:new 0 0 512 512;" xml:space="preserve">
<path style="fill:#314E55;" d="M461.231,264.346c-2.461,0-53.161-0.304-95.198-0.552c3.547-5.401,6.335-12.643,6.335-22.056
	c0-17.418-12.036-26.408-22.267-29.307c3.497-5.079,5.962-11.907,5.962-20.823c0-20.243-15.297-33.327-38.973-33.327
	c-1.113,0-2.517-0.074-4.131-0.212c5.171-4.352,8.732-10.112,8.732-17.704c0-20.998-14.455-35.113-35.973-35.113H156.976
	c-0.736,0-1.472,0.083-2.185,0.258c-1.707,0.405-40.394,9.763-61.884,25.433H55.683c-30.705,0-55.683,25-55.683,55.733V247.7
	c0,30.724,24.959,55.724,55.636,55.724h30.99c11.58,13.002,55.117,59.625,96.334,74.568c25.658,9.303,46.702,13.683,63.61,17.188
	c13.245,2.76,24.688,5.134,34.427,9.054c4.191,1.684,8.323,2.512,12.284,2.512c7.605,0,14.566-3.064,20.018-9.027
	c8.958-9.79,12.33-26.298,7.361-36.051c-4.242-8.3-18.049-19.295-32.582-27.098l171.814-4.757c0.856-0.028,1.712-0.166,2.53-0.423
	c10.228-3.174,27.536-13.462,27.536-31.901C489.958,276.041,470.98,264.346,461.231,264.346z"/>
<path style="fill:#E9E7D1;" d="M457.845,311.016l-229.097,6.349c-3.566,0.101-6.772,2.208-8.281,5.447
	c-1.505,3.239-1.054,7.048,1.169,9.836c4.904,6.174,13.039,7.26,23.33,8.64c5.392,0.727,11.497,1.546,17.938,3.175
	c15.831,3.993,37.731,19.424,40.942,25.709c0.86,2.135-0.124,10.527-4.822,15.219c-1.909,1.923-4.895,3.809-10.991,1.362
	c-11.295-4.546-23.496-7.085-37.629-10.02c-17.165-3.57-36.626-7.61-61.019-16.461c-42.35-15.339-90.828-71.808-91.311-72.379
	c-1.79-2.098-4.412-3.312-7.172-3.312H55.636c-20.289,0-36.792-16.544-36.792-36.879v-61.024c0-20.344,16.526-36.889,36.838-36.889
	h40.426c2.172,0,4.279-0.754,5.962-2.125c15.799-12.91,49.702-21.955,56.06-23.565h127.587c7.812,0,17.128,2.825,17.128,16.268
	c0,5.033-15.951,10.701-29.155,12.045c-4.66,0.478-8.268,4.297-8.465,8.981c-0.198,4.684,3.069,8.797,7.674,9.662
	c3.322,0.616,32.78,6.073,44.19,6.073c13.356,0,20.128,4.877,20.128,14.483c0,10.048-5.355,13.388-7.725,14.373l-24.471-0.58
	c-4.858-0.028-9.169,3.635-9.606,8.594c-0.437,4.941,3.037,9.386,7.945,10.14l38.982,5.99c1.868,0.138,11.18,1.334,11.18,11.612
	c0,10.72-6.414,15.918-9.036,17.593l-35.683,4.187c-4.946,0.58-8.59,4.904-8.313,9.882c0.276,4.969,4.371,8.87,9.353,8.898
	c0,0.009,147.214,0.856,150.71,0.847c0.106,0.018,10.559,3.441,10.559,14.345C471.113,305.108,461.093,309.718,457.845,311.016z"/>
<g>
	<path style="fill:#314E55;" d="M429.288,187.109l33.314-33.309l33.314,33.309c1.84,1.84,4.251,2.76,6.662,2.76
		c2.411,0,4.822-0.92,6.662-2.76c3.681-3.681,3.681-9.643,0-13.324l-39.976-39.971c-3.681-3.681-9.643-3.681-13.324,0
		l-39.976,39.971c-3.681,3.681-3.681,9.643,0,13.324C419.645,190.789,425.608,190.789,429.288,187.109z"/>
	<path style="fill:#314E55;" d="M469.264,190.348c-3.681-3.681-9.643-3.681-13.324,0l-39.976,39.971
		c-3.681,3.681-3.681,9.643,0,13.324c3.681,3.68,9.643,3.681,13.324,0l33.314-33.309l33.314,33.309c1.84,1.84,4.251,2.76,6.662,2.76
		c2.411,0,4.822-0.92,6.662-2.76c3.681-3.681,3.681-9.643,0-13.324L469.264,190.348z"/>
</g>
<g>
</g>
<g>
</g>
<g>
</g>
<g>
</g>
<g>
</g>
<g>
</g>
<g>
</g>
<g>
</g>
<g>
</g>
<g>
</g>
<g>
</g>
<g>
</g>
<g>
</g>
<g>
</g>
<g>
</g>
</svg>
