<?xml version="1.0" encoding="iso-8859-1"?>
<!-- Generator: Adobe Illustrator 19.0.0, SVG Export Plug-In . SVG Version: 6.00 Build 0)  -->
<svg version="1.1" id="Layer_1" xmlns="http://www.w3.org/2000/svg" xmlns:xlink="http://www.w3.org/1999/xlink" x="0px" y="0px"
	 viewBox="0 0 512 512" style="enable-background:new 0 0 512 512;" xml:space="preserve">
<path style="fill:#314E55;" d="M435.821,154.788c-0.405-1.702-9.763-40.395-25.442-61.889v-37.22
	C410.379,24.973,385.378,0,354.654,0h-61.034c-30.724,0-55.724,24.955-55.724,55.632v30.991
	c-13.002,11.576-59.626,55.108-74.569,96.331c-9.303,25.654-13.673,46.707-17.188,63.61c-2.761,13.25-5.134,24.697-9.054,34.432
	c-4.923,12.247-2.54,24.025,6.524,32.316c9.781,8.953,26.307,12.33,36.042,7.352c8.3-4.242,19.296-18.053,27.098-32.582
	l4.757,171.811c0.028,0.865,0.166,1.721,0.423,2.54c3.175,10.223,13.471,27.531,31.902,27.531c21.449,0,33.144-18.974,33.144-28.727
	c0-2.457,0.304-53.166,0.552-95.208c5.401,3.552,12.643,6.34,22.065,6.34c17.418,0,26.399-12.045,29.297-22.277
	c5.089,3.497,11.907,5.972,20.823,5.972c20.243,0,33.328-15.293,33.328-38.968c0-1.113,0.074-2.512,0.212-4.132
	c4.352,5.171,10.103,8.732,17.704,8.732c21.007,0,35.122-14.456,35.122-35.978V156.978
	C436.078,156.242,435.996,155.506,435.821,154.788z"/>
<path style="fill:#E9E7D1;" d="M417.234,285.716c0,7.812-2.825,17.133-16.278,17.133c-5.033,0-10.701-15.946-12.036-29.15
	c-0.469-4.665-4.297-8.272-8.981-8.466c-4.408-0.423-8.788,3.055-9.652,7.665c-0.626,3.322-6.091,32.785-6.091,44.195
	c0,9.183-2.512,20.124-14.483,20.124c-10.039,0-13.388-5.337-14.373-7.729l0.58-24.467c0.11-4.96-3.644-9.165-8.594-9.606
	c-4.914-0.46-9.386,3.037-10.14,7.95l-5.99,38.978c-0.138,1.868-1.334,11.18-11.603,11.18c-10.729,0-15.928-6.414-17.593-9.036
	l-4.196-35.683c-0.58-4.96-4.951-8.741-9.882-8.309c-4.969,0.276-8.87,4.371-8.898,9.349c0,0-0.893,147.16-0.847,150.712
	c-0.018,0.11-3.45,10.563-14.345,10.563c-7.61,0-12.229-10.02-13.526-13.269l-6.349-229.099c-0.101-3.57-2.208-6.781-5.447-8.29
	c-3.248-1.509-7.048-1.049-9.846,1.178c-6.156,4.904-7.242,13.029-8.622,23.317c-0.727,5.392-1.546,11.502-3.175,17.943
	c-4.003,15.836-19.443,37.735-25.718,40.947c-2.144,0.865-10.527-0.129-15.21-4.812c-1.923-1.923-3.819-4.904-1.371-11.005
	c4.546-11.29,7.085-23.492,10.02-37.625c3.57-17.17,7.61-36.631,16.462-61.024c15.339-42.345,71.809-90.828,72.379-91.316
	c2.098-1.785,3.312-4.408,3.312-7.168v-35.26c0-20.289,16.545-36.788,36.88-36.788h61.034c20.335,0,36.88,16.526,36.88,36.834
	v40.422c0,2.172,0.754,4.279,2.125,5.962c12.919,15.799,21.964,49.716,23.574,56.074V285.716z"/>
<g>
	<path style="fill:#314E55;" d="M188.512,415.964c-3.681-3.681-9.643-3.681-13.324,0l-39.971,39.981
		c-3.681,3.681-3.681,9.643,0,13.324l39.971,39.971c1.84,1.84,4.251,2.761,6.662,2.761s4.822-0.92,6.662-2.761
		c3.681-3.681,3.681-9.643,0-13.324l-33.309-33.309l33.309-33.319C192.192,425.607,192.192,419.644,188.512,415.964z"/>
	<path style="fill:#314E55;" d="M98.668,462.606l33.309-33.319c3.681-3.681,3.681-9.643,0-13.324c-3.681-3.681-9.643-3.681-13.324,0
		l-39.971,39.98c-3.681,3.681-3.681,9.643,0,13.324l39.971,39.971c1.84,1.84,4.251,2.761,6.662,2.761s4.822-0.92,6.662-2.761
		c3.681-3.681,3.681-9.643,0-13.324L98.668,462.606z"/>
	<path style="fill:#314E55;" d="M367.536,415.964c-3.681-3.681-9.643-3.681-13.324,0c-3.681,3.681-3.681,9.643,0,13.324
		l33.319,33.319l-33.319,33.309c-3.681,3.681-3.681,9.643,0,13.324c1.84,1.84,4.251,2.761,6.662,2.761s4.822-0.92,6.662-2.761
		l39.981-39.971c1.767-1.767,2.761-4.159,2.761-6.662s-0.994-4.895-2.761-6.662L367.536,415.964z"/>
	<path style="fill:#314E55;" d="M350.983,455.944l-39.981-39.981c-3.681-3.681-9.643-3.681-13.324,0
		c-3.681,3.681-3.681,9.643,0,13.324l33.319,33.319l-33.319,33.309c-3.681,3.681-3.681,9.643,0,13.324
		c1.84,1.84,4.251,2.761,6.662,2.761s4.822-0.92,6.662-2.761l39.981-39.971c1.767-1.767,2.761-4.159,2.761-6.662
		S352.749,457.711,350.983,455.944z"/>
</g>
<g>
</g>
<g>
</g>
<g>
</g>
<g>
</g>
<g>
</g>
<g>
</g>
<g>
</g>
<g>
</g>
<g>
</g>
<g>
</g>
<g>
</g>
<g>
</g>
<g>
</g>
<g>
</g>
<g>
</g>
</svg>
