<?xml version="1.0" encoding="iso-8859-1"?>
<!-- Generator: Adobe Illustrator 19.0.0, SVG Export Plug-In . SVG Version: 6.00 Build 0)  -->
<svg version="1.1" id="Layer_1" xmlns="http://www.w3.org/2000/svg" xmlns:xlink="http://www.w3.org/1999/xlink" x="0px" y="0px"
	 viewBox="0 0 512 512" style="enable-background:new 0 0 512 512;" xml:space="preserve">
<path style="fill:#314E55;" d="M400.756,189.726c-7.609,0-13.371,3.567-17.731,8.748c-0.134-1.622-0.212-3.023-0.212-4.139
	c0-23.718-13.103-39.048-33.388-39.048c-8.978,0-15.832,2.489-20.934,6.01c-3.065-10.601-12.062-22.345-29.281-22.345
	c-9.435,0-16.689,2.793-22.1,6.351c-0.253-42.118-0.553-92.909-0.553-95.37c0-9.771-11.721-28.779-33.203-28.779
	c-18.469,0-28.784,17.339-31.964,27.581c-0.253,0.83-0.396,1.678-0.419,2.544L206.199,223.4
	c-7.812-14.565-18.833-28.401-27.156-32.641c-9.748-4.978-26.285-1.604-36.107,7.374c-9.075,8.296-11.458,20.095-6.526,32.355
	c3.927,9.762,6.31,21.22,9.071,34.503c3.521,16.934,7.9,38.015,17.224,63.715c14.961,41.297,61.674,84.908,74.699,96.504v31.046
	c0,30.733,25.046,55.742,55.829,55.742h61.139c30.784,0,55.825-25.027,55.825-55.788v-37.287
	c15.698-21.524,25.078-60.286,25.488-61.992c0.171-0.719,0.258-1.457,0.258-2.194V225.76
	C435.942,204.208,421.801,189.726,400.756,189.726z"/>
<path style="fill:#E9E7D1;" d="M417.063,353.578c-1.618,6.37-10.679,40.338-23.617,56.166c-1.378,1.687-2.129,3.798-2.129,5.973
	v40.495c0,20.354-16.574,36.909-36.946,36.909h-61.139c-20.377,0-36.951-16.537-36.951-36.863v-35.324
	c0-2.766-1.212-5.393-3.318-7.181c-0.567-0.488-57.138-49.059-72.514-91.48c-8.859-24.437-12.91-43.924-16.486-61.125
	c-2.945-14.159-5.485-26.391-10.038-37.702c-2.452-6.102-0.558-9.089,1.364-11.016c3.733-3.733,9.799-5.125,13.177-5.125
	c0.876,0,1.576,0.101,2,0.267c6.365,3.245,21.824,25.184,25.829,41.048c1.627,6.444,2.452,12.564,3.176,17.966
	c1.387,10.315,2.484,18.464,8.66,23.377c2.798,2.212,6.614,2.682,9.859,1.161c3.24-1.512,5.351-4.72,5.448-8.296l6.36-229.493
	c1.318-3.309,5.941-13.302,13.555-13.302c10.946,0,14.394,10.251,14.325,9.909c0,4.489,0.89,151.647,0.89,151.647
	c0.032,4.987,3.936,9.089,8.918,9.366c4.807,0.396,9.315-3.365,9.896-8.324l4.194-35.72c1.659-2.553,6.96-9.08,17.634-9.08
	c9.532,0,11.306,7.9,11.707,11.965l5.923,38.292c0.761,4.913,5.217,8.379,10.163,7.955c4.959-0.442,8.72-4.655,8.6-9.624
	l-0.581-24.502c1.009-2.433,4.369-7.753,14.403-7.753c11.993,0,14.509,10.969,14.509,20.169c0,11.421,5.471,40.947,6.093,44.274
	c0.862,4.609,5.024,8.149,9.674,7.679c4.687-0.193,8.522-3.807,8.997-8.481c1.341-13.228,7.02-29.203,12.057-29.203
	c13.477,0,16.307,9.329,16.307,17.155L417.063,353.578L417.063,353.578z"/>
<path style="fill:#314E55;" d="M132.219,82.861l-23.936-23.939h73.898c5.213,0,9.439-4.222,9.439-9.439s-4.226-9.439-9.439-9.439
	h-73.896l23.934-23.93c3.687-3.687,3.687-9.661,0-13.348c-3.687-3.687-9.661-3.687-13.348,0L78.824,42.809
	c-1.77,1.77-2.765,4.167-2.765,6.674s0.996,4.904,2.765,6.674l40.048,40.053c1.843,1.843,4.259,2.765,6.674,2.765
	s4.83-0.922,6.674-2.765C135.907,92.522,135.907,86.549,132.219,82.861z"/>
<g>
</g>
<g>
</g>
<g>
</g>
<g>
</g>
<g>
</g>
<g>
</g>
<g>
</g>
<g>
</g>
<g>
</g>
<g>
</g>
<g>
</g>
<g>
</g>
<g>
</g>
<g>
</g>
<g>
</g>
</svg>
