<?xml version="1.0" encoding="iso-8859-1"?>
<!-- Generator: Adobe Illustrator 19.0.0, SVG Export Plug-In . SVG Version: 6.00 Build 0)  -->
<svg version="1.1" id="Layer_1" xmlns="http://www.w3.org/2000/svg" xmlns:xlink="http://www.w3.org/1999/xlink" x="0px" y="0px"
	 viewBox="0 0 512 512" style="enable-background:new 0 0 512 512;" xml:space="preserve">
<g>
	<path style="fill:#314E55;" d="M483.077,246.117c-5.462,0-9.883,4.42-9.883,9.883c0,119.887-97.535,217.421-217.421,217.421
		c-85.1,0-161.129-48.86-196.855-125.287l51.335,22.85c4.999,2.268,10.838-0.019,13.039-5.009c2.22-4.98-0.019-10.819-5.009-13.039
		l-72.229-32.158c-4.97-2.249-10.829,0.019-13.039,5.009L0.857,398.017c-2.22,4.98,0.019,10.819,5.009,13.039
		c1.303,0.589,2.664,0.859,4.005,0.859c3.793,0,7.402-2.181,9.034-5.868l22.092-49.609
		c38.958,83.408,121.914,136.749,214.776,136.749c130.783,0,237.187-106.404,237.187-237.187
		C492.96,250.538,488.54,246.117,483.077,246.117z"/>
	<path style="fill:#314E55;" d="M506.134,100.529c-4.97-2.249-10.829,0.019-13.039,5.009l-22.396,50.29
		C431.808,72.206,348.909,18.813,255.773,18.813C124.99,18.813,18.586,125.217,18.586,256c0,5.462,4.42,9.883,9.883,9.883
		s9.883-4.42,9.883-9.883c0-119.887,97.535-217.421,217.421-217.421c84.989,0,160.691,48.487,196.546,124.531l-50.553-22.508
		c-5.009-2.258-10.838,0.019-13.048,4.999c-2.22,4.99,0.019,10.829,4.999,13.048l72.22,32.158c1.284,0.569,2.654,0.859,4.025,0.859
		c1.197,0,2.403-0.222,3.542-0.656c2.451-0.936,4.42-2.808,5.482-5.212l32.158-72.229
		C513.362,108.588,511.123,102.749,506.134,100.529z"/>
	<path style="fill:#314E55;" d="M354.601,256c0-54.49-44.337-98.828-98.828-98.828S156.945,201.51,156.945,256
		s44.337,98.828,98.828,98.828S354.601,310.49,354.601,256z"/>
</g>
<path style="fill:#E4AD40;" d="M176.711,256c0-43.594,35.468-79.062,79.062-79.062s79.062,35.468,79.062,79.062
	s-35.468,79.062-79.062,79.062S176.711,299.594,176.711,256z"/>
<g>
	<path style="fill:#314E55;" d="M262.789,322.313c1.872-1.882,2.866-4.353,2.866-7.016c0-1.284-0.299-2.567-0.791-3.754
		s-1.187-2.278-2.075-3.262c-2.374-2.278-5.733-3.359-8.995-2.673c-0.589,0.106-1.187,0.299-1.776,0.598
		c-0.598,0.193-1.187,0.492-1.786,0.888c-0.492,0.299-0.984,0.791-1.477,1.187c-0.888,0.984-1.583,2.075-2.075,3.262
		c-0.492,1.187-0.791,2.471-0.791,3.754c0,2.664,0.984,5.134,2.867,7.016c1.872,1.872,4.343,2.867,7.016,2.867
		C258.437,325.179,260.908,324.185,262.789,322.313z"/>
	<path style="fill:#314E55;" d="M255.773,295.531c5.462,0,9.883-4.42,9.883-9.883v-79.062c0-5.462-4.42-9.883-9.883-9.883
		c-5.462,0-9.883,4.42-9.883,9.883v79.062C245.89,291.111,250.31,295.531,255.773,295.531z"/>
</g>
<g>
</g>
<g>
</g>
<g>
</g>
<g>
</g>
<g>
</g>
<g>
</g>
<g>
</g>
<g>
</g>
<g>
</g>
<g>
</g>
<g>
</g>
<g>
</g>
<g>
</g>
<g>
</g>
<g>
</g>
</svg>
