<?xml version="1.0" encoding="iso-8859-1"?>
<!-- Generator: Adobe Illustrator 19.0.0, SVG Export Plug-In . SVG Version: 6.00 Build 0)  -->
<svg version="1.1" id="Layer_1" xmlns="http://www.w3.org/2000/svg" xmlns:xlink="http://www.w3.org/1999/xlink" x="0px" y="0px"
	 viewBox="0 0 512 512" style="enable-background:new 0 0 512 512;" xml:space="preserve">
<g>
	<path style="fill:#314E55;" d="M483.069,246.117c-5.458,0-9.883,4.42-9.883,9.883c0,119.884-97.532,217.416-217.416,217.416
		c-85.103,0-161.125-48.858-196.85-125.283l51.328,22.848c4.999,2.249,10.824-0.01,13.048-5.009
		c2.22-4.98-0.024-10.819-5.009-13.038l-72.227-32.157c-4.989-2.258-10.828,0.019-13.048,5.009L0.856,398.013
		c-2.22,4.98,0.024,10.819,5.009,13.038c1.308,0.589,2.673,0.859,4.015,0.859c3.783,0,7.393-2.181,9.033-5.868L41,356.438
		c38.949,83.404,121.908,136.743,214.771,136.743c130.78,0,237.181-106.401,237.181-237.181
		C492.952,250.538,488.527,246.117,483.069,246.117z"/>
	<path style="fill:#314E55;" d="M506.135,100.533c-4.989-2.239-10.828,0.019-13.048,5.009l-22.395,50.298
		C431.807,72.215,348.912,18.819,255.771,18.819C124.991,18.819,18.59,125.22,18.59,256c0,5.462,4.425,9.883,9.883,9.883
		s9.883-4.42,9.883-9.883c0-119.884,97.532-217.416,217.416-217.416c84.985,0,160.684,48.484,196.535,124.524l-50.555-22.504
		c-4.999-2.258-10.824,0.019-13.048,5.009c-2.22,4.98,0.024,10.819,5.009,13.038l72.228,32.157c1.308,0.589,2.673,0.859,4.015,0.859
		c3.783,0,7.393-2.181,9.033-5.868l32.157-72.227C513.363,108.592,511.119,102.753,506.135,100.533z"/>
	<path style="fill:#314E55;" d="M354.596,256c0-54.489-44.332-98.825-98.825-98.825S156.945,201.511,156.945,256
		s44.332,98.825,98.825,98.825S354.596,310.489,354.596,256z"/>
</g>
<path style="fill:#E65F58;" d="M176.71,256c0-43.593,35.467-79.06,79.06-79.06s79.06,35.467,79.06,79.06s-35.467,79.06-79.06,79.06
	S176.71,299.593,176.71,256z"/>
<path style="fill:#314E55;" d="M278.431,292.635c1.93,1.93,4.459,2.895,6.987,2.895c2.528,0,5.057-0.965,6.987-2.895
	c3.86-3.86,3.86-10.114,0-13.974L269.745,256l22.66-22.66c3.86-3.86,3.86-10.114,0-13.974c-3.86-3.86-10.114-3.86-13.974,0
	l-22.66,22.66l-22.66-22.66c-3.86-3.86-10.114-3.86-13.974,0c-3.86,3.86-3.86,10.114,0,13.974l22.66,22.66l-22.66,22.66
	c-3.86,3.86-3.86,10.114,0,13.974c1.93,1.93,4.459,2.895,6.987,2.895c2.528,0,5.057-0.965,6.987-2.895l22.66-22.66L278.431,292.635z
	"/>
<g>
</g>
<g>
</g>
<g>
</g>
<g>
</g>
<g>
</g>
<g>
</g>
<g>
</g>
<g>
</g>
<g>
</g>
<g>
</g>
<g>
</g>
<g>
</g>
<g>
</g>
<g>
</g>
<g>
</g>
</svg>
