<?xml version="1.0" encoding="iso-8859-1"?>
<!-- Generator: Adobe Illustrator 19.0.0, SVG Export Plug-In . SVG Version: 6.00 Build 0)  -->
<svg version="1.1" id="Layer_1" xmlns="http://www.w3.org/2000/svg" xmlns:xlink="http://www.w3.org/1999/xlink" x="0px" y="0px"
	 viewBox="0 0 512 512" style="enable-background:new 0 0 512 512;" xml:space="preserve">
<g>
	<path style="fill:#314E55;" d="M483.077,246.117c-5.462,0-9.883,4.42-9.883,9.883c0,119.887-97.535,217.421-217.421,217.421
		c-85.1,0-161.129-48.86-196.855-125.287l51.335,22.85c4.99,2.268,10.838-0.01,13.039-5.009c2.22-4.98-0.019-10.819-5.009-13.039
		l-72.229-32.158c-4.99-2.249-10.829,0.019-13.039,5.009L0.857,398.017c-2.22,4.98,0.019,10.819,5.009,13.039
		c1.303,0.589,2.664,0.859,4.005,0.859c3.793,0,7.402-2.181,9.034-5.868l22.092-49.609
		c38.958,83.408,121.914,136.749,214.776,136.749c130.783,0,237.187-106.404,237.187-237.187
		C492.96,250.538,488.54,246.117,483.077,246.117z"/>
	<path style="fill:#314E55;" d="M506.134,100.529c-4.98-2.249-10.829,0.019-13.039,5.009l-22.396,50.29
		C431.808,72.206,348.918,18.813,255.773,18.813C124.99,18.813,18.586,125.217,18.586,256c0,5.462,4.42,9.883,9.883,9.883
		s9.883-4.42,9.883-9.883c0-119.887,97.535-217.421,217.421-217.421c84.989,0,160.699,48.487,196.547,124.531l-50.554-22.509
		c-5.009-2.258-10.838,0.019-13.048,4.999c-2.22,4.99,0.019,10.829,4.999,13.048l72.22,32.158c1.284,0.569,2.654,0.859,4.025,0.859
		c1.197,0,2.403-0.222,3.542-0.656c2.451-0.936,4.42-2.808,5.482-5.212l32.158-72.229
		C513.362,108.588,511.123,102.749,506.134,100.529z"/>
	<path style="fill:#314E55;" d="M354.601,256c0-54.49-44.337-98.828-98.828-98.828S156.945,201.51,156.945,256
		s44.337,98.828,98.828,98.828S354.601,310.49,354.601,256z"/>
</g>
<path style="fill:#D8D8D8;" d="M176.711,256c0-43.594,35.468-79.062,79.062-79.062s79.062,35.468,79.062,79.062
	s-35.468,79.062-79.062,79.062S176.711,299.594,176.711,256z"/>
<path style="fill:#314E55;" d="M255.773,296.178c0,5.462,4.42,9.883,9.883,9.883s9.883-4.42,9.883-9.883v-79.062
	c0-3.281-1.631-6.341-4.343-8.184c-2.731-1.843-6.196-2.22-9.207-0.994l-24.707,9.883c-5.067,2.027-7.538,7.779-5.511,12.846
	c2.027,5.086,7.818,7.528,12.846,5.511l11.157-4.469L255.773,296.178L255.773,296.178z"/>
<g>
</g>
<g>
</g>
<g>
</g>
<g>
</g>
<g>
</g>
<g>
</g>
<g>
</g>
<g>
</g>
<g>
</g>
<g>
</g>
<g>
</g>
<g>
</g>
<g>
</g>
<g>
</g>
<g>
</g>
</svg>
