<?xml version="1.0" encoding="iso-8859-1"?>
<!-- Generator: Adobe Illustrator 19.0.0, SVG Export Plug-In . SVG Version: 6.00 Build 0)  -->
<svg version="1.1" id="Layer_1" xmlns="http://www.w3.org/2000/svg" xmlns:xlink="http://www.w3.org/1999/xlink" x="0px" y="0px"
	 viewBox="0 0 512 512" style="enable-background:new 0 0 512 512;" xml:space="preserve">
<g>
	<path style="fill:#314E55;" d="M483.077,246.117c-5.462,0-9.883,4.42-9.883,9.883c0,119.887-97.535,217.421-217.421,217.421
		c-85.1,0-161.129-48.86-196.855-125.287l51.335,22.85c4.999,2.268,10.838-0.01,13.039-5.009c2.22-4.98-0.019-10.819-5.009-13.039
		l-72.229-32.158c-4.98-2.249-10.829,0.019-13.039,5.009L0.857,398.017c-2.22,4.98,0.019,10.819,5.009,13.039
		c1.303,0.589,2.664,0.859,4.005,0.859c3.793,0,7.402-2.181,9.034-5.868l22.092-49.609
		c38.958,83.408,121.914,136.749,214.776,136.749c130.783,0,237.187-106.404,237.187-237.187
		C492.96,250.538,488.54,246.117,483.077,246.117z"/>
	<path style="fill:#314E55;" d="M506.134,100.529c-4.97-2.249-10.829,0.019-13.039,5.009l-22.396,50.29
		C431.808,72.206,348.918,18.813,255.773,18.813C124.99,18.813,18.586,125.217,18.586,256c0,5.462,4.42,9.883,9.883,9.883
		s9.883-4.42,9.883-9.883c0-119.887,97.535-217.421,217.421-217.421c84.989,0,160.699,48.487,196.547,124.531l-50.554-22.509
		c-5.009-2.258-10.838,0.019-13.048,4.999c-2.22,4.99,0.019,10.829,4.999,13.048l72.22,32.158c1.284,0.569,2.654,0.859,4.025,0.859
		c1.197,0,2.403-0.222,3.542-0.656c2.451-0.936,4.42-2.808,5.482-5.212l32.158-72.229
		C513.362,108.588,511.123,102.749,506.134,100.529z"/>
	<path style="fill:#314E55;" d="M354.601,256c0-54.49-44.337-98.828-98.828-98.828S156.945,201.51,156.945,256
		s44.337,98.828,98.828,98.828S354.601,310.49,354.601,256z"/>
</g>
<path style="fill:#D8D8D8;" d="M176.711,256c0-43.594,35.468-79.062,79.062-79.062s79.062,35.468,79.062,79.062
	s-35.468,79.062-79.062,79.062S176.711,299.594,176.711,256z"/>
<path style="fill:#314E55;" d="M295.536,274.762c0-4.964-1.277-11.6-6.776-17.022c5.287-5.375,6.544-11.878,6.544-16.766
	c0-18.607-17.729-33.74-39.531-33.74c-10.153,0-19.804,3.252-27.158,9.169c-4.247,3.416-4.922,9.641-1.506,13.898
	c3.407,4.237,9.622,4.922,13.898,1.506c3.793-3.05,9.178-4.806,14.766-4.806c10.713,0,19.766,6.399,19.766,13.975
	c0,4.633-6.65,6.987-19.766,6.987h-14.824c-5.462,0-9.883,4.42-9.883,9.883c0,4.178,2.603,7.705,6.263,9.152
	c1.183,0.501,2.485,0.779,3.851,0.779h14.824c13.116,0,19.766,2.355,19.766,6.987c0,7.576-9.053,13.975-19.766,13.975
	c-5.598,0-10.973-1.747-14.766-4.797c-4.256-3.445-10.472-2.751-13.888,1.496c-3.426,4.247-2.76,10.472,1.496,13.888
	c7.335,5.916,16.986,9.178,27.158,9.178C277.807,308.502,295.536,293.369,295.536,274.762z"/>
<g>
</g>
<g>
</g>
<g>
</g>
<g>
</g>
<g>
</g>
<g>
</g>
<g>
</g>
<g>
</g>
<g>
</g>
<g>
</g>
<g>
</g>
<g>
</g>
<g>
</g>
<g>
</g>
<g>
</g>
</svg>
