<?xml version="1.0" encoding="iso-8859-1"?>
<!-- Generator: Adobe Illustrator 19.0.0, SVG Export Plug-In . SVG Version: 6.00 Build 0)  -->
<svg version="1.1" id="Layer_1" xmlns="http://www.w3.org/2000/svg" xmlns:xlink="http://www.w3.org/1999/xlink" x="0px" y="0px"
	 viewBox="0 0 512 512" style="enable-background:new 0 0 512 512;" xml:space="preserve">
<g>
	<path style="fill:#314E55;" d="M483.069,246.117c-5.458,0-9.883,4.42-9.883,9.883c0,119.884-97.532,217.416-217.416,217.416
		c-85.103,0-161.125-48.858-196.85-125.283l51.328,22.848c4.985,2.249,10.828-0.01,13.048-5.009
		c2.22-4.98-0.024-10.819-5.009-13.038l-72.227-32.157c-5.004-2.258-10.824,0.019-13.048,5.009L0.856,398.013
		c-2.22,4.98,0.024,10.819,5.009,13.038c1.308,0.589,2.673,0.859,4.015,0.859c3.783,0,7.393-2.181,9.033-5.868L41,356.438
		c38.949,83.404,121.908,136.743,214.771,136.743c130.78,0,237.181-106.401,237.181-237.181
		C492.952,250.538,488.527,246.117,483.069,246.117z"/>
	<path style="fill:#314E55;" d="M506.135,100.533c-5.004-2.239-10.828,0.019-13.048,5.009l-22.395,50.298
		C431.807,72.215,348.912,18.819,255.771,18.819C124.991,18.819,18.59,125.22,18.59,256c0,5.462,4.425,9.883,9.883,9.883
		s9.883-4.42,9.883-9.883c0-119.884,97.532-217.416,217.416-217.416c84.985,0,160.684,48.484,196.535,124.524l-50.555-22.504
		c-4.989-2.258-10.828,0.019-13.048,5.009c-2.22,4.98,0.024,10.819,5.009,13.038l72.228,32.157c1.308,0.589,2.673,0.859,4.015,0.859
		c3.783,0,7.393-2.181,9.033-5.868l32.157-72.227C513.363,108.592,511.119,102.753,506.135,100.533z"/>
	<path style="fill:#314E55;" d="M354.596,256c0-54.489-44.332-98.825-98.825-98.825S156.945,201.511,156.945,256
		s44.332,98.825,98.825,98.825S354.596,310.489,354.596,256z"/>
</g>
<path style="fill:#F28544;" d="M176.71,256c0-43.593,35.467-79.06,79.06-79.06s79.06,35.467,79.06,79.06s-35.467,79.06-79.06,79.06
	S176.71,299.593,176.71,256z"/>
<g>
	<path style="fill:#314E55;" d="M275.536,236.235c0,1.959-1.013,3.185-6.379,7.692c-7.88,6.621-19.784,16.638-23.167,40.321
		c-0.772,5.405,2.982,10.413,8.382,11.185c0.478,0.067,0.946,0.097,1.414,0.097c4.835,0,9.062-3.552,9.767-8.483
		c2.316-16.214,9.439-22.207,16.324-27.988c5.979-5.038,13.424-11.292,13.424-22.824c0-21.801-17.733-39.53-39.53-39.53
		s-39.53,17.729-39.53,39.53c0,5.462,4.425,9.883,9.883,9.883c5.458,0,9.883-4.42,9.883-9.883c0-10.896,8.864-19.765,19.765-19.765
		S275.536,225.339,275.536,236.235z"/>
	<path style="fill:#314E55;" d="M262.787,322.311c0.888-0.994,1.578-2.075,2.075-3.262c0.593-1.187,0.791-2.471,0.791-3.754
		c0-2.567-1.091-5.144-2.866-7.016c-0.497-0.396-0.989-0.888-1.481-1.187c-0.593-0.396-1.187-0.695-1.781-0.888
		c-0.593-0.299-1.187-0.492-1.781-0.598c-1.974-0.396-3.952-0.193-5.733,0.598c-1.283,0.492-2.273,1.187-3.257,2.075
		c-1.781,1.872-2.866,4.449-2.866,7.016c0,1.284,0.294,2.567,0.787,3.754c0.497,1.187,1.187,2.268,2.08,3.262
		c0.984,0.888,2.075,1.583,3.257,2.075c1.187,0.492,2.471,0.791,3.759,0.791C258.439,325.178,260.91,324.184,262.787,322.311z"/>
</g>
<g>
</g>
<g>
</g>
<g>
</g>
<g>
</g>
<g>
</g>
<g>
</g>
<g>
</g>
<g>
</g>
<g>
</g>
<g>
</g>
<g>
</g>
<g>
</g>
<g>
</g>
<g>
</g>
<g>
</g>
</svg>
