<?xml version="1.0" encoding="iso-8859-1"?>
<!-- Generator: Adobe Illustrator 19.0.0, SVG Export Plug-In . SVG Version: 6.00 Build 0)  -->
<svg version="1.1" id="Layer_1" xmlns="http://www.w3.org/2000/svg" xmlns:xlink="http://www.w3.org/1999/xlink" x="0px" y="0px"
	 viewBox="0 0 512 512" style="enable-background:new 0 0 512 512;" xml:space="preserve">
<g>
	<path style="fill:#314E55;" d="M343.107,420.106H90.497V97.436l58.206,58.206c1.701,1.701,3.93,2.552,6.159,2.552
		c2.229,0,4.457-0.851,6.159-2.552c3.403-3.403,3.403-8.915,0-12.317L87.945,70.249c-3.403-3.403-8.915-3.403-12.317,0
		L2.552,143.324c-3.403,3.403-3.403,8.915,0,12.317c3.403,3.402,8.915,3.403,12.317,0l58.206-58.206v331.381
		c0,4.81,3.9,8.711,8.711,8.711h261.321c4.81,0,8.711-3.9,8.711-8.711S347.917,420.106,343.107,420.106z"/>
	<path style="fill:#314E55;" d="M509.448,356.358c-3.403-3.403-8.915-3.403-12.317,0l-58.206,58.206V80.389
		c0-4.81-3.9-8.711-8.711-8.711H168.893c-4.81,0-8.711,3.9-8.711,8.711c0,4.81,3.9,8.711,8.711,8.711h252.61v325.464l-58.206-58.206
		c-3.403-3.403-8.915-3.403-12.317,0c-3.402,3.403-3.403,8.915,0,12.317l73.075,73.075c1.701,1.701,3.93,2.552,6.159,2.552
		s4.457-0.851,6.159-2.552l73.075-73.075C512.851,365.273,512.851,359.761,509.448,356.358z"/>
</g>
<g>
</g>
<g>
</g>
<g>
</g>
<g>
</g>
<g>
</g>
<g>
</g>
<g>
</g>
<g>
</g>
<g>
</g>
<g>
</g>
<g>
</g>
<g>
</g>
<g>
</g>
<g>
</g>
<g>
</g>
</svg>
