<?xml version="1.0" encoding="iso-8859-1"?>
<!-- Generator: Adobe Illustrator 19.0.0, SVG Export Plug-In . SVG Version: 6.00 Build 0)  -->
<svg version="1.1" id="Layer_1" xmlns="http://www.w3.org/2000/svg" xmlns:xlink="http://www.w3.org/1999/xlink" x="0px" y="0px"
	 viewBox="0 0 512 512" style="enable-background:new 0 0 512 512;" xml:space="preserve">
<path style="fill:#314E55;" d="M243.333,0.542c-4.375-1.453-9.177,0.083-11.906,3.792L50.096,249.664
	c-2.792,3.766-2.792,8.911,0,12.677l181.331,245.331c2.042,2.776,5.25,4.328,8.573,4.328c1.115,0,2.239-0.172,3.333-0.537
	c4.375-1.443,7.333-5.526,7.333-10.13V10.672C250.667,6.068,247.708,1.985,243.333,0.542z"/>
<polygon style="fill:#E4AD40;" points="229.334,468.959 71.929,256.003 229.334,43.047 "/>
<path style="fill:#314E55;" d="M456.664,0.542c-4.375-1.453-9.177,0.083-11.906,3.792L263.427,249.664
	c-2.792,3.766-2.792,8.911,0,12.677l181.331,245.331c2.042,2.776,5.25,4.328,8.573,4.328c1.115,0,2.239-0.172,3.333-0.537
	c4.375-1.443,7.333-5.526,7.333-10.13V10.672C463.998,6.068,461.039,1.985,456.664,0.542z"/>
<polygon style="fill:#E4AD40;" points="442.665,468.959 285.26,256.003 442.665,43.047 "/>
<g>
</g>
<g>
</g>
<g>
</g>
<g>
</g>
<g>
</g>
<g>
</g>
<g>
</g>
<g>
</g>
<g>
</g>
<g>
</g>
<g>
</g>
<g>
</g>
<g>
</g>
<g>
</g>
<g>
</g>
</svg>
