<?xml version="1.0" encoding="iso-8859-1"?>
<!-- Generator: Adobe Illustrator 19.0.0, SVG Export Plug-In . SVG Version: 6.00 Build 0)  -->
<svg version="1.1" id="Layer_1" xmlns="http://www.w3.org/2000/svg" xmlns:xlink="http://www.w3.org/1999/xlink" x="0px" y="0px"
	 viewBox="0 0 512 512" style="enable-background:new 0 0 512 512;" xml:space="preserve">
<path style="fill:#314E55;" d="M395.035,247.459L217.402,7.133c-2.689-3.638-7.408-5.143-11.674-3.714
	c-4.286,1.413-7.178,5.413-7.178,9.923v480.653c0,4.51,2.893,8.51,7.178,9.923c1.077,0.357,2.179,0.526,3.271,0.526
	c3.25,0,6.393-1.52,8.403-4.24l177.633-240.327C397.765,256.189,397.765,251.148,395.035,247.459z"/>
<polygon style="fill:#EA86A5;" points="219.448,462.281 219.448,45.056 373.637,253.668 "/>
<path style="fill:#314E55;" d="M167.163,0h-41.796c-5.77,0-10.449,4.679-10.449,10.449v491.102c0,5.77,4.679,10.449,10.449,10.449
	h41.796c5.77,0,10.449-4.679,10.449-10.449V10.449C177.612,4.679,172.933,0,167.163,0z"/>
<rect x="135.816" y="20.898" style="fill:#D8D8D8;" width="20.898" height="470.204"/>
<g>
</g>
<g>
</g>
<g>
</g>
<g>
</g>
<g>
</g>
<g>
</g>
<g>
</g>
<g>
</g>
<g>
</g>
<g>
</g>
<g>
</g>
<g>
</g>
<g>
</g>
<g>
</g>
<g>
</g>
</svg>
