<?xml version="1.0" encoding="iso-8859-1"?>
<!-- Generator: Adobe Illustrator 19.0.0, SVG Export Plug-In . SVG Version: 6.00 Build 0)  -->
<svg version="1.1" id="Layer_1" xmlns="http://www.w3.org/2000/svg" xmlns:xlink="http://www.w3.org/1999/xlink" x="0px" y="0px"
	 viewBox="0 0 512 512" style="enable-background:new 0 0 512 512;" xml:space="preserve">
<path style="fill:#314E55;" d="M452.923,0H59.077C26.5,0,0,26.5,0,59.077v393.846C0,485.5,26.5,512,59.077,512h393.846
	C485.5,512,512,485.5,512,452.923V59.077C512,26.5,485.5,0,452.923,0z"/>
<path style="fill:#EAEAEA;" d="M492.308,452.923c0,21.716-17.663,39.385-39.385,39.385H59.077
	c-21.721,0-39.385-17.668-39.385-39.385V59.077c0-21.716,17.664-39.385,39.385-39.385h393.846c21.721,0,39.385,17.668,39.385,39.385
	V452.923z"/>
<path style="fill:#314E55;" d="M339.135,246.466L201.288,178.25c-3.039-1.514-6.654-1.337-9.558,0.462
	c-2.894,1.798-4.654,4.961-4.654,8.365V323.51c0,3.404,1.759,6.567,4.654,8.365c1.586,0.986,3.385,1.481,5.192,1.481
	c1.49,0,2.99-0.336,4.365-1.019l137.846-68.216c3.356-1.664,5.481-5.082,5.481-8.827C344.615,251.548,342.49,248.13,339.135,246.466
	z"/>
<polygon style="fill:#EA86A5;" points="206.769,307.649 206.769,202.938 312.567,255.293 "/>
<g>
</g>
<g>
</g>
<g>
</g>
<g>
</g>
<g>
</g>
<g>
</g>
<g>
</g>
<g>
</g>
<g>
</g>
<g>
</g>
<g>
</g>
<g>
</g>
<g>
</g>
<g>
</g>
<g>
</g>
</svg>
