<?xml version="1.0" encoding="iso-8859-1"?>
<!-- Generator: Adobe Illustrator 19.0.0, SVG Export Plug-In . SVG Version: 6.00 Build 0)  -->
<svg version="1.1" id="Layer_1" xmlns="http://www.w3.org/2000/svg" xmlns:xlink="http://www.w3.org/1999/xlink" x="0px" y="0px"
	 viewBox="0 0 512 512" style="enable-background:new 0 0 512 512;" xml:space="preserve">
<path style="fill:#314E55;" d="M507.56,247.56L343.72,134.92c-3.135-2.155-7.21-2.39-10.565-0.625
	c-3.37,1.775-5.475,5.26-5.475,9.065v102.4H0v20.48h327.68v102.4c0,3.805,2.105,7.29,5.475,9.065
	c1.495,0.785,3.13,1.175,4.765,1.175c2.035,0,4.06-0.605,5.8-1.8l163.84-112.64c2.78-1.91,4.44-5.07,4.44-8.44
	C512,252.63,510.34,249.47,507.56,247.56z"/>
<g>
	<polygon style="fill:#EA86A5;" points="348.16,162.825 468.791,245.76 348.16,245.76 	"/>
	<polygon style="fill:#EA86A5;" points="348.16,266.24 468.791,266.24 348.16,349.175 	"/>
</g>
<g>
</g>
<g>
</g>
<g>
</g>
<g>
</g>
<g>
</g>
<g>
</g>
<g>
</g>
<g>
</g>
<g>
</g>
<g>
</g>
<g>
</g>
<g>
</g>
<g>
</g>
<g>
</g>
<g>
</g>
</svg>
