<?xml version="1.0" encoding="iso-8859-1"?>
<!-- Generator: Adobe Illustrator 19.0.0, SVG Export Plug-In . SVG Version: 6.00 Build 0)  -->
<svg version="1.1" id="Layer_1" xmlns="http://www.w3.org/2000/svg" xmlns:xlink="http://www.w3.org/1999/xlink" x="0px" y="0px"
	 viewBox="0 0 512 512" style="enable-background:new 0 0 512 512;" xml:space="preserve">
<path style="fill:#314E55;" d="M508.509,261.527L399.53,167.408c-2.999-2.58-7.213-3.181-10.788-1.536
	c-3.589,1.64-5.889,5.224-5.889,9.168v84.606H20.168V148.722c0-5.569-4.515-10.084-10.084-10.084S0,143.153,0,148.722v131.092
	h382.853v83.464c0,3.944,2.299,7.528,5.889,9.168c1.339,0.615,2.772,0.916,4.195,0.916c2.373,0,4.722-0.837,6.593-2.452
	l108.979-94.119c2.216-1.915,3.491-4.702,3.491-7.632S510.725,263.442,508.509,261.527z"/>
<path style="fill:#E65F58;" d="M403.021,341.244v-69.832c0.1-0.567,0.34-1.086,0.34-1.681c0-0.596-0.24-1.114-0.34-1.682v-70.975
	l83.469,72.085L403.021,341.244z"/>
<g>
</g>
<g>
</g>
<g>
</g>
<g>
</g>
<g>
</g>
<g>
</g>
<g>
</g>
<g>
</g>
<g>
</g>
<g>
</g>
<g>
</g>
<g>
</g>
<g>
</g>
<g>
</g>
<g>
</g>
</svg>
