<?xml version="1.0" encoding="iso-8859-1"?>
<!-- Generator: Adobe Illustrator 19.0.0, SVG Export Plug-In . SVG Version: 6.00 Build 0)  -->
<svg version="1.1" id="Layer_1" xmlns="http://www.w3.org/2000/svg" xmlns:xlink="http://www.w3.org/1999/xlink" x="0px" y="0px"
	 viewBox="0 0 512 512" style="enable-background:new 0 0 512 512;" xml:space="preserve">
<path style="fill:#314E55;" d="M508.706,320.873L405.871,232.06c-2.83-2.444-6.811-3.001-10.18-1.45
	c-3.387,1.547-5.557,4.93-5.557,8.651v74.707H123.701c-57.715,0-104.67-46.955-104.67-104.67s46.955-104.67,104.67-104.67h85.639
	V85.597h-95.155v0.482C50.418,90.968,0,144.299,0,209.298s50.418,118.33,114.186,123.219V333h275.949v83.888
	c0,3.722,2.17,7.104,5.557,8.651c1.264,0.581,2.616,0.864,3.959,0.864c2.239,0,4.456-0.79,6.221-2.314l102.835-88.813
	c2.091-1.807,3.294-4.437,3.294-7.202C512,325.31,510.797,322.68,508.706,320.873z"/>
<polygon style="fill:#EA86A5;" points="409.165,396.095 409.165,260.054 487.928,328.075 "/>
<g>
</g>
<g>
</g>
<g>
</g>
<g>
</g>
<g>
</g>
<g>
</g>
<g>
</g>
<g>
</g>
<g>
</g>
<g>
</g>
<g>
</g>
<g>
</g>
<g>
</g>
<g>
</g>
<g>
</g>
</svg>
