<?xml version="1.0" encoding="iso-8859-1"?>
<!-- Generator: Adobe Illustrator 19.0.0, SVG Export Plug-In . SVG Version: 6.00 Build 0)  -->
<svg version="1.1" id="Layer_1" xmlns="http://www.w3.org/2000/svg" xmlns:xlink="http://www.w3.org/1999/xlink" x="0px" y="0px"
	 viewBox="0 0 512 512" style="enable-background:new 0 0 512 512;" xml:space="preserve">
<path style="fill:#314E55;" d="M508.49,248.466L291.875,66.312c-2.933-2.466-7.029-3.005-10.49-1.394
	c-3.471,1.62-5.692,5.101-5.692,8.928v83.553L27.616,198.75C12.125,201.331,0,215.653,0,231.355v49.284
	c0,15.697,12.125,30.024,27.616,32.61l248.077,41.346v83.558c0,3.827,2.221,7.308,5.692,8.928c1.327,0.615,2.74,0.918,4.154,0.918
	c2.279,0,4.529-0.788,6.336-2.313L508.49,263.533c2.221-1.87,3.51-4.625,3.51-7.534C512,253.091,510.712,250.336,508.49,248.466z"/>
<path style="fill:#EA86A5;" d="M295.385,417.009v-70.755c0-4.813-3.481-8.923-8.231-9.711L30.856,293.827
	c-5.952-0.995-11.164-7.154-11.164-13.187v-49.284c0-6.034,5.212-12.192,11.154-13.183l256.308-42.721
	c4.75-0.788,8.231-4.899,8.231-9.712V94.99L486.856,256L295.385,417.009z"/>
<g>
</g>
<g>
</g>
<g>
</g>
<g>
</g>
<g>
</g>
<g>
</g>
<g>
</g>
<g>
</g>
<g>
</g>
<g>
</g>
<g>
</g>
<g>
</g>
<g>
</g>
<g>
</g>
<g>
</g>
</svg>
