<?xml version="1.0" encoding="iso-8859-1"?>
<!-- Generator: Adobe Illustrator 19.0.0, SVG Export Plug-In . SVG Version: 6.00 Build 0)  -->
<svg version="1.1" id="Layer_1" xmlns="http://www.w3.org/2000/svg" xmlns:xlink="http://www.w3.org/1999/xlink" x="0px" y="0px"
	 viewBox="0 0 512 512" style="enable-background:new 0 0 512 512;" xml:space="preserve">
<path style="fill:#314E55;" d="M461.708,410.199l-84.583-84.588c-3.939-3.939-10.319-3.939-14.258,0
	c-3.938,3.939-3.939,10.319,0,14.258l67.372,67.376H138.085c-38.914,0-70.581-31.662-70.581-70.581s31.667-70.581,70.581-70.581
	h241.993v-0.594c45.308-5.036,80.664-43.529,80.664-90.153s-35.356-85.116-80.664-90.153v-0.594H82.884l67.372-67.376
	c3.939-3.939,3.939-10.319,0-14.258s-10.319-3.939-14.258,0L51.415,87.542c-3.939,3.939-3.939,10.319,0,14.258l84.583,84.588
	c1.969,1.969,4.549,2.954,7.129,2.954s5.16-0.985,7.129-2.954c3.939-3.939,3.939-10.32,0-14.258l-67.372-67.376h287.111
	c38.914,0,70.581,31.662,70.581,70.581s-31.667,70.581-70.581,70.581H128.002v0.594c-45.308,5.036-80.664,43.529-80.664,90.153
	s35.356,85.116,80.664,90.153v0.594h302.236l-67.372,67.376c-3.939,3.939-3.939,10.319,0,14.258
	c1.969,1.969,4.549,2.954,7.129,2.954c2.58,0,5.16-0.985,7.129-2.954l84.583-84.588
	C465.646,420.519,465.646,414.138,461.708,410.199z"/>
<g>
</g>
<g>
</g>
<g>
</g>
<g>
</g>
<g>
</g>
<g>
</g>
<g>
</g>
<g>
</g>
<g>
</g>
<g>
</g>
<g>
</g>
<g>
</g>
<g>
</g>
<g>
</g>
<g>
</g>
</svg>
