<?xml version="1.0" encoding="iso-8859-1"?>
<!-- Generator: Adobe Illustrator 19.0.0, SVG Export Plug-In . SVG Version: 6.00 Build 0)  -->
<svg version="1.1" id="Layer_1" xmlns="http://www.w3.org/2000/svg" xmlns:xlink="http://www.w3.org/1999/xlink" x="0px" y="0px"
	 viewBox="0 0 512 512" style="enable-background:new 0 0 512 512;" xml:space="preserve">
<path style="fill:#314E55;" d="M509.046,135.993l-84.585-84.59c-3.781-3.781-10.477-3.781-14.258,0l-84.585,84.59
	c-3.939,3.939-3.939,10.32,0,14.258c3.939,3.939,10.32,3.939,14.258,0l67.373-67.377v287.121c0,38.92-31.668,70.583-70.583,70.583
	s-70.583-31.663-70.583-70.583V127.997h-0.595c-5.036-45.303-43.524-80.666-90.154-80.666S90.216,82.694,85.18,127.997h-0.595
	v302.246l-67.373-67.377c-3.939-3.939-10.32-3.939-14.258,0c-3.939,3.939-3.939,10.32,0,14.258l84.585,84.59
	c1.891,1.891,4.451,2.954,7.129,2.954s5.238-1.064,7.129-2.954l84.585-84.59c3.939-3.939,3.939-10.32,0-14.258
	c-3.939-3.939-10.32-3.939-14.258,0l-67.373,67.377V138.081c0-38.92,31.668-70.583,70.583-70.583s70.583,31.663,70.583,70.583
	v241.998h0.595c5.036,45.303,43.524,80.666,90.154,80.666s85.118-35.363,90.154-80.666h0.595V82.874l67.373,67.377
	c1.969,1.969,4.549,2.954,7.129,2.954c2.58,0,5.16-0.985,7.129-2.954C512.984,146.313,512.984,139.932,509.046,135.993z"/>
<g>
</g>
<g>
</g>
<g>
</g>
<g>
</g>
<g>
</g>
<g>
</g>
<g>
</g>
<g>
</g>
<g>
</g>
<g>
</g>
<g>
</g>
<g>
</g>
<g>
</g>
<g>
</g>
<g>
</g>
</svg>
