<?xml version="1.0" encoding="iso-8859-1"?>
<!-- Generator: Adobe Illustrator 19.0.0, SVG Export Plug-In . SVG Version: 6.00 Build 0)  -->
<svg version="1.1" id="Layer_1" xmlns="http://www.w3.org/2000/svg" xmlns:xlink="http://www.w3.org/1999/xlink" x="0px" y="0px"
	 viewBox="0 0 512 512" style="enable-background:new 0 0 512 512;" xml:space="preserve">
<path style="fill:#314E55;" d="M508.461,114.594L407.137,13.264c-4.53-4.53-12.55-4.53-17.08,0l-101.324,101.33
	c-4.718,4.718-4.718,12.362,0,17.08c4.718,4.718,12.362,4.718,17.08,0l80.706-80.711v343.942c0,46.622-37.935,84.551-84.551,84.551
	s-84.551-37.929-84.551-84.551V105.016h-0.713c-6.033-54.269-52.137-96.63-107.995-96.63S6.746,50.748,0.713,105.016H0v374.44
	h24.157V117.095c0-46.622,37.935-84.551,84.551-84.551s84.551,37.929,84.551,84.551v289.889h0.713
	c6.033,54.269,52.137,96.63,107.995,96.63s101.963-42.361,107.995-96.63h0.713V50.963l80.706,80.711
	c2.359,2.359,5.449,3.539,8.54,3.539s6.181-1.179,8.54-3.539C513.18,126.956,513.18,119.313,508.461,114.594z"/>
<g>
</g>
<g>
</g>
<g>
</g>
<g>
</g>
<g>
</g>
<g>
</g>
<g>
</g>
<g>
</g>
<g>
</g>
<g>
</g>
<g>
</g>
<g>
</g>
<g>
</g>
<g>
</g>
<g>
</g>
</svg>
