<?xml version="1.0" encoding="iso-8859-1"?>
<!-- Generator: Adobe Illustrator 19.0.0, SVG Export Plug-In . SVG Version: 6.00 Build 0)  -->
<svg version="1.1" id="Layer_1" xmlns="http://www.w3.org/2000/svg" xmlns:xlink="http://www.w3.org/1999/xlink" x="0px" y="0px"
	 viewBox="0 0 512 512" style="enable-background:new 0 0 512 512;" xml:space="preserve">
<path style="fill:#314E55;" d="M512,252.558c0-73.194-59.546-132.741-132.741-132.741s-132.741,59.546-132.741,132.741
	c0,62.736-51.042,113.778-113.778,113.778S18.963,315.294,18.963,252.558c0-59.207,45.476-107.947,103.324-113.248l-30.37,52.6
	c-2.616,4.537-1.065,10.333,3.472,12.954c1.495,0.861,3.125,1.269,4.732,1.269c3.278,0,6.463-1.699,8.222-4.741l39.843-69.009
	c2.616-4.537,1.065-10.333-3.472-12.954L75.704,79.586c-4.551-2.62-10.338-1.065-12.954,3.472
	c-2.616,4.537-1.065,10.333,3.472,12.954l44.63,25.769C48.059,132.266,0,186.834,0,252.558c0,73.194,59.546,132.741,132.741,132.741
	s132.741-59.546,132.741-132.741c0-62.736,51.042-113.778,113.778-113.778s113.778,51.042,113.778,113.778
	c0,61.046-48.367,110.877-108.774,113.524l26.551-45.987c2.616-4.537,1.065-10.333-3.472-12.954
	c-4.551-2.63-10.333-1.06-12.954,3.472l-39.843,69.009c-2.616,4.537-1.065,10.333,3.472,12.954l69.009,39.843
	c1.495,0.861,3.125,1.269,4.731,1.269c3.278,0,6.463-1.699,8.222-4.741c2.616-4.537,1.065-10.333-3.472-12.954l-53.492-30.884
	C454.464,383.094,512,324.484,512,252.558z"/>
<g>
</g>
<g>
</g>
<g>
</g>
<g>
</g>
<g>
</g>
<g>
</g>
<g>
</g>
<g>
</g>
<g>
</g>
<g>
</g>
<g>
</g>
<g>
</g>
<g>
</g>
<g>
</g>
<g>
</g>
</svg>
