<?xml version="1.0" encoding="iso-8859-1"?>
<!-- Generator: Adobe Illustrator 19.0.0, SVG Export Plug-In . SVG Version: 6.00 Build 0)  -->
<svg version="1.1" id="Layer_1" xmlns="http://www.w3.org/2000/svg" xmlns:xlink="http://www.w3.org/1999/xlink" x="0px" y="0px"
	 viewBox="0 0 512.001 512.001" style="enable-background:new 0 0 512.001 512.001;" xml:space="preserve">
<path style="fill:#314E55;" d="M364.363,334.68h-98.512V177.061h98.512c3.656,0,7.013-2.025,8.716-5.267
	c1.703-3.237,1.472-7.153-0.596-10.164L264.12,4.012c-3.675-5.349-12.564-5.349-16.239,0L139.518,161.63
	c-2.068,3.011-2.299,6.927-0.596,10.164c1.703,3.242,5.06,5.267,8.716,5.267h98.512V334.68h-98.512
	c-3.656,0-7.013,2.025-8.716,5.267c-1.703,3.237-1.472,7.153,0.596,10.164l108.363,157.618c1.837,2.674,4.878,4.271,8.12,4.271
	c3.242,0,6.282-1.597,8.12-4.271l108.363-157.618c2.068-3.011,2.299-6.927,0.596-10.164
	C371.376,336.705,368.019,334.68,364.363,334.68z"/>
<g>
	<polygon style="fill:#E4AD40;" points="265.851,157.359 265.851,41.31 345.632,157.359 	"/>
	<polygon style="fill:#E4AD40;" points="166.368,157.359 246.149,41.31 246.149,157.359 	"/>
	<polygon style="fill:#E4AD40;" points="246.149,354.382 246.149,470.431 166.368,354.382 	"/>
	<polygon style="fill:#E4AD40;" points="265.851,470.431 265.851,354.382 345.632,354.382 	"/>
</g>
<g>
</g>
<g>
</g>
<g>
</g>
<g>
</g>
<g>
</g>
<g>
</g>
<g>
</g>
<g>
</g>
<g>
</g>
<g>
</g>
<g>
</g>
<g>
</g>
<g>
</g>
<g>
</g>
<g>
</g>
</svg>
