<?xml version="1.0" encoding="iso-8859-1"?>
<!-- Generator: Adobe Illustrator 19.0.0, SVG Export Plug-In . SVG Version: 6.00 Build 0)  -->
<svg version="1.1" id="Layer_1" xmlns="http://www.w3.org/2000/svg" xmlns:xlink="http://www.w3.org/1999/xlink" x="0px" y="0px"
	 viewBox="0 0 511.999 511.999" style="enable-background:new 0 0 511.999 511.999;" xml:space="preserve">
<path style="fill:#314E55;" d="M509.928,112.008l-68.923-88.615c-3.731-4.798-11.817-4.798-15.548,0l-68.923,88.615
	c-2.308,2.966-2.721,6.99-1.072,10.37c1.654,3.375,5.087,5.519,8.846,5.519h59.077c0,125.248-67.182,235.076-167.385,295.418
	C155.797,362.973,88.615,253.145,88.615,127.898h59.077c3.76,0,7.192-2.144,8.846-5.519c1.649-3.38,1.236-7.404-1.072-10.37
	L86.543,23.393c-3.731-4.798-11.817-4.798-15.548,0L2.072,112.008c-2.308,2.966-2.721,6.99-1.072,10.37
	c1.654,3.375,5.087,5.519,8.846,5.519h59.077c0,128.394,66.825,241.401,167.459,306.303
	c-47.273,24.424-100.836,38.313-157.612,38.313c-5.438,0-9.846,4.409-9.846,9.846c0,5.438,4.409,9.846,9.846,9.846
	c64.307,0,124.733-16.815,177.231-46.178c52.498,29.363,112.924,46.178,177.231,46.178c5.438,0,9.846-4.409,9.846-9.846
	c0-5.438-4.409-9.846-9.846-9.846c-56.776,0-110.339-13.888-157.612-38.313c100.633-64.901,167.458-177.909,167.458-306.303h59.077
	c3.76,0,7.192-2.144,8.846-5.519C512.648,118.999,512.235,114.974,509.928,112.008z"/>
<polygon style="fill:#EA86A5;" points="29.975,108.205 78.768,45.474 127.562,108.205 "/>
<polygon style="fill:#73C9C9;" points="384.437,108.205 433.23,45.474 482.024,108.205 "/>
<g>
</g>
<g>
</g>
<g>
</g>
<g>
</g>
<g>
</g>
<g>
</g>
<g>
</g>
<g>
</g>
<g>
</g>
<g>
</g>
<g>
</g>
<g>
</g>
<g>
</g>
<g>
</g>
<g>
</g>
</svg>
