<?xml version="1.0" encoding="iso-8859-1"?>
<!-- Generator: Adobe Illustrator 19.0.0, SVG Export Plug-In . SVG Version: 6.00 Build 0)  -->
<svg version="1.1" id="Layer_1" xmlns="http://www.w3.org/2000/svg" xmlns:xlink="http://www.w3.org/1999/xlink" x="0px" y="0px"
	 viewBox="0 0 512 512" style="enable-background:new 0 0 512 512;" xml:space="preserve">
<path style="fill:#314E55;" d="M428.739,283.847c-3.746-3.746-9.815-3.746-13.561,0c-3.746,3.746-3.746,9.815,0,13.561
	l64.081,64.081H368.39L262.9,256l105.49-105.49h110.87l-64.081,64.081c-3.746,3.746-3.746,9.815,0,13.561
	c1.873,1.873,4.327,2.81,6.78,2.81s4.907-0.936,6.78-2.81l80.452-80.452c3.746-3.746,3.746-9.815,0-13.561l-80.452-80.452
	c-3.746-3.746-9.815-3.746-13.561,0c-3.746,3.746-3.746,9.815,0,13.561l64.081,64.081H364.419c-2.543,0-4.982,1.012-6.78,2.81
	L249.339,242.439L141.04,134.14c-1.798-1.798-4.238-2.81-6.78-2.81H9.59c-5.296,0-9.59,4.294-9.59,9.59
	c0,5.296,4.294,9.59,9.59,9.59h120.699L235.778,256l-105.49,105.49H9.59c-5.296,0-9.59,4.294-9.59,9.59s4.294,9.59,9.59,9.59h124.67
	c2.543,0,4.982-1.012,6.78-2.81l108.299-108.299L357.638,377.86c1.798,1.798,4.238,2.81,6.78,2.81h114.841l-64.081,64.081
	c-3.746,3.746-3.746,9.815,0,13.561c1.873,1.873,4.327,2.81,6.78,2.81s4.907-0.936,6.78-2.81l80.452-80.452
	c3.746-3.746,3.746-9.815,0-13.561L428.739,283.847z"/>
<g>
</g>
<g>
</g>
<g>
</g>
<g>
</g>
<g>
</g>
<g>
</g>
<g>
</g>
<g>
</g>
<g>
</g>
<g>
</g>
<g>
</g>
<g>
</g>
<g>
</g>
<g>
</g>
<g>
</g>
</svg>
