<?xml version="1.0" encoding="iso-8859-1"?>
<!-- Generator: Adobe Illustrator 19.0.0, SVG Export Plug-In . SVG Version: 6.00 Build 0)  -->
<svg version="1.1" id="Layer_1" xmlns="http://www.w3.org/2000/svg" xmlns:xlink="http://www.w3.org/1999/xlink" x="0px" y="0px"
	 viewBox="0 0 512 512" style="enable-background:new 0 0 512 512;" xml:space="preserve">
<path style="fill:#314E55;" d="M509.222,249.296L395.444,135.519c-1.778-1.778-4.19-2.778-6.704-2.778H9.481
	c-5.236,0-9.481,4.245-9.481,9.481v227.556c0,5.236,4.245,9.481,9.481,9.481h379.259c2.514,0,4.926-1,6.704-2.778l113.778-113.778
	C512.926,259,512.926,253,509.222,249.296z"/>
<path style="fill:#EA86A5;" d="M384.815,360.296H18.963v-94.815h125.56l-37.449,37.449c-3.704,3.704-3.704,9.704,0,13.407
	c1.852,1.852,4.278,2.778,6.704,2.778s4.852-0.926,6.704-2.778l53.634-53.634c3.704-3.704,3.704-9.704,0-13.407l-53.634-53.634
	c-3.704-3.704-9.704-3.704-13.407,0s-3.704,9.704,0,13.407l37.449,37.449H18.963v-94.815h365.852L489.111,256L384.815,360.296z"/>
<g>
</g>
<g>
</g>
<g>
</g>
<g>
</g>
<g>
</g>
<g>
</g>
<g>
</g>
<g>
</g>
<g>
</g>
<g>
</g>
<g>
</g>
<g>
</g>
<g>
</g>
<g>
</g>
<g>
</g>
</svg>
