<?xml version="1.0" encoding="iso-8859-1"?>
<!-- Generator: Adobe Illustrator 19.0.0, SVG Export Plug-In . SVG Version: 6.00 Build 0)  -->
<svg version="1.1" id="Layer_1" xmlns="http://www.w3.org/2000/svg" xmlns:xlink="http://www.w3.org/1999/xlink" x="0px" y="0px"
	 viewBox="0 0 512 512" style="enable-background:new 0 0 512 512;" xml:space="preserve">
<path style="fill:#314E55;" d="M376.481,116.556L262.704,2.778c-3.704-3.704-9.704-3.704-13.407,0L135.519,116.556
	c-1.778,1.778-2.778,4.19-2.778,6.704v379.259c0,5.236,4.245,9.481,9.481,9.481h227.556c5.236,0,9.481-4.245,9.481-9.481V123.259
	C379.259,120.745,378.259,118.333,376.481,116.556z"/>
<path style="fill:#5ECB66;" d="M360.296,493.037h-94.815V367.473l37.449,37.453c1.852,1.852,4.278,2.778,6.704,2.778
	s4.852-0.926,6.704-2.778c3.704-3.704,3.704-9.704,0-13.407l-53.634-53.639c-3.556-3.556-9.852-3.556-13.407,0l-53.634,53.639
	c-3.704,3.704-3.704,9.704,0,13.407c3.704,3.703,9.704,3.704,13.407,0l37.449-37.453v125.564h-94.815V127.185L256,22.889
	l104.296,104.296V493.037z"/>
<g>
</g>
<g>
</g>
<g>
</g>
<g>
</g>
<g>
</g>
<g>
</g>
<g>
</g>
<g>
</g>
<g>
</g>
<g>
</g>
<g>
</g>
<g>
</g>
<g>
</g>
<g>
</g>
<g>
</g>
</svg>
