<?xml version="1.0" encoding="iso-8859-1"?>
<!-- Generator: Adobe Illustrator 19.0.0, SVG Export Plug-In . SVG Version: 6.00 Build 0)  -->
<svg version="1.1" id="Layer_1" xmlns="http://www.w3.org/2000/svg" xmlns:xlink="http://www.w3.org/1999/xlink" x="0px" y="0px"
	 viewBox="0 0 512 512" style="enable-background:new 0 0 512 512;" xml:space="preserve">
<path style="fill:#314E55;" d="M502.518,132.741H123.259c-2.514,0-4.926,1-6.704,2.778L2.778,249.296
	c-3.704,3.704-3.704,9.704,0,13.407l113.778,113.778c1.778,1.778,4.19,2.778,6.704,2.778h379.259c5.236,0,9.481-4.245,9.481-9.481
	V142.222C512,136.986,507.755,132.741,502.518,132.741z"/>
<path style="fill:#73C9C9;" d="M127.185,360.296L22.889,256l104.296-104.296h365.852v94.815h-125.56l37.449-37.449
	c3.704-3.704,3.704-9.704,0-13.407c-3.704-3.703-9.704-3.704-13.407,0l-53.634,53.634c-3.704,3.704-3.704,9.704,0,13.407
	l53.634,53.634c1.852,1.852,4.278,2.778,6.704,2.778c2.426,0,4.852-0.926,6.704-2.778c3.704-3.704,3.704-9.704,0-13.407
	l-37.449-37.449h125.56v94.815H127.185z"/>
<g>
</g>
<g>
</g>
<g>
</g>
<g>
</g>
<g>
</g>
<g>
</g>
<g>
</g>
<g>
</g>
<g>
</g>
<g>
</g>
<g>
</g>
<g>
</g>
<g>
</g>
<g>
</g>
<g>
</g>
</svg>
