<?xml version="1.0" encoding="iso-8859-1"?>
<!-- Generator: Adobe Illustrator 19.0.0, SVG Export Plug-In . SVG Version: 6.00 Build 0)  -->
<svg version="1.1" id="Layer_1" xmlns="http://www.w3.org/2000/svg" xmlns:xlink="http://www.w3.org/1999/xlink" x="0px" y="0px"
	 viewBox="0 0 512 512" style="enable-background:new 0 0 512 512;" xml:space="preserve">
<path style="fill:#314E55;" d="M369.778,0H142.222c-5.236,0-9.481,4.245-9.481,9.481v379.259c0,2.514,1,4.926,2.778,6.704
	l113.778,113.778c1.852,1.852,4.278,2.778,6.704,2.778c2.426,0,4.852-0.926,6.704-2.778l113.778-113.778
	c1.778-1.778,2.778-4.19,2.778-6.704V9.481C379.259,4.245,375.014,0,369.778,0z"/>
<path style="fill:#E65F58;" d="M360.296,384.815L256,489.111L151.704,384.815V18.963h94.815v125.564l-37.449-37.453
	c-3.704-3.704-9.704-3.704-13.407,0c-3.703,3.704-3.704,9.704,0,13.407l53.634,53.639c1.778,1.778,4.19,2.778,6.704,2.778
	c2.514,0,4.926-1,6.704-2.778l53.634-53.639c3.704-3.704,3.704-9.704,0-13.407s-9.704-3.704-13.407,0l-37.449,37.453V18.963h94.815
	V384.815z"/>
<g>
</g>
<g>
</g>
<g>
</g>
<g>
</g>
<g>
</g>
<g>
</g>
<g>
</g>
<g>
</g>
<g>
</g>
<g>
</g>
<g>
</g>
<g>
</g>
<g>
</g>
<g>
</g>
<g>
</g>
</svg>
