<?xml version="1.0" encoding="iso-8859-1"?>
<!-- Generator: Adobe Illustrator 19.0.0, SVG Export Plug-In . SVG Version: 6.00 Build 0)  -->
<svg version="1.1" id="Layer_1" xmlns="http://www.w3.org/2000/svg" xmlns:xlink="http://www.w3.org/1999/xlink" x="0px" y="0px"
	 viewBox="0 0 512 512" style="enable-background:new 0 0 512 512;" xml:space="preserve">
<path style="fill:#314E55;" d="M366.677,204.09c-7.27,0-12.775,3.408-16.941,8.358c-0.128-1.55-0.202-2.889-0.202-3.954
	c0-22.661-12.519-37.299-31.9-37.299c-8.578,0-15.126,2.378-20.001,5.742c-2.928-10.12-11.524-21.349-27.976-21.349
	c-9.076,0-16.042,2.713-21.226,6.139c-0.211-26.431-0.418-53.116-0.418-55.124c0-9.336-11.198-27.496-31.724-27.496
	c-17.645,0-27.496,16.575-30.535,26.36c-0.238,0.775-0.374,1.576-0.401,2.378l-4.276,128.964
	c-7.477-14.109-18.178-27.619-26.232-31.732c-9.292-4.765-25.114-1.533-34.493,7.046c-8.675,7.935-10.952,19.209-6.24,30.922
	c3.756,9.327,6.033,20.283,8.671,32.974c3.36,16.179,7.548,36.312,16.452,60.867c14.294,39.456,58.929,81.124,71.374,92.212v29.654
	c0,29.363,23.925,53.249,53.337,53.249h58.414c29.412,0,53.337-23.903,53.337-53.293v-35.625
	c15.003-20.574,23.965-57.599,24.352-59.229c0.163-0.687,0.247-1.392,0.247-2.096V238.527
	C400.294,217.926,386.783,204.09,366.677,204.09z"/>
<path style="fill:#E9E7D1;" d="M382.257,360.674c-2.81,11.317-11.59,40.214-22.564,53.636c-1.317,1.612-2.034,3.629-2.034,5.707
	v38.69c0,19.438-15.835,35.255-35.299,35.255h-58.414c-19.464,0-35.3-15.791-35.3-35.211v-33.749c0-2.642-1.158-5.152-3.171-6.861
	c-0.542-0.467-54.596-46.872-69.287-87.403c-8.464-23.339-12.335-41.958-15.747-58.392c-2.814-13.528-5.24-25.215-9.596-36.03
	c-2.343-5.83-0.533-8.684,1.303-10.525c3.571-3.567,9.371-4.906,12.599-4.906c0.832,0,1.493,0.088,1.898,0.255
	c6.081,3.109,20.856,24.07,24.687,39.227c1.559,6.156,2.343,12.013,3.034,17.165c1.321,9.855,2.369,17.632,8.261,22.326
	c2.669,2.123,6.306,2.554,9.402,1.136c3.091-1.436,5.117-4.483,5.231-7.891l6.073-183.226c1.246-3.135,5.668-12.735,12.955-12.735
	c10.454,0,13.682,9.697,13.686,9.468c0,4.236,0.85,108.84,0.85,108.84c0.04,4.765,3.774,8.675,8.53,8.93
	c4.787,0.502,8.886-3.223,9.446-7.953l4.007-34.137c1.665-2.598,6.641-8.666,16.848-8.666c9.107,0,10.802,7.548,11.185,11.432
	l5.659,36.585c0.727,4.694,5.011,8.032,9.71,7.601c4.738-0.423,8.332-4.448,8.217-9.195l-0.555-23.401
	c0.964-2.334,4.175-7.416,13.761-7.416c11.458,0,13.862,10.472,13.862,19.262c0,10.921,5.227,39.122,5.822,42.301
	c0.823,4.404,4.778,7.671,9.243,7.336c4.483-0.185,8.142-3.637,8.596-8.103c1.282-12.638,6.707-27.901,11.52-27.901
	c12.876,0,15.58,8.922,15.58,16.399L382.257,360.674L382.257,360.674z"/>
<g>
	<path style="fill:#314E55;" d="M263.878,100.165c-1.119,4.853,1.907,9.697,6.759,10.815l26.365,6.086
		c0.682,0.159,1.365,0.229,2.039,0.229c4.104,0,7.816-2.818,8.781-6.993c1.119-4.853-1.907-9.697-6.759-10.815l-26.365-6.086
		C269.867,92.291,265.001,95.303,263.878,100.165z"/>
	<path style="fill:#314E55;" d="M219.908,45.093c4.981,0,9.019-4.034,9.019-9.019V9.019c0-4.985-4.038-9.019-9.019-9.019
		c-4.981,0-9.019,4.034-9.019,9.019v27.056C210.89,41.059,214.928,45.093,219.908,45.093z"/>
	<path style="fill:#314E55;" d="M262.28,65.543c1.995,0,4.003-0.661,5.672-2.008l21.027-17.024
		c3.871-3.135,4.465-8.816,1.334-12.682c-3.144-3.875-8.829-4.465-12.687-1.339l-21.027,17.024
		c-3.871,3.135-4.465,8.816-1.334,12.682C257.048,64.399,259.655,65.543,262.28,65.543z"/>
	<path style="fill:#314E55;" d="M171.86,63.535c1.673,1.348,3.677,2.008,5.672,2.008c2.625,0,5.231-1.145,7.015-3.347
		c3.131-3.866,2.536-9.547-1.334-12.682L162.185,32.49c-3.88-3.127-9.551-2.536-12.687,1.339c-3.131,3.866-2.536,9.547,1.334,12.682
		L171.86,63.535z"/>
	<path style="fill:#314E55;" d="M140.775,117.295c0.674,0,1.356-0.07,2.039-0.229l26.36-6.086c4.853-1.119,7.878-5.962,6.759-10.815
		c-1.127-4.861-5.989-7.9-10.82-6.764l-26.36,6.086c-4.853,1.119-7.878,5.962-6.759,10.815
		C132.959,114.476,136.671,117.295,140.775,117.295z"/>
</g>
<g>
</g>
<g>
</g>
<g>
</g>
<g>
</g>
<g>
</g>
<g>
</g>
<g>
</g>
<g>
</g>
<g>
</g>
<g>
</g>
<g>
</g>
<g>
</g>
<g>
</g>
<g>
</g>
<g>
</g>
</svg>
