<?xml version="1.0" encoding="iso-8859-1"?>
<!-- Generator: Adobe Illustrator 19.0.0, SVG Export Plug-In . SVG Version: 6.00 Build 0)  -->
<svg version="1.1" id="Layer_1" xmlns="http://www.w3.org/2000/svg" xmlns:xlink="http://www.w3.org/1999/xlink" x="0px" y="0px"
	 viewBox="0 0 512 512" style="enable-background:new 0 0 512 512;" xml:space="preserve">
<path style="fill:#314E55;" d="M370.244,194.173c-7.505,0-13.191,3.518-17.491,8.627c-0.132-1.6-0.209-2.982-0.209-4.082
	c0-23.391-12.923-38.509-32.927-38.509c-8.841,0-15.605,2.464-20.636,5.945c-1.095-3.785-2.987-7.709-5.727-11.19
	c11.982-16.58,18.595-36.659,18.595-57.219c0-53.9-43.85-97.745-97.745-97.745s-97.745,43.845-97.745,97.745
	c0,40.815,25.809,77.452,63.585,91.577l-1.28,38.614c-7.718-14.564-18.764-28.5-27.077-32.745
	c-9.641-4.936-25.936-1.582-35.604,7.273c-8.955,8.182-11.3,19.818-6.436,31.918c3.873,9.618,6.223,20.927,8.941,34.018
	c3.473,16.7,7.791,37.491,16.986,62.836c14.754,40.727,60.827,83.736,73.673,95.182v30.618c0,30.309,24.695,54.964,55.054,54.964
	h60.295c30.359,0,55.059-24.682,55.059-55.018v-36.773c15.482-21.236,24.732-59.455,25.132-61.136
	c0.168-0.709,0.255-1.436,0.255-2.164V229.718C404.94,208.454,390.999,194.173,370.244,194.173z"/>
<path style="fill:#FFFFFF;" d="M134.976,97.745c0-43.627,35.496-79.127,79.127-79.127s79.127,35.5,79.127,79.127
	c0,17.036-5.614,33.669-15.755,47.266c-2.287-0.529-4.698-0.902-7.381-0.902c-9.368,0-16.559,2.8-21.909,6.336
	c-0.218-27.282-0.432-54.827-0.432-56.9c0-9.637-11.559-28.382-32.745-28.382c-18.214,0-28.382,17.1-31.518,27.2
	c-0.246,0.8-0.386,1.627-0.414,2.455l-2.473,74.599C153.242,156.569,134.976,128.637,134.976,97.745z"/>
<path style="fill:#E9E7D1;" d="M386.322,355.791c-2.9,11.682-11.964,41.509-23.286,55.364c-1.359,1.664-2.1,3.746-2.1,5.891v39.936
	c0,20.073-16.345,36.4-36.441,36.4h-60.295c-20.091,0-36.436-16.3-36.436-36.345v-34.846c0-2.727-1.196-5.318-3.273-7.082
	c-0.559-0.482-56.354-48.382-71.518-90.218c-8.736-24.091-12.732-43.318-16.255-60.282c-2.904-13.964-5.409-26.018-9.9-37.173
	c-2.423-6.027-0.555-8.973,1.345-10.873c3.682-3.682,9.668-5.055,12.995-5.055c0.859,0,1.546,0.091,1.964,0.264
	c6.277,3.209,21.532,24.845,25.482,40.491c1.609,6.355,2.418,12.391,3.132,17.718c1.368,10.173,2.445,18.2,8.536,23.045
	c2.759,2.173,6.509,2.645,9.7,1.155c3.191-1.473,5.277-4.618,5.396-8.136l6.268-189.136c1.268-3.2,5.822-13.127,13.372-13.127
	c10.796,0,14.1,10.045,14.127,9.773c0,4.364,0.877,112.345,0.877,112.345c0.041,4.918,3.895,8.955,8.805,9.218
	c4.973,0.436,9.177-3.318,9.75-8.209l4.136-35.236c1.636-2.509,6.868-8.946,17.391-8.946c9.4,0,11.15,7.782,11.545,11.782
	l5.841,37.773c0.75,4.854,5.141,8.291,10.023,7.855c4.891-0.436,8.6-4.591,8.482-9.491l-0.573-24.164
	c1-2.409,4.318-7.655,14.204-7.655c11.827,0,14.309,10.818,14.309,19.891c0,11.273,5.396,40.382,6.009,43.664
	c0.85,4.554,4.959,7.909,9.555,7.582c4.627-0.2,8.4-3.773,8.859-8.382c1.291-13.036,6.886-28.791,11.895-28.791
	c13.286,0,16.077,9.209,16.077,16.927L386.322,355.791L386.322,355.791z"/>
<g>
</g>
<g>
</g>
<g>
</g>
<g>
</g>
<g>
</g>
<g>
</g>
<g>
</g>
<g>
</g>
<g>
</g>
<g>
</g>
<g>
</g>
<g>
</g>
<g>
</g>
<g>
</g>
<g>
</g>
</svg>
