<?xml version="1.0" encoding="iso-8859-1"?>
<!-- Generator: Adobe Illustrator 19.0.0, SVG Export Plug-In . SVG Version: 6.00 Build 0)  -->
<svg version="1.1" id="Layer_1" xmlns="http://www.w3.org/2000/svg" xmlns:xlink="http://www.w3.org/1999/xlink" x="0px" y="0px"
	 viewBox="0 0 512 512" style="enable-background:new 0 0 512 512;" xml:space="preserve">
<path style="fill:#314E55;" d="M418.849,29.268c-8.627,0-16.931,1.975-24.586,5.537C385.137,14.329,364.628,0,340.801,0
	c-32.279,0-58.536,26.257-58.536,58.536c0,10.843,3.087,21.372,8.682,30.52l-92.161,86.99c4.959-16.387,7.031-34.622,4.049-43.835
	c-3.497-10.766-18.05-20.389-31.778-20.998c-12.667-0.457-23.066,6.307-28.425,18.883c-4.263,10.004-10.899,20.122-18.588,31.84
	c-9.804,14.948-22.003,33.555-33.975,59.146c-19.245,41.12-16.973,107.126-15.934,125.123l-22.689,22.694
	c-10.861,10.861-16.835,25.324-16.83,40.739c0.005,15.415,6.007,29.906,16.897,40.796l44.683,44.683
	C107.447,506.369,122.229,512,137.001,512c14.763,0,29.525-5.621,40.758-16.854l27.253-27.258
	c27.21-4.249,62.385-25.724,63.933-26.677c0.653-0.4,1.253-0.867,1.791-1.41l94.259-94.264
	c15.754-15.749,16.006-36.671,0.624-52.048c-5.559-5.564-12.39-7.203-19.345-6.564c1.081-1.286,2.048-2.372,2.863-3.182
	c17.335-17.33,18.959-38.109,4.135-52.934c-4.435-4.44-8.994-7.327-13.429-9.099l72.8-77.76c1.697,1.429,3.812,2.389,6.205,2.389
	c32.279,0,58.536-26.257,58.536-58.536S451.127,29.268,418.849,29.268z"/>
<path style="fill:#FFFFFF;" d="M301.777,58.536c0-21.522,17.506-39.024,39.024-39.024s39.024,17.502,39.024,39.024
	c0,4.364-0.71,8.641-2.11,12.709c-0.615,1.779-1.396,3.491-2.262,5.162c-1.639-5.311-4.502-10.187-8.57-14.251
	c-13.486-13.491-33.689-8.365-43.511-3.201c-0.786,0.41-1.51,0.924-2.158,1.534l-15.548,14.676
	C303.215,69.987,301.777,64.349,301.777,58.536z"/>
<path style="fill:#E9E7D1;" d="M292.04,258.429c3.901,3.687,10.056,3.535,13.762-0.352l17.478-18.331
	c2.52-1.048,8.86-2.477,16.196,4.859c4.016,4.02,5.23,7.927,3.939,12.671c-1.091,4.011-4.03,8.632-8.074,12.671
	c-8.356,8.356-25.924,33.917-27.901,36.804c-2.744,4.001-2.12,9.413,1.458,12.7c3.578,3.287,9.037,3.43,12.776,0.352
	c10.556-8.641,26.519-16.139,30.149-12.519c9.846,9.851,5.097,18.731-0.624,24.457l-93.415,93.416
	c-5.836,3.478-37.281,21.675-58.298,23.78c-2.239,0.229-4.335,1.22-5.926,2.81l-29.597,29.601
	c-14.872,14.872-39.081,14.863-53.972-0.029l-44.683-44.683c-7.207-7.203-11.18-16.797-11.18-27.01
	c-0.005-10.194,3.944-19.76,11.114-26.934l25.819-25.819c2.025-2.02,3.054-4.83,2.825-7.679
	c-0.062-0.772-5.945-77.534,13.857-119.845c11.38-24.333,22.661-41.53,32.617-56.716c8.198-12.5,15.282-23.294,20.222-34.889
	c2.668-6.25,6.231-7.06,9.041-7.06c0.005,0,0.005,0,0.005,0c6.874,0.01,13.738,5.421,14.648,7.546
	c2.277,7.022-2.458,34.356-11.118,48.875c-3.525,5.907-7.398,10.976-10.814,15.453c-6.526,8.546-11.681,15.301-10.756,23.399
	c0.419,3.668,2.877,6.793,6.345,8.06c3.482,1.277,7.365,0.467,10.046-2.068L333.455,75.771c3.378-1.448,14.062-5.373,19.631,0.181
	c8.041,8.041,3.149,18.216,3.22,17.711c-3.263,3.278-103.277,104.591-103.277,104.591c-3.744,3.792-3.754,9.88-0.019,13.681
	c3.725,3.801,9.827,3.897,13.686,0.238L399.074,86.156c3.378-0.591,11.633-1.143,19.117,6.336
	c6.965,6.965,2.491,14.034,0.567,16.387L291.62,244.672C287.948,248.597,288.138,254.742,292.04,258.429z"/>
<path style="fill:#FFFFFF;" d="M430.533,124.843l2.726-2.912c7.822-9.041,13.943-28.02-1.272-43.235
	c-11.907-11.91-25.125-12.956-33.313-12.106c0.367-2.661,0.663-5.338,0.663-8.054c0-1.445-0.113-2.861-0.217-4.279
	c5.97-3.528,12.687-5.477,19.729-5.477c21.518,0,39.024,17.502,39.024,39.024C457.873,105.229,446.321,119.843,430.533,124.843z"/>
<g>
</g>
<g>
</g>
<g>
</g>
<g>
</g>
<g>
</g>
<g>
</g>
<g>
</g>
<g>
</g>
<g>
</g>
<g>
</g>
<g>
</g>
<g>
</g>
<g>
</g>
<g>
</g>
<g>
</g>
</svg>
