<?xml version="1.0" encoding="iso-8859-1"?>
<!-- Generator: Adobe Illustrator 19.0.0, SVG Export Plug-In . SVG Version: 6.00 Build 0)  -->
<svg version="1.1" id="Layer_1" xmlns="http://www.w3.org/2000/svg" xmlns:xlink="http://www.w3.org/1999/xlink" x="0px" y="0px"
	 viewBox="0 0 512 512" style="enable-background:new 0 0 512 512;" xml:space="preserve">
<path style="fill:#314E55;" d="M364.335,210.612c-7.116,0-12.509,3.336-16.586,8.181c-0.125-1.517-0.198-2.827-0.198-3.871
	c0-22.181-12.254-36.509-31.224-36.509c-8.384,0-14.797,2.336-19.569,5.638c-2.866-9.914-11.276-20.914-27.392-20.914
	c-8.884,0-15.703,2.655-20.776,6.009c-0.207-25.871-0.409-51.991-0.409-53.957c0-9.138-10.961-26.914-31.052-26.914
	c-17.272,0-26.914,16.216-29.888,25.793c-0.233,0.759-0.366,1.543-0.392,2.328l-4.185,126.233
	c-7.319-13.802-17.793-27.026-25.677-31.052c-9.142-4.672-24.595-1.5-33.763,6.897c-8.491,7.759-10.716,18.793-6.103,30.267
	c3.672,9.121,5.901,19.845,8.478,32.259c3.293,15.845,7.388,35.552,16.108,59.586c13.991,38.621,57.685,79.414,69.862,90.259v29.034
	c0,28.742,23.418,52.121,52.207,52.121h57.177c28.789,0,52.211-23.397,52.211-52.164v-34.879
	c14.685-20.129,23.453-56.379,23.832-57.974c0.16-0.672,0.241-1.362,0.241-2.052V244.319
	C397.236,224.155,384.016,210.612,364.335,210.612z"/>
<path style="fill:#E9E7D1;" d="M379.581,363.845c-1.513,5.957-9.983,37.733-22.082,52.526c-1.289,1.577-1.991,3.552-1.991,5.586
	v37.879c0,19.026-15.5,34.509-34.556,34.509h-57.177c-19.052,0-34.552-15.457-34.552-34.466v-33.035
	c0-2.586-1.134-5.043-3.103-6.724c-0.535-0.448-53.418-45.81-67.819-85.552c-8.284-22.845-12.073-41.078-15.414-57.164
	c-2.754-13.241-5.129-24.672-9.388-35.25c-2.297-5.715-0.526-8.509,1.276-10.31c3.491-3.491,9.168-4.793,12.323-4.793
	c0.815,0,1.466,0.086,1.862,0.25c5.953,3.043,20.418,23.56,24.164,38.396c1.526,6.026,2.293,11.759,2.97,16.802
	c1.293,9.647,2.319,17.259,8.086,21.853c2.616,2.086,6.168,2.5,9.203,1.112c3.026-1.405,5.009-4.388,5.121-7.724l5.944-179.362
	c1.202-3.034,5.521-12.448,12.681-12.448c10.229,0,13.323,9.517,13.397,9.267c0,4.147,0.832,106.534,0.832,106.534
	c0.039,4.664,3.694,8.491,8.349,8.741c4.733,0.517,8.698-3.155,9.246-7.784l3.922-33.414c1.629-2.543,6.5-8.483,16.492-8.483
	c8.914,0,10.573,7.388,10.948,11.19l5.539,35.81c0.711,4.586,4.901,7.879,9.504,7.44c4.638-0.414,8.155-4.354,8.043-9l-0.543-22.914
	c0.948-2.276,4.095-7.25,13.47-7.25c11.215,0,13.569,10.25,13.569,18.854c0,10.69,5.116,38.293,5.698,41.405
	c0.806,4.319,4.72,7.509,9.06,7.19c4.388-0.19,7.966-3.578,8.401-7.948c1.224-12.362,6.53-27.302,11.28-27.302
	c12.599,0,15.246,8.733,15.246,16.052L379.581,363.845L379.581,363.845z"/>
<g>
	<path style="fill:#314E55;" d="M141.236,97.103c4.875,0,8.828-3.948,8.828-8.828c0-38.94,31.681-70.621,70.621-70.621
		s70.621,31.681,70.621,70.621c0,4.879,3.953,8.828,8.828,8.828s8.828-3.948,8.828-8.828C308.96,39.603,269.361,0,220.684,0
		s-88.276,39.603-88.276,88.276C132.409,93.155,136.361,97.103,141.236,97.103z"/>
	<path style="fill:#314E55;" d="M220.684,35.31c-29.207,0-52.966,23.759-52.966,52.966c0,4.879,3.953,8.828,8.828,8.828
		s8.828-3.948,8.828-8.828c0-19.474,15.84-35.31,35.31-35.31s35.31,15.836,35.31,35.31c0,4.879,3.953,8.828,8.828,8.828
		s8.828-3.948,8.828-8.828C273.65,59.069,249.891,35.31,220.684,35.31z"/>
</g>
<g>
</g>
<g>
</g>
<g>
</g>
<g>
</g>
<g>
</g>
<g>
</g>
<g>
</g>
<g>
</g>
<g>
</g>
<g>
</g>
<g>
</g>
<g>
</g>
<g>
</g>
<g>
</g>
<g>
</g>
</svg>
