<?xml version="1.0" encoding="iso-8859-1"?>
<!-- Generator: Adobe Illustrator 19.0.0, SVG Export Plug-In . SVG Version: 6.00 Build 0)  -->
<svg version="1.1" id="Layer_1" xmlns="http://www.w3.org/2000/svg" xmlns:xlink="http://www.w3.org/1999/xlink" x="0px" y="0px"
	 viewBox="0 0 512 512" style="enable-background:new 0 0 512 512;" xml:space="preserve">
<g>
	<path style="fill:#314E55;" d="M375.666,114.783L264.337,3.455c-4.606-4.606-12.068-4.606-16.674,0L136.334,114.783
		c-4.606,4.606-4.606,12.068,0,16.674c4.606,4.606,12.068,4.606,16.674,0l91.2-91.2v200.537h-35.375
		c-6.517,0-11.792,5.28-11.792,11.792s5.274,11.792,11.792,11.792h35.375v47.166h-35.375c-6.517,0-11.792,5.28-11.792,11.792
		c0,6.512,5.274,11.792,11.792,11.792h35.375V512h23.583V335.126h35.375c6.517,0,11.792-5.28,11.792-11.792
		c0-6.512-5.274-11.792-11.792-11.792h-35.375v-47.166h35.375c6.517,0,11.792-5.28,11.792-11.792s-5.274-11.792-11.792-11.792
		h-35.375V40.257l91.2,91.2c2.303,2.303,5.32,3.455,8.337,3.455s6.034-1.151,8.337-3.455
		C380.272,126.851,380.272,119.389,375.666,114.783z"/>
	<polygon style="fill:#314E55;" points="255.919,28.546 256,28.465 256.08,28.546 	"/>
</g>
<g>
</g>
<g>
</g>
<g>
</g>
<g>
</g>
<g>
</g>
<g>
</g>
<g>
</g>
<g>
</g>
<g>
</g>
<g>
</g>
<g>
</g>
<g>
</g>
<g>
</g>
<g>
</g>
<g>
</g>
</svg>
