<?xml version="1.0" encoding="iso-8859-1"?>
<!-- Generator: Adobe Illustrator 19.0.0, SVG Export Plug-In . SVG Version: 6.00 Build 0)  -->
<svg version="1.1" id="Layer_1" xmlns="http://www.w3.org/2000/svg" xmlns:xlink="http://www.w3.org/1999/xlink" x="0px" y="0px"
	 viewBox="0 0 512 512" style="enable-background:new 0 0 512 512;" xml:space="preserve">
<path style="fill:#314E55;" d="M383.085,136.109L294.538,33.577c-3.613-4.169-10.747-4.169-14.361,0L191.63,136.109
	c-2.427,2.812-2.993,6.777-1.445,10.15c1.547,3.377,4.911,5.54,8.626,5.54h79.597v341.225H145.582v-75.9
	c0-5.239-4.244-9.487-9.487-9.487s-9.487,4.248-9.487,9.487V512h170.775V151.8h78.522c3.715,0,7.079-2.163,8.626-5.54
	C386.077,142.887,385.512,138.921,383.085,136.109z"/>
<path style="fill:#5ECB66;" d="M289.501,132.825c-0.542-0.096-1.036-0.324-1.606-0.324s-1.064,0.228-1.606,0.324h-66.752
	l67.821-78.531l67.821,78.531H289.501z"/>
<rect x="211.995" style="fill:#314E55;" width="151.8" height="18.975"/>
<g>
</g>
<g>
</g>
<g>
</g>
<g>
</g>
<g>
</g>
<g>
</g>
<g>
</g>
<g>
</g>
<g>
</g>
<g>
</g>
<g>
</g>
<g>
</g>
<g>
</g>
<g>
</g>
<g>
</g>
</svg>
