<?xml version="1.0" encoding="iso-8859-1"?>
<!-- Generator: Adobe Illustrator 19.0.0, SVG Export Plug-In . SVG Version: 6.00 Build 0)  -->
<svg version="1.1" id="Layer_1" xmlns="http://www.w3.org/2000/svg" xmlns:xlink="http://www.w3.org/1999/xlink" x="0px" y="0px"
	 viewBox="0 0 512 512" style="enable-background:new 0 0 512 512;" xml:space="preserve">
<path style="fill:#314E55;" d="M452.923,0H59.077C26.5,0,0,26.5,0,59.077v393.846C0,485.5,26.5,512,59.077,512h393.846
	C485.5,512,512,485.5,512,452.923V59.077C512,26.5,485.5,0,452.923,0z"/>
<path style="fill:#EAEAEA;" d="M492.308,452.923c0,21.716-17.663,39.385-39.385,39.385H59.077
	c-21.721,0-39.385-17.668-39.385-39.385V59.077c0-21.716,17.664-39.385,39.385-39.385h393.846c21.721,0,39.385,17.668,39.385,39.385
	V452.923z"/>
<path style="fill:#314E55;" d="M264.115,172.865c-3.327-6.712-14.327-6.712-17.654,0L178.25,310.712
	c-1.51,3.053-1.337,6.668,0.462,9.558c1.798,2.894,4.961,4.654,8.365,4.654H323.51c3.404,0,6.567-1.76,8.365-4.654
	c1.798-2.894,1.971-6.51,0.462-9.558L264.115,172.865z"/>
<polygon style="fill:#5ECB66;" points="202.933,305.231 255.288,199.428 307.654,305.231 "/>
<g>
</g>
<g>
</g>
<g>
</g>
<g>
</g>
<g>
</g>
<g>
</g>
<g>
</g>
<g>
</g>
<g>
</g>
<g>
</g>
<g>
</g>
<g>
</g>
<g>
</g>
<g>
</g>
<g>
</g>
</svg>
