<?xml version="1.0" encoding="iso-8859-1"?>
<!-- Generator: Adobe Illustrator 19.0.0, SVG Export Plug-In . SVG Version: 6.00 Build 0)  -->
<svg version="1.1" id="Layer_1" xmlns="http://www.w3.org/2000/svg" xmlns:xlink="http://www.w3.org/1999/xlink" x="0px" y="0px"
	 viewBox="0 0 512 512" style="enable-background:new 0 0 512 512;" xml:space="preserve">
<path style="fill:#314E55;" d="M13.347,313.453H494c4.51,0,8.51-2.893,9.923-7.178c1.413-4.286-0.087-8.99-3.714-11.674
	L259.883,116.968c-3.684-2.725-8.735-2.725-12.418,0L7.138,294.601c-3.628,2.684-5.128,7.388-3.714,11.674
	S8.837,313.453,13.347,313.453z"/>
<polygon style="fill:#5ECB66;" points="253.674,138.366 462.286,292.555 45.061,292.555 "/>
<path style="fill:#314E55;" d="M501.551,334.381H10.449C4.679,334.381,0,339.06,0,344.83v41.796c0,5.77,4.679,10.449,10.449,10.449
	h491.102c5.77,0,10.449-4.679,10.449-10.449V344.83C512,339.06,507.321,334.381,501.551,334.381z"/>
<rect x="20.898" y="355.278" style="fill:#D8D8D8;" width="470.204" height="20.898"/>
<g>
</g>
<g>
</g>
<g>
</g>
<g>
</g>
<g>
</g>
<g>
</g>
<g>
</g>
<g>
</g>
<g>
</g>
<g>
</g>
<g>
</g>
<g>
</g>
<g>
</g>
<g>
</g>
<g>
</g>
</svg>
