<?xml version="1.0" encoding="iso-8859-1"?>
<!-- Generator: Adobe Illustrator 19.0.0, SVG Export Plug-In . SVG Version: 6.00 Build 0)  -->
<svg version="1.1" id="Layer_1" xmlns="http://www.w3.org/2000/svg" xmlns:xlink="http://www.w3.org/1999/xlink" x="0px" y="0px"
	 viewBox="0 0 512 512" style="enable-background:new 0 0 512 512;" xml:space="preserve">
<path style="fill:#314E55;" d="M509.432,290.332l-30.125-30.125c-3.827-24.45-23.123-56.056-23.979-57.442
	c-0.36-0.582-0.779-1.121-1.267-1.609l-84.691-84.7c-6.506-6.506-14.117-10.23-22.01-10.761c-6.215-0.428-15.572,1.01-24.758,10.204
	c-4.999,4.991-6.446,11.129-5.898,17.395c-1.156-0.976-2.132-1.849-2.868-2.585c-15.58-15.572-34.251-17.018-47.563-3.715
	c-5.873,5.873-8.715,12.036-9.742,17.721c-8.954-4.957-22.626-6.797-33.96,4.529c-6.215,6.215-9.143,12.833-10.35,18.731
	c-23.242-22.917-49.07-48.402-50.585-49.918c-6.412-6.421-26.598-11.215-40.706,2.902c-12.131,12.122-7.508,30.288-2.868,39.106
	c0.368,0.702,0.83,1.344,1.37,1.926l124.362,132.092c-2.911,0.659-6.164,1.412-9.785,2.251c-9.032,2.089-18.62,4.315-25.519,5.693
	c-15.718,3.142-28.13,5.624-39.482,16.976c-20.708,20.708-29.988,37.539-27.574,50.02c0.899,4.657,3.827,10.983,12.653,14.75
	c13.226,5.641,27.643,0.06,42.881-5.864c15.015-5.847,30.545-11.874,44.088-6.455c29.141,11.651,109.714,7.516,128.916,6.352
	l25.999,25.999c1.644,1.644,3.869,2.568,6.198,2.568s4.554-0.925,6.198-2.568l101.068-101.077
	C512.856,299.303,512.856,293.756,509.432,290.332z"/>
<path style="fill:#E9E7D1;" d="M402.166,385.21l-22.609-22.609c-1.652-1.652-3.878-2.568-6.198-2.568
	c-0.206,0-0.411,0.009-0.616,0.026c-26.718,1.875-101.273,4.674-125.184-4.888c-19.947-7.979-39.61-0.351-56.946,6.395
	c-11.814,4.589-22.986,8.937-29.654,6.078c-2.106-0.899-2.251-1.635-2.311-1.952c-0.899-4.657,5.839-17.378,22.754-34.294
	c7.277-7.268,15.041-9.083,30.528-12.182c7.037-1.404,16.822-3.673,26.033-5.804c9.853-2.277,21.016-4.863,23.97-5.205
	c3.296-0.377,6.095-2.577,7.234-5.693c1.139-3.116,0.419-6.609-1.849-9.023L133.162,150.989c-1.293-2.988-4.854-12.61,0.163-17.635
	c3.185-3.185,6.763-4.041,9.716-4.041c3.801,0,6.309,1.216,6.206,1.147c2.919,2.919,87.782,86.609,87.782,86.609
	c3.304,3.253,8.561,3.364,12.002,0.291c3.45-3.091,3.904-8.33,1.027-11.968l-20.708-26.213c-0.582-2.765-1.395-10.53,5.616-17.541
	c6.266-6.241,12.618-2.243,15.546,0.163l29.038,21.256c3.732,2.722,8.946,2.089,11.899-1.447c2.971-3.544,2.671-8.783-0.668-11.968
	l-16.471-15.7c-0.942-2.277-2.217-7.97,4.357-14.553c7.876-7.876,16.736-2.32,22.771,3.715c7.508,7.508,30.485,23.294,33.079,25.066
	c3.587,2.448,8.441,1.917,11.411-1.31c2.945-3.21,3.082-8.107,0.317-11.48c-7.773-9.485-14.493-23.842-11.249-27.086
	c3.638-3.638,7.379-5.359,11.18-5.102c3.553,0.24,7.379,2.243,10.795,5.659l83.947,83.955c5.847,9.716,19.673,35.604,21.359,52.366
	c0.206,2.012,1.096,3.895,2.525,5.325l26.033,26.033L402.166,385.21z"/>
<g>
	<path style="fill:#314E55;" d="M76.952,339.625l-22.228,22.231v-68.63c0-4.845-3.925-8.766-8.766-8.766s-8.766,3.921-8.766,8.766
		v68.63l-22.228-22.231c-3.424-3.424-8.972-3.424-12.396,0c-3.424,3.424-3.424,8.972,0,12.396l37.192,37.196
		c1.644,1.644,3.874,2.568,6.198,2.568c2.324,0,4.554-0.925,6.198-2.568l37.192-37.196c3.424-3.424,3.424-8.972,0-12.396
		C85.924,336.201,80.377,336.2,76.952,339.625z"/>
	<path style="fill:#314E55;" d="M14.964,159.164l22.228-22.225v68.624c0,4.845,3.925,8.766,8.766,8.766s8.766-3.921,8.766-8.766
		V136.94l22.228,22.225c1.712,1.712,3.955,2.568,6.198,2.568c2.243,0,4.486-0.856,6.198-2.568c3.424-3.424,3.424-8.972,0-12.396
		l-37.192-37.188c-3.424-3.424-8.972-3.424-12.396,0L2.568,146.768c-3.424,3.424-3.424,8.972,0,12.396S11.54,162.589,14.964,159.164
		z"/>
</g>
<g>
</g>
<g>
</g>
<g>
</g>
<g>
</g>
<g>
</g>
<g>
</g>
<g>
</g>
<g>
</g>
<g>
</g>
<g>
</g>
<g>
</g>
<g>
</g>
<g>
</g>
<g>
</g>
<g>
</g>
</svg>
