<?xml version="1.0" encoding="iso-8859-1"?>
<!-- Generator: Adobe Illustrator 19.0.0, SVG Export Plug-In . SVG Version: 6.00 Build 0)  -->
<svg version="1.1" id="Layer_1" xmlns="http://www.w3.org/2000/svg" xmlns:xlink="http://www.w3.org/1999/xlink" x="0px" y="0px"
	 viewBox="0 0 512 512" style="enable-background:new 0 0 512 512;" xml:space="preserve">
<path style="fill:#314E55;" d="M403.904,395.87l-26.021-26.021c1.174-19.209,5.304-99.851-6.366-129.025
	c-5.424-13.555,0.617-29.088,6.46-44.117c5.929-15.251,11.524-29.654,5.869-42.926c-3.77-8.825-10.11-11.755-14.763-12.655
	c-12.552-2.408-29.337,6.871-50.054,27.589c-11.361,11.361-13.846,23.785-16.99,39.515c-1.379,6.906-3.607,16.502-5.698,25.541
	c-0.84,3.624-1.594,6.88-2.253,9.793L161.884,119.098c-0.583-0.54-1.225-1.002-1.928-1.371c-8.833-4.652-27.015-9.262-39.139,2.879
	c-5.989,5.989-9.151,13.649-9.151,22.14c0.009,7.403,2.519,14.883,6.246,18.593c1.517,1.517,27.015,27.366,49.96,50.628
	c-5.903,1.217-12.535,4.147-18.747,10.367c-11.464,11.464-9.459,25.31-4.627,33.946c-5.655,1.045-11.772,3.916-17.642,9.785
	c-13.332,13.332-11.875,32.019,3.71,47.604c0.737,0.737,1.611,1.714,2.588,2.87c-6.28-0.591-12.407,0.9-17.41,5.903
	c-13.829,13.829-13.606,32.635,0.565,46.807l84.771,84.763c0.488,0.488,1.028,0.908,1.611,1.268
	c1.388,0.857,33.021,20.169,57.491,23.999l30.151,30.151c1.713,1.714,3.958,2.57,6.203,2.57s4.49-0.857,6.203-2.57l101.162-101.154
	c1.645-1.645,2.57-3.873,2.57-6.203C406.474,399.742,405.549,397.515,403.904,395.87z"/>
<path style="fill:#E9E7D1;" d="M296.539,490.82l-26.055-26.055c-1.431-1.431-3.316-2.322-5.329-2.527
	c-18.901-1.902-47.175-18.275-52.427-21.394l-84.009-84c-5.141-5.149-9.416-13.135-0.565-21.994
	c3.307-3.316,17.547,3.453,27.126,11.267c3.376,2.75,8.259,2.622,11.49-0.343c3.204-2.947,3.77-7.805,1.302-11.404
	c-1.774-2.596-17.581-25.593-25.096-33.107c-6.04-6.049-11.593-14.908-3.71-22.791c6.623-6.632,12.338-5.287,14.548-4.37
	l15.731,16.493c3.179,3.341,8.431,3.633,11.978,0.668s4.181-8.174,1.448-11.91l-21.66-29.551c-2.014-2.442-6.04-8.799,0.223-15.063
	c7.051-7.069,14.685-6.272,17.539-5.646l26.252,20.743c3.633,2.887,8.868,2.425,11.978-1.028c3.093-3.453,2.965-8.714-0.291-12.012
	c0,0-83.906-85.08-86.279-87.393c-0.06-0.086-4.687-9.211,2.493-16.391c5.029-5.029,14.66-1.448,17.659-0.171L293.497,267.11
	c2.416,2.271,5.903,3.007,9.031,1.851c3.119-1.139,5.321-3.941,5.698-7.24c0.343-2.956,2.93-14.129,5.209-23.99
	c2.134-9.219,4.404-19.012,5.809-26.055c3.102-15.499,4.918-23.271,12.192-30.553c16.93-16.93,29.594-23.665,34.315-22.774
	c0.317,0.068,1.054,0.206,1.953,2.322c2.853,6.692-1.482,17.856-6.083,29.679c-6.743,17.35-14.386,37.014-6.4,56.986
	c9.562,23.905,6.777,98.549,4.901,125.29c-0.18,2.536,0.745,5.021,2.545,6.82l22.628,22.628L296.539,490.82z"/>
<g>
	<path style="fill:#314E55;" d="M334.452,14.977l22.25,22.247h-68.688c-4.849,0-8.774,3.928-8.774,8.774s3.924,8.774,8.774,8.774
		h68.688l-22.25,22.247c-3.427,3.427-3.427,8.979,0,12.406c3.427,3.427,8.979,3.427,12.406,0L384.086,52.2
		c1.645-1.645,2.57-3.877,2.57-6.203c0-2.326-0.925-4.558-2.57-6.203L346.858,2.57c-3.427-3.427-8.979-3.427-12.406,0
		C331.025,5.998,331.025,11.55,334.452,14.977z"/>
	<path style="fill:#314E55;" d="M162.613,77.018l-22.243-22.247h68.682c4.849,0,8.774-3.928,8.774-8.774s-3.924-8.774-8.774-8.774
		h-68.682l22.243-22.247c1.714-1.713,2.57-3.958,2.57-6.203s-0.857-4.49-2.57-6.203c-3.427-3.427-8.979-3.427-12.406,0
		l-37.219,37.224c-3.427,3.427-3.427,8.979,0,12.406l37.219,37.224c3.427,3.427,8.979,3.427,12.406,0
		C166.04,85.997,166.04,80.445,162.613,77.018z"/>
</g>
<g>
</g>
<g>
</g>
<g>
</g>
<g>
</g>
<g>
</g>
<g>
</g>
<g>
</g>
<g>
</g>
<g>
</g>
<g>
</g>
<g>
</g>
<g>
</g>
<g>
</g>
<g>
</g>
<g>
</g>
</svg>
