<?xml version="1.0" encoding="iso-8859-1"?>
<!-- Generator: Adobe Illustrator 19.0.0, SVG Export Plug-In . SVG Version: 6.00 Build 0)  -->
<svg version="1.1" id="Layer_1" xmlns="http://www.w3.org/2000/svg" xmlns:xlink="http://www.w3.org/1999/xlink" x="0px" y="0px"
	 viewBox="0 0 512 512" style="enable-background:new 0 0 512 512;" xml:space="preserve">
<path style="fill:#314E55;" d="M369.647,111.551c-0.009,0-0.017,0-0.026,0c-7.41,0.009-14.897,2.521-18.611,6.252
	c-1.518,1.518-27.393,27.05-50.678,50.009c-1.218-5.909-4.151-12.539-10.369-18.765c-11.484-11.493-25.352-9.46-33.989-4.631
	c-1.046-5.66-3.92-11.784-9.794-17.659c-8.01-8.019-18.105-10.892-28.44-8.079c-8.868,2.41-15.85,8.431-19.211,11.801
	c-0.738,0.729-1.715,1.612-2.865,2.582c0.54-6.269-0.909-12.41-5.918-17.419c-9.203-9.219-18.637-10.669-24.803-10.223
	c-7.908,0.532-15.532,4.263-22.05,10.781l-84.847,84.856c-0.489,0.489-0.909,1.029-1.269,1.612
	c-0.858,1.389-20.189,33.054-24.023,57.548L2.573,290.397c-3.431,3.431-3.431,8.988,0,12.419l101.254,101.263
	c1.647,1.647,3.877,2.573,6.209,2.573s4.563-0.926,6.209-2.573l26.047-26.047c19.246,1.175,99.968,5.309,129.154-6.364
	c13.594-5.429,29.134,0.609,44.169,6.467c15.258,5.935,29.658,11.544,42.96,5.875c8.834-3.774,11.767-10.12,12.667-14.777
	c2.419-12.505-6.87-29.366-27.616-50.112c-11.372-11.372-23.808-13.86-39.555-17.007c-6.913-1.381-16.518-3.611-25.566-5.703
	c-3.628-0.84-6.887-1.595-9.803-2.256l124.591-132.335c0.54-0.575,1.003-1.226,1.372-1.93c4.648-8.834,9.271-27.025-2.882-39.178
	C385.797,114.716,378.138,111.551,369.647,111.551z"/>
<path style="fill:#E9E7D1;" d="M379.536,150.806L245.134,293.562c-2.273,2.419-2.993,5.918-1.853,9.04s3.945,5.326,7.247,5.703
	c2.959,0.343,14.143,2.933,24.014,5.215c9.228,2.136,19.031,4.408,26.081,5.815c15.515,3.105,23.294,4.923,30.584,12.204
	c16.947,16.947,23.697,29.692,22.796,34.357c-0.069,0.317-0.206,1.055-2.316,1.955c-6.733,2.847-17.882-1.492-29.709-6.089
	c-17.368-6.767-37.076-14.409-57.051-6.407c-23.911,9.58-98.647,6.784-125.414,4.897c-2.521-0.206-5.026,0.746-6.827,2.547
	l-22.651,22.651l-88.836-88.844l26.081-26.081c1.432-1.432,2.324-3.319,2.53-5.335c1.904-18.92,18.294-47.231,21.416-52.48
	l84.084-84.093c3.422-3.422,7.256-5.429,10.815-5.669c3.782-0.24,7.556,1.467,11.201,5.112c3.319,3.311-3.456,17.556-11.278,27.145
	c-2.753,3.379-2.616,8.285,0.334,11.493c2.968,3.225,7.822,3.782,11.424,1.312c2.599-1.775,25.618-17.59,33.148-25.112
	c3.628-3.636,7.779-6.287,11.39-7.273c4.314-1.158,7.796-0.06,11.415,3.551c6.621,6.63,5.292,12.359,4.374,14.563l-16.51,15.747
	c-3.345,3.19-3.645,8.439-0.669,11.99c2.959,3.542,8.182,4.194,11.921,1.45l29.649-21.741c1.321-1.132,8.259-6.484,15.017,0.283
	c7.067,7.067,6.261,14.717,5.643,17.556l-20.764,26.279c-2.882,3.645-2.427,8.894,1.029,11.99c3.448,3.087,8.714,2.968,12.024-0.292
	c0,0,85.165-83.99,87.48-86.365c0.077-0.06,9.237-4.683,16.407,2.496C384.39,138.156,380.822,147.822,379.536,150.806z"/>
<g>
	<path style="fill:#314E55;" d="M497.008,342.963l-22.269,22.272v-68.757c0-4.854-3.932-8.782-8.782-8.782
		c-4.85,0-8.782,3.928-8.782,8.782v68.757l-22.269-22.272c-3.431-3.431-8.988-3.431-12.419,0c-3.43,3.431-3.431,8.988,0,12.419
		l37.261,37.265c1.647,1.647,3.881,2.573,6.209,2.573c2.328,0,4.563-0.926,6.209-2.573l37.261-37.265
		c3.431-3.431,3.431-8.988,0-12.419S500.439,339.532,497.008,342.963z"/>
	<path style="fill:#314E55;" d="M434.906,162.17l22.269-22.266v68.75c0,4.854,3.932,8.782,8.782,8.782
		c4.85,0,8.782-3.928,8.782-8.782v-68.75l22.269,22.266c1.715,1.715,3.962,2.573,6.209,2.573s4.494-0.858,6.209-2.573
		c3.431-3.431,3.431-8.988,0-12.419l-37.261-37.256c-3.431-3.431-8.988-3.431-12.419,0l-37.261,37.256
		c-3.431,3.431-3.431,8.988,0,12.419C425.918,165.6,431.475,165.601,434.906,162.17z"/>
</g>
<g>
</g>
<g>
</g>
<g>
</g>
<g>
</g>
<g>
</g>
<g>
</g>
<g>
</g>
<g>
</g>
<g>
</g>
<g>
</g>
<g>
</g>
<g>
</g>
<g>
</g>
<g>
</g>
<g>
</g>
</svg>
