<?xml version="1.0" encoding="iso-8859-1"?>
<!-- Generator: Adobe Illustrator 19.0.0, SVG Export Plug-In . SVG Version: 6.00 Build 0)  -->
<svg version="1.1" id="Layer_1" xmlns="http://www.w3.org/2000/svg" xmlns:xlink="http://www.w3.org/1999/xlink" x="0px" y="0px"
	 viewBox="0 0 512 512" style="enable-background:new 0 0 512 512;" xml:space="preserve">
<path style="fill:#314E55;" d="M404.646,104.247L302.973,2.583c-3.444-3.444-9.025-3.444-12.469,0l-30.303,30.303
	c-24.594,3.849-56.386,23.259-57.781,24.12c-0.586,0.362-1.128,0.784-1.619,1.274l-85.199,85.19
	c-14.234,14.243-14.458,33.145-0.56,47.043c5.029,5.02,11.177,6.493,17.489,5.942c-0.982,1.154-1.86,2.136-2.592,2.868
	c-15.672,15.672-17.136,34.453-3.737,47.852c5.924,5.924,12.099,8.809,17.799,9.842c-4.977,9.025-6.794,22.734,4.581,34.109
	c6.252,6.252,12.908,9.197,18.85,10.42c-23.061,23.371-48.696,49.359-50.22,50.883c-6.45,6.45-11.272,26.746,2.919,40.938
	c5.795,5.795,12.951,7.793,19.823,7.793c7.604,0,14.854-2.446,19.513-4.9c0.706-0.37,1.361-0.835,1.938-1.378l132.871-125.086
	c0.672,2.936,1.429,6.234,2.282,9.894c2.092,9.068,4.323,18.686,5.709,25.61c3.16,15.81,5.658,28.296,17.076,39.715
	c20.856,20.839,37.82,30.139,50.324,27.728c4.676-0.904,11.048-3.849,14.829-12.727c5.683-13.33,0.06-27.806-5.899-43.125
	c-5.873-15.104-11.944-30.725-6.493-44.348c11.728-29.321,7.578-110.37,6.389-129.676l26.152-26.152
	c1.653-1.653,2.583-3.892,2.583-6.234C407.229,108.139,406.299,105.9,404.646,104.247z"/>
<path style="fill:#E9E7D1;" d="M363.2,133.224c-1.808,1.808-2.738,4.306-2.558,6.855c1.886,26.876,4.702,101.888-4.917,125.921
	c-8.026,20.073-0.344,39.844,6.433,57.282c4.616,11.875,8.981,23.095,6.114,29.82c-0.904,2.127-1.645,2.265-1.963,2.334
	c-4.753,0.835-17.472-5.882-34.496-22.889c-7.311-7.319-9.136-15.13-12.254-30.708c-1.412-7.061-3.677-16.878-5.821-26.126
	c-2.299-9.929-4.9-21.184-5.244-24.154c-0.37-3.324-2.592-6.14-5.727-7.285c-3.117-1.188-6.656-0.431-9.076,1.851L150.34,381.071
	c-2.997,1.292-12.667,4.874-17.739-0.172c-7.061-7.061-2.747-16.008-2.902-16.008h-0.009c2.945-2.945,87.119-88.299,87.119-88.299
	c3.272-3.315,3.401-8.602,0.293-12.073c-3.117-3.479-8.379-3.918-12.038-1.042l-26.367,20.83
	c-2.764,0.611-10.583,1.404-17.644-5.649c-6.295-6.295-2.247-12.684,0.163-15.629l21.382-29.209c2.747-3.754,2.11-8.99-1.455-11.97
	c-3.556-2.98-8.835-2.695-12.038,0.672l-15.802,16.568c-2.273,0.939-8.017,2.222-14.63-4.383
	c-7.922-7.922-2.342-16.835,3.737-22.906c7.552-7.552,23.431-30.665,25.214-33.274c2.48-3.617,1.92-8.508-1.318-11.479
	c-3.229-2.962-8.146-3.091-11.548-0.319c-9.602,7.871-23.887,14.691-27.246,11.315c-8.895-8.895-4.607-16.938,0.56-22.105
	l84.45-84.441c9.774-5.882,35.814-19.789,52.675-21.485c2.024-0.207,3.918-1.102,5.356-2.54l26.187-26.187l89.203,89.195
	L363.2,133.224z"/>
<g>
	<path style="fill:#314E55;" d="M166.891,496.947l-22.362-22.359h69.035c4.874,0,8.818-3.948,8.818-8.818s-3.944-8.818-8.818-8.818
		h-69.035l22.362-22.359c3.444-3.444,3.444-9.025,0-12.469c-3.444-3.444-9.025-3.444-12.469,0l-37.416,37.411
		c-1.653,1.653-2.583,3.897-2.583,6.234c0,2.338,0.93,4.581,2.583,6.234l37.416,37.411c3.444,3.444,9.025,3.444,12.469,0
		S170.335,500.392,166.891,496.947z"/>
	<path style="fill:#314E55;" d="M329.866,434.594l22.356,22.359h-69.028c-4.874,0-8.818,3.948-8.818,8.818s3.944,8.818,8.818,8.818
		h69.028l-22.356,22.359c-1.722,1.722-2.583,3.978-2.583,6.234c0,2.256,0.861,4.512,2.583,6.234c3.444,3.444,9.025,3.444,12.469,0
		l37.407-37.411c3.444-3.444,3.444-9.025,0-12.469l-37.407-37.411c-3.444-3.444-9.025-3.444-12.469,0
		C326.422,425.569,326.422,431.149,329.866,434.594z"/>
</g>
<g>
</g>
<g>
</g>
<g>
</g>
<g>
</g>
<g>
</g>
<g>
</g>
<g>
</g>
<g>
</g>
<g>
</g>
<g>
</g>
<g>
</g>
<g>
</g>
<g>
</g>
<g>
</g>
<g>
</g>
</svg>
